<svg width="23" height="13" viewBox="0 0 23 13" fill="none" xmlns="http://www.w3.org/2000/svg">
<mask id="path-1-inside-1_217_624" fill="white">
<rect width="6.1395" height="11.2558" rx="1"/>
</mask>
<rect width="6.1395" height="11.2558" rx="1" stroke="white" stroke-width="4" mask="url(#path-1-inside-1_217_624)"/>
<path d="M14.5429 5.33227C14.5429 4.01787 13.3748 3.68927 12.7907 3.68927H10.0344C8.63258 2.37486 6.33522 2.04626 5.36177 2.04626L5.36176 8.95711L7.65807 10.3656C8.13651 10.6591 8.66005 10.8738 9.20794 10.9957C10.5736 11.2994 11.9786 11.51 14.0666 10.5985L21.081 6.33847C22.0086 5.91987 22.2221 4.62201 21.7751 3.97532C21.1801 3.11433 19.8282 3.2451 19.4389 3.42765L14.5429 5.33227ZM14.5429 5.33227C14.5429 6.64667 13.3748 6.97527 12.7907 6.97527H10.0344" stroke="white" stroke-width="2" stroke-linecap="round"/>
</svg>
