<svg width="466" height="293" viewBox="0 0 466 293" fill="none" xmlns="http://www.w3.org/2000/svg">
<path d="M269.09 147.126C269.09 214.496 214.476 269.11 147.107 269.11C79.7374 269.11 25.1237 214.496 25.1237 147.126C25.1237 79.7568 79.7374 25.1431 147.107 25.1431C214.476 25.1431 269.09 79.7568 269.09 147.126ZM93.1684 147.126C93.1684 176.916 117.318 201.065 147.107 201.065C176.896 201.065 201.045 176.916 201.045 147.126C201.045 117.337 176.896 93.1879 147.107 93.1879C117.318 93.1879 93.1684 117.337 93.1684 147.126Z" fill="#333333"/>
<path d="M146.5 259.4C130.332 259.4 114.353 255.927 99.6442 249.216C84.9353 242.505 71.8396 232.712 61.2434 220.501C50.6472 208.29 42.7977 193.945 38.2262 178.438C33.6546 162.93 32.4677 146.621 34.7457 130.615C37.0238 114.608 42.7136 99.2783 51.4301 85.6617C60.1467 72.0451 71.6866 60.4598 85.2688 51.6899C98.8511 42.9199 114.159 37.17 130.156 34.8291C146.153 32.4882 162.467 33.6111 177.992 38.1217L146.5 146.52L146.5 259.4Z" fill="#FC8C07"/>
<path d="M146.501 259.4C170.945 259.4 194.729 251.465 214.276 236.788C233.824 222.112 248.079 201.486 254.899 178.012L146.501 146.52L146.501 259.4Z" fill="#542F8F"/>
<path d="M251.458 104.958C245.123 88.9514 235.21 74.606 222.479 63.0189C209.748 51.4319 194.535 42.9101 178.005 38.1056L146.5 146.5L251.458 104.958Z" fill="#61C61E"/>
<path d="M254.869 178.101C261.883 154.052 260.697 128.353 251.498 105.052L146.503 146.5L254.869 178.101Z" fill="#0E6DEA"/>
<circle cx="146.688" cy="146.705" r="66.9423" fill="#1C1C1C"/>
<path d="M145.456 138H141.856L147.376 123.864H139.456V120.768H151.096V123.312L145.456 138Z" fill="white"/>
<path d="M111.04 158.272V161.424C111.115 161.584 111.211 161.733 111.328 161.872C111.456 162 111.6 162.117 111.76 162.224C111.92 162.32 112.091 162.395 112.272 162.448C112.453 162.501 112.64 162.528 112.832 162.528C113.184 162.528 113.499 162.464 113.776 162.336C114.064 162.197 114.309 162.005 114.512 161.76C114.715 161.515 114.869 161.232 114.976 160.912C115.083 160.592 115.136 160.235 115.136 159.84C115.136 159.456 115.083 159.104 114.976 158.784C114.869 158.453 114.715 158.171 114.512 157.936C114.309 157.691 114.064 157.504 113.776 157.376C113.499 157.237 113.184 157.168 112.832 157.168C112.64 157.168 112.453 157.195 112.272 157.248C112.091 157.291 111.92 157.365 111.76 157.472C111.6 157.568 111.456 157.685 111.328 157.824C111.211 157.963 111.115 158.112 111.04 158.272ZM111.04 163.296V167.184H109.168V155.696H111.04V156.4C111.136 156.272 111.253 156.155 111.392 156.048C111.541 155.941 111.707 155.851 111.888 155.776C112.08 155.691 112.283 155.627 112.496 155.584C112.709 155.531 112.928 155.504 113.152 155.504C113.739 155.504 114.272 155.621 114.752 155.856C115.232 156.08 115.637 156.395 115.968 156.8C116.309 157.195 116.565 157.653 116.736 158.176C116.917 158.699 117.008 159.253 117.008 159.84C117.008 160.427 116.917 160.987 116.736 161.52C116.565 162.043 116.309 162.501 115.968 162.896C115.637 163.291 115.232 163.605 114.752 163.84C114.272 164.075 113.739 164.192 113.152 164.192C112.928 164.192 112.709 164.165 112.496 164.112C112.283 164.059 112.08 163.995 111.888 163.92C111.707 163.835 111.541 163.739 111.392 163.632C111.253 163.525 111.136 163.413 111.04 163.296ZM123.386 155.648V157.584C123.322 157.531 123.242 157.488 123.146 157.456C123.061 157.424 122.97 157.397 122.874 157.376C122.778 157.344 122.677 157.323 122.57 157.312C122.474 157.301 122.378 157.296 122.282 157.296C122.079 157.296 121.887 157.328 121.706 157.392C121.535 157.445 121.375 157.531 121.226 157.648C121.077 157.755 120.949 157.888 120.842 158.048C120.735 158.208 120.661 158.4 120.618 158.624V164H118.746V155.696H120.618V156.544C120.693 156.395 120.794 156.256 120.922 156.128C121.05 156 121.194 155.888 121.354 155.792C121.525 155.696 121.701 155.627 121.882 155.584C122.074 155.531 122.266 155.504 122.458 155.504C122.565 155.504 122.661 155.509 122.746 155.52C122.842 155.52 122.933 155.531 123.018 155.552C123.114 155.573 123.189 155.589 123.242 155.6C123.295 155.611 123.343 155.627 123.386 155.648ZM132.152 159.84C132.152 160.469 132.056 161.051 131.864 161.584C131.683 162.117 131.411 162.581 131.048 162.976C130.696 163.36 130.275 163.659 129.784 163.872C129.304 164.085 128.776 164.192 128.2 164.192C127.624 164.192 127.091 164.085 126.6 163.872C126.12 163.659 125.699 163.36 125.336 162.976C124.984 162.581 124.712 162.117 124.52 161.584C124.339 161.051 124.248 160.469 124.248 159.84C124.248 159.221 124.339 158.645 124.52 158.112C124.712 157.568 124.984 157.104 125.336 156.72C125.699 156.336 126.12 156.037 126.6 155.824C127.091 155.611 127.624 155.504 128.2 155.504C128.776 155.504 129.304 155.611 129.784 155.824C130.275 156.037 130.696 156.336 131.048 156.72C131.411 157.104 131.683 157.568 131.864 158.112C132.056 158.645 132.152 159.221 132.152 159.84ZM130.28 159.84C130.28 159.445 130.237 159.083 130.152 158.752C130.067 158.421 129.933 158.133 129.752 157.888C129.571 157.643 129.347 157.451 129.08 157.312C128.824 157.173 128.531 157.104 128.2 157.104C127.88 157.104 127.587 157.173 127.32 157.312C127.064 157.451 126.845 157.643 126.664 157.888C126.483 158.133 126.344 158.421 126.248 158.752C126.163 159.083 126.12 159.445 126.12 159.84C126.12 160.245 126.163 160.613 126.248 160.944C126.344 161.275 126.483 161.563 126.664 161.808C126.845 162.043 127.064 162.229 127.32 162.368C127.587 162.507 127.88 162.576 128.2 162.576C128.531 162.576 128.824 162.507 129.08 162.368C129.347 162.229 129.571 162.043 129.752 161.808C129.933 161.563 130.067 161.275 130.152 160.944C130.237 160.613 130.28 160.245 130.28 159.84ZM135.774 158.272V161.424C135.849 161.584 135.945 161.733 136.062 161.872C136.19 162 136.334 162.117 136.494 162.224C136.654 162.32 136.825 162.395 137.006 162.448C137.188 162.501 137.374 162.528 137.566 162.528C137.918 162.528 138.233 162.464 138.51 162.336C138.798 162.197 139.044 162.005 139.246 161.76C139.449 161.515 139.604 161.232 139.71 160.912C139.817 160.592 139.87 160.235 139.87 159.84C139.87 159.456 139.817 159.104 139.71 158.784C139.604 158.453 139.449 158.171 139.246 157.936C139.044 157.691 138.798 157.504 138.51 157.376C138.233 157.237 137.918 157.168 137.566 157.168C137.374 157.168 137.188 157.195 137.006 157.248C136.825 157.291 136.654 157.365 136.494 157.472C136.334 157.568 136.19 157.685 136.062 157.824C135.945 157.963 135.849 158.112 135.774 158.272ZM135.774 163.296V167.184H133.902V155.696H135.774V156.4C135.87 156.272 135.988 156.155 136.126 156.048C136.276 155.941 136.441 155.851 136.622 155.776C136.814 155.691 137.017 155.627 137.23 155.584C137.444 155.531 137.662 155.504 137.886 155.504C138.473 155.504 139.006 155.621 139.486 155.856C139.966 156.08 140.372 156.395 140.702 156.8C141.044 157.195 141.3 157.653 141.47 158.176C141.652 158.699 141.742 159.253 141.742 159.84C141.742 160.427 141.652 160.987 141.47 161.52C141.3 162.043 141.044 162.501 140.702 162.896C140.372 163.291 139.966 163.605 139.486 163.84C139.006 164.075 138.473 164.192 137.886 164.192C137.662 164.192 137.444 164.165 137.23 164.112C137.017 164.059 136.814 163.995 136.622 163.92C136.441 163.835 136.276 163.739 136.126 163.632C135.988 163.525 135.87 163.413 135.774 163.296ZM150.391 161.424C150.252 162.245 149.884 162.912 149.287 163.424C148.7 163.936 147.9 164.192 146.887 164.192C146.3 164.192 145.767 164.085 145.287 163.872C144.807 163.659 144.396 163.365 144.055 162.992C143.714 162.608 143.442 162.149 143.239 161.616C143.047 161.083 142.951 160.496 142.951 159.856C142.951 159.237 143.047 158.661 143.239 158.128C143.442 157.595 143.714 157.136 144.055 156.752C144.396 156.357 144.807 156.053 145.287 155.84C145.767 155.616 146.29 155.504 146.855 155.504C147.442 155.504 147.959 155.605 148.407 155.808C148.855 156 149.228 156.277 149.527 156.64C149.836 157.003 150.066 157.435 150.215 157.936C150.375 158.437 150.455 158.992 150.455 159.6V160.272H144.791C144.802 160.635 144.86 160.965 144.967 161.264C145.074 161.552 145.218 161.797 145.399 162C145.591 162.203 145.81 162.357 146.055 162.464C146.311 162.56 146.588 162.608 146.887 162.608C147.335 162.608 147.719 162.512 148.039 162.32C148.359 162.117 148.567 161.819 148.663 161.424H150.391ZM146.871 157.072C146.604 157.072 146.359 157.115 146.135 157.2C145.922 157.275 145.73 157.387 145.559 157.536C145.388 157.685 145.239 157.877 145.111 158.112C144.983 158.347 144.892 158.613 144.839 158.912H148.615C148.615 158.656 148.578 158.416 148.503 158.192C148.428 157.968 148.311 157.776 148.151 157.616C148.002 157.445 147.82 157.312 147.607 157.216C147.404 157.12 147.159 157.072 146.871 157.072ZM156.839 155.648V157.584C156.775 157.531 156.695 157.488 156.599 157.456C156.514 157.424 156.423 157.397 156.327 157.376C156.231 157.344 156.13 157.323 156.023 157.312C155.927 157.301 155.831 157.296 155.735 157.296C155.533 157.296 155.341 157.328 155.159 157.392C154.989 157.445 154.829 157.531 154.679 157.648C154.53 157.755 154.402 157.888 154.295 158.048C154.189 158.208 154.114 158.4 154.071 158.624V164H152.199V155.696H154.071V156.544C154.146 156.395 154.247 156.256 154.375 156.128C154.503 156 154.647 155.888 154.807 155.792C154.978 155.696 155.154 155.627 155.335 155.584C155.527 155.531 155.719 155.504 155.911 155.504C156.018 155.504 156.114 155.509 156.199 155.52C156.295 155.52 156.386 155.531 156.471 155.552C156.567 155.573 156.642 155.589 156.695 155.6C156.749 155.611 156.797 155.627 156.839 155.648ZM158.99 157.248H157.694V155.696H158.99V153.456H160.862V155.696H162.734V157.248H160.862V161.552C160.862 161.883 160.948 162.128 161.118 162.288C161.3 162.448 161.545 162.528 161.854 162.528C162.046 162.528 162.238 162.496 162.43 162.432C162.622 162.368 162.788 162.288 162.926 162.192V163.888C162.766 163.984 162.564 164.059 162.318 164.112C162.073 164.165 161.806 164.192 161.518 164.192C160.772 164.192 160.164 163.995 159.694 163.6C159.225 163.195 158.99 162.581 158.99 161.76V157.248ZM166.936 153.184C166.936 153.333 166.904 153.483 166.84 153.632C166.776 153.771 166.691 153.893 166.584 154C166.477 154.107 166.349 154.187 166.2 154.24C166.061 154.293 165.917 154.32 165.768 154.32C165.619 154.32 165.469 154.293 165.32 154.24C165.181 154.187 165.059 154.107 164.952 154C164.845 153.893 164.76 153.771 164.696 153.632C164.632 153.483 164.6 153.333 164.6 153.184C164.6 153.035 164.632 152.891 164.696 152.752C164.76 152.603 164.845 152.475 164.952 152.368C165.059 152.261 165.181 152.181 165.32 152.128C165.469 152.064 165.619 152.032 165.768 152.032C165.917 152.032 166.061 152.064 166.2 152.128C166.349 152.181 166.477 152.261 166.584 152.368C166.691 152.475 166.776 152.603 166.84 152.752C166.904 152.891 166.936 153.035 166.936 153.184ZM166.712 155.696V164H164.84V155.696H166.712ZM175.875 161.424C175.737 162.245 175.369 162.912 174.771 163.424C174.185 163.936 173.385 164.192 172.371 164.192C171.785 164.192 171.251 164.085 170.771 163.872C170.291 163.659 169.881 163.365 169.539 162.992C169.198 162.608 168.926 162.149 168.723 161.616C168.531 161.083 168.435 160.496 168.435 159.856C168.435 159.237 168.531 158.661 168.723 158.128C168.926 157.595 169.198 157.136 169.539 156.752C169.881 156.357 170.291 156.053 170.771 155.84C171.251 155.616 171.774 155.504 172.339 155.504C172.926 155.504 173.443 155.605 173.891 155.808C174.339 156 174.713 156.277 175.011 156.64C175.321 157.003 175.55 157.435 175.699 157.936C175.859 158.437 175.939 158.992 175.939 159.6V160.272H170.275C170.286 160.635 170.345 160.965 170.451 161.264C170.558 161.552 170.702 161.797 170.883 162C171.075 162.203 171.294 162.357 171.539 162.464C171.795 162.56 172.073 162.608 172.371 162.608C172.819 162.608 173.203 162.512 173.523 162.32C173.843 162.117 174.051 161.819 174.147 161.424H175.875ZM172.355 157.072C172.089 157.072 171.843 157.115 171.619 157.2C171.406 157.275 171.214 157.387 171.043 157.536C170.873 157.685 170.723 157.877 170.595 158.112C170.467 158.347 170.377 158.613 170.323 158.912H174.099C174.099 158.656 174.062 158.416 173.987 158.192C173.913 157.968 173.795 157.776 173.635 157.616C173.486 157.445 173.305 157.312 173.091 157.216C172.889 157.12 172.643 157.072 172.355 157.072ZM179.012 161.6C179.108 161.952 179.3 162.219 179.588 162.4C179.886 162.571 180.244 162.656 180.66 162.656C180.862 162.656 181.049 162.635 181.22 162.592C181.401 162.549 181.556 162.485 181.684 162.4C181.812 162.315 181.908 162.213 181.972 162.096C182.036 161.968 182.068 161.824 182.068 161.664C182.068 161.44 181.993 161.264 181.844 161.136C181.694 160.997 181.449 160.885 181.108 160.8L179.38 160.384C178.793 160.245 178.302 160.005 177.908 159.664C177.513 159.312 177.316 158.789 177.316 158.096C177.316 157.723 177.396 157.381 177.556 157.072C177.716 156.752 177.934 156.475 178.212 156.24C178.489 156.005 178.82 155.824 179.204 155.696C179.598 155.568 180.02 155.504 180.468 155.504C181.438 155.504 182.201 155.723 182.756 156.16C183.31 156.597 183.657 157.195 183.796 157.952H181.956C181.87 157.675 181.705 157.456 181.46 157.296C181.225 157.125 180.889 157.04 180.452 157.04C180.121 157.04 179.817 157.12 179.54 157.28C179.262 157.429 179.124 157.664 179.124 157.984C179.124 158.176 179.188 158.336 179.316 158.464C179.454 158.581 179.673 158.677 179.972 158.752L181.732 159.168C182.446 159.349 182.98 159.637 183.332 160.032C183.694 160.416 183.876 160.917 183.876 161.536C183.876 161.941 183.79 162.309 183.62 162.64C183.46 162.971 183.236 163.248 182.948 163.472C182.67 163.696 182.329 163.872 181.924 164C181.529 164.128 181.097 164.192 180.628 164.192C180.148 164.192 179.705 164.128 179.3 164C178.894 163.883 178.537 163.712 178.228 163.488C177.918 163.264 177.668 162.997 177.476 162.688C177.284 162.368 177.156 162.005 177.092 161.6H179.012Z" fill="white"/>
<rect x="225" y="96" width="240" height="45" fill="#F5F5F5"/>
<path d="M249 118C249 115.791 250.791 114 253 114C255.209 114 257 115.791 257 118C257 120.209 255.209 122 253 122C250.791 122 249 120.209 249 118Z" fill="#61C61E"/>
<path d="M276.264 118.256C276.264 119.099 276.131 119.883 275.864 120.608C275.608 121.333 275.24 121.968 274.76 122.512C274.291 123.045 273.725 123.461 273.064 123.76C272.413 124.048 271.709 124.192 270.952 124.192C270.195 124.192 269.485 124.048 268.824 123.76C268.173 123.461 267.608 123.045 267.128 122.512C266.659 121.968 266.296 121.333 266.04 120.608C265.784 119.883 265.656 119.099 265.656 118.256C265.656 117.403 265.784 116.613 266.04 115.888C266.296 115.152 266.659 114.523 267.128 114C267.608 113.467 268.173 113.056 268.824 112.768C269.485 112.469 270.195 112.32 270.952 112.32C271.709 112.32 272.413 112.469 273.064 112.768C273.725 113.056 274.291 113.467 274.76 114C275.24 114.523 275.608 115.152 275.864 115.888C276.131 116.613 276.264 117.403 276.264 118.256ZM274.296 118.256C274.296 117.659 274.216 117.104 274.056 116.592C273.907 116.069 273.683 115.621 273.384 115.248C273.085 114.864 272.728 114.571 272.312 114.368C271.907 114.165 271.453 114.064 270.952 114.064C270.451 114.064 269.992 114.165 269.576 114.368C269.171 114.571 268.819 114.864 268.52 115.248C268.232 115.621 268.008 116.069 267.848 116.592C267.699 117.104 267.624 117.659 267.624 118.256C267.624 118.853 267.699 119.413 267.848 119.936C268.008 120.448 268.232 120.891 268.52 121.264C268.819 121.637 269.171 121.931 269.576 122.144C269.992 122.347 270.451 122.448 270.952 122.448C271.453 122.448 271.907 122.347 272.312 122.144C272.728 121.931 273.085 121.637 273.384 121.264C273.683 120.891 273.907 120.448 274.056 119.936C274.216 119.413 274.296 118.853 274.296 118.256ZM287.978 111.872V113.52C287.925 113.467 287.855 113.424 287.77 113.392C287.685 113.36 287.605 113.339 287.53 113.328C287.455 113.307 287.375 113.291 287.29 113.28C287.215 113.259 287.141 113.248 287.066 113.248C286.885 113.248 286.719 113.28 286.57 113.344C286.421 113.397 286.293 113.477 286.186 113.584C286.079 113.691 285.994 113.824 285.93 113.984C285.877 114.144 285.85 114.325 285.85 114.528V115.696H287.674V117.248H285.85V124H284.01V117.248H280.538V124H278.698V117.248H277.258V115.696H278.698V114.512C278.698 114.075 278.767 113.685 278.906 113.344C279.045 113.003 279.237 112.715 279.482 112.48C279.727 112.235 280.015 112.053 280.346 111.936C280.687 111.819 281.05 111.76 281.434 111.76C281.573 111.76 281.695 111.765 281.802 111.776C281.919 111.776 282.026 111.787 282.122 111.808C282.229 111.829 282.325 111.856 282.41 111.888C282.495 111.909 282.581 111.941 282.666 111.984V113.632C282.602 113.579 282.527 113.536 282.442 113.504C282.367 113.472 282.293 113.451 282.218 113.44C282.143 113.419 282.063 113.403 281.978 113.392C281.903 113.371 281.829 113.36 281.754 113.36C281.562 113.36 281.391 113.392 281.242 113.456C281.093 113.509 280.965 113.589 280.858 113.696C280.751 113.803 280.671 113.936 280.618 114.096C280.565 114.256 280.538 114.437 280.538 114.64V115.696H284.01V114.4C284.01 113.963 284.079 113.573 284.218 113.232C284.357 112.88 284.549 112.587 284.794 112.352C285.039 112.117 285.327 111.941 285.658 111.824C285.999 111.707 286.362 111.648 286.746 111.648C286.885 111.648 287.007 111.653 287.114 111.664C287.231 111.664 287.338 111.675 287.434 111.696C287.541 111.707 287.637 111.728 287.722 111.76C287.807 111.792 287.893 111.829 287.978 111.872ZM291.436 113.184C291.436 113.333 291.404 113.483 291.34 113.632C291.276 113.771 291.191 113.893 291.084 114C290.977 114.107 290.849 114.187 290.7 114.24C290.561 114.293 290.417 114.32 290.268 114.32C290.119 114.32 289.969 114.293 289.82 114.24C289.681 114.187 289.559 114.107 289.452 114C289.345 113.893 289.26 113.771 289.196 113.632C289.132 113.483 289.1 113.333 289.1 113.184C289.1 113.035 289.132 112.891 289.196 112.752C289.26 112.603 289.345 112.475 289.452 112.368C289.559 112.261 289.681 112.181 289.82 112.128C289.969 112.064 290.119 112.032 290.268 112.032C290.417 112.032 290.561 112.064 290.7 112.128C290.849 112.181 290.977 112.261 291.084 112.368C291.191 112.475 291.276 112.603 291.34 112.752C291.404 112.891 291.436 113.035 291.436 113.184ZM291.212 115.696V124H289.34V115.696H291.212ZM292.935 119.84C292.935 119.189 293.031 118.603 293.223 118.08C293.426 117.547 293.698 117.093 294.039 116.72C294.381 116.336 294.786 116.037 295.255 115.824C295.735 115.611 296.253 115.504 296.807 115.504C297.309 115.504 297.757 115.573 298.151 115.712C298.557 115.851 298.909 116.043 299.207 116.288C299.506 116.523 299.746 116.816 299.927 117.168C300.109 117.509 300.231 117.888 300.295 118.304H298.423C298.349 117.92 298.167 117.632 297.879 117.44C297.591 117.237 297.245 117.136 296.839 117.136C296.519 117.136 296.237 117.205 295.991 117.344C295.746 117.472 295.533 117.659 295.351 117.904C295.181 118.139 295.047 118.427 294.951 118.768C294.855 119.099 294.807 119.456 294.807 119.84C294.807 120.245 294.855 120.613 294.951 120.944C295.047 121.275 295.181 121.557 295.351 121.792C295.533 122.027 295.746 122.213 295.991 122.352C296.237 122.491 296.519 122.56 296.839 122.56C297.245 122.56 297.591 122.459 297.879 122.256C298.167 122.053 298.349 121.765 298.423 121.392H300.295C300.231 121.808 300.109 122.187 299.927 122.528C299.746 122.869 299.506 123.163 299.207 123.408C298.909 123.653 298.557 123.845 298.151 123.984C297.757 124.123 297.309 124.192 296.807 124.192C296.253 124.192 295.735 124.085 295.255 123.872C294.786 123.659 294.381 123.365 294.039 122.992C293.698 122.608 293.426 122.149 293.223 121.616C293.031 121.083 292.935 120.491 292.935 119.84ZM308.829 121.424C308.69 122.245 308.322 122.912 307.725 123.424C307.138 123.936 306.338 124.192 305.325 124.192C304.738 124.192 304.205 124.085 303.725 123.872C303.245 123.659 302.834 123.365 302.493 122.992C302.151 122.608 301.879 122.149 301.677 121.616C301.485 121.083 301.389 120.496 301.389 119.856C301.389 119.237 301.485 118.661 301.677 118.128C301.879 117.595 302.151 117.136 302.493 116.752C302.834 116.357 303.245 116.053 303.725 115.84C304.205 115.616 304.727 115.504 305.293 115.504C305.879 115.504 306.397 115.605 306.845 115.808C307.293 116 307.666 116.277 307.965 116.64C308.274 117.003 308.503 117.435 308.653 117.936C308.812 118.437 308.892 118.992 308.892 119.6V120.272H303.229C303.239 120.635 303.298 120.965 303.405 121.264C303.511 121.552 303.655 121.797 303.837 122C304.029 122.203 304.247 122.357 304.493 122.464C304.749 122.56 305.026 122.608 305.325 122.608C305.773 122.608 306.157 122.512 306.477 122.32C306.797 122.117 307.005 121.819 307.101 121.424H308.829ZM305.309 117.072C305.042 117.072 304.797 117.115 304.573 117.2C304.359 117.275 304.167 117.387 303.997 117.536C303.826 117.685 303.677 117.877 303.549 118.112C303.421 118.347 303.33 118.613 303.277 118.912H307.053C307.053 118.656 307.015 118.416 306.941 118.192C306.866 117.968 306.749 117.776 306.589 117.616C306.439 117.445 306.258 117.312 306.045 117.216C305.842 117.12 305.597 117.072 305.309 117.072Z" fill="#333333"/>
<path d="M406.973 115.664C406.973 115.195 406.813 114.811 406.493 114.512C406.183 114.203 405.757 114.048 405.213 114.048C404.637 114.048 404.194 114.229 403.885 114.592C403.586 114.944 403.415 115.397 403.373 115.952H401.373C401.426 115.419 401.559 114.933 401.773 114.496C401.986 114.048 402.258 113.664 402.589 113.344C402.919 113.024 403.303 112.773 403.741 112.592C404.189 112.411 404.679 112.32 405.213 112.32C405.789 112.32 406.301 112.4 406.749 112.56C407.207 112.709 407.591 112.928 407.901 113.216C408.221 113.504 408.461 113.856 408.621 114.272C408.781 114.677 408.861 115.136 408.861 115.648C408.861 116 408.797 116.341 408.669 116.672C408.541 116.992 408.365 117.312 408.141 117.632C407.927 117.941 407.677 118.256 407.389 118.576C407.111 118.885 406.823 119.211 406.525 119.552L404.045 122.304H409.053V124H401.389V122.72L404.797 118.944C405.095 118.624 405.373 118.32 405.629 118.032C405.895 117.733 406.125 117.456 406.317 117.2C406.519 116.933 406.679 116.677 406.797 116.432C406.914 116.176 406.973 115.92 406.973 115.664ZM414.665 124.192C414.025 124.192 413.439 124.048 412.905 123.76C412.372 123.472 411.908 123.061 411.513 122.528C411.129 121.995 410.831 121.365 410.617 120.64C410.415 119.915 410.313 119.12 410.313 118.256C410.313 117.392 410.415 116.597 410.617 115.872C410.831 115.136 411.129 114.507 411.513 113.984C411.908 113.451 412.372 113.04 412.905 112.752C413.439 112.464 414.025 112.32 414.665 112.32C415.305 112.32 415.892 112.464 416.425 112.752C416.959 113.04 417.417 113.451 417.801 113.984C418.196 114.507 418.495 115.136 418.697 115.872C418.9 116.597 419.001 117.392 419.001 118.256C419.001 119.12 418.9 119.915 418.697 120.64C418.495 121.365 418.196 121.995 417.801 122.528C417.417 123.061 416.959 123.472 416.425 123.76C415.892 124.048 415.305 124.192 414.665 124.192ZM414.665 114.08C414.249 114.08 413.887 114.187 413.577 114.4C413.268 114.603 413.012 114.891 412.809 115.264C412.607 115.627 412.457 116.064 412.361 116.576C412.265 117.077 412.217 117.637 412.217 118.256C412.217 118.864 412.265 119.424 412.361 119.936C412.457 120.448 412.607 120.891 412.809 121.264C413.012 121.627 413.268 121.915 413.577 122.128C413.887 122.331 414.249 122.432 414.665 122.432C415.081 122.432 415.439 122.331 415.737 122.128C416.047 121.915 416.297 121.627 416.489 121.264C416.692 120.891 416.841 120.448 416.937 119.936C417.044 119.424 417.097 118.864 417.097 118.256C417.097 117.637 417.044 117.077 416.937 116.576C416.841 116.064 416.692 115.627 416.489 115.264C416.297 114.891 416.047 114.603 415.737 114.4C415.439 114.187 415.081 114.08 414.665 114.08ZM419.748 122.832C419.748 122.661 419.78 122.496 419.844 122.336C419.908 122.176 419.999 122.037 420.116 121.92C420.234 121.792 420.372 121.701 420.532 121.648C420.692 121.584 420.858 121.552 421.028 121.552C421.199 121.552 421.364 121.584 421.524 121.648C421.684 121.701 421.823 121.792 421.94 121.92C422.058 122.037 422.148 122.176 422.212 122.336C422.276 122.496 422.308 122.661 422.308 122.832C422.308 123.013 422.276 123.184 422.212 123.344C422.148 123.504 422.058 123.643 421.94 123.76C421.823 123.877 421.684 123.968 421.524 124.032C421.364 124.096 421.199 124.128 421.028 124.128C420.858 124.128 420.692 124.096 420.532 124.032C420.372 123.968 420.234 123.877 420.116 123.76C419.999 123.643 419.908 123.504 419.844 123.344C419.78 123.184 419.748 123.013 419.748 122.832ZM427.263 118.08C426.847 118.08 426.479 118.171 426.159 118.352C425.849 118.523 425.593 118.731 425.391 118.976H423.919V112.512H430.399V114.224H425.503V117.024C425.684 116.885 425.945 116.752 426.287 116.624C426.639 116.485 427.033 116.416 427.471 116.416C428.004 116.416 428.495 116.512 428.943 116.704C429.401 116.885 429.785 117.152 430.095 117.504C430.415 117.845 430.66 118.256 430.831 118.736C431.012 119.205 431.103 119.723 431.103 120.288C431.103 120.864 431.007 121.392 430.815 121.872C430.633 122.341 430.372 122.747 430.031 123.088C429.7 123.429 429.3 123.701 428.831 123.904C428.372 124.096 427.865 124.192 427.311 124.192C426.735 124.192 426.207 124.107 425.727 123.936C425.257 123.765 424.852 123.52 424.511 123.2C424.169 122.88 423.892 122.496 423.679 122.048C423.465 121.6 423.332 121.104 423.279 120.56H425.167C425.241 121.147 425.455 121.616 425.807 121.968C426.159 122.32 426.66 122.496 427.311 122.496C427.609 122.496 427.881 122.448 428.127 122.352C428.383 122.245 428.591 122.091 428.751 121.888C428.921 121.685 429.055 121.451 429.151 121.184C429.247 120.917 429.295 120.619 429.295 120.288C429.295 119.968 429.247 119.675 429.151 119.408C429.055 119.141 428.916 118.907 428.735 118.704C428.564 118.501 428.356 118.347 428.111 118.24C427.865 118.133 427.583 118.08 427.263 118.08ZM437.197 114.928C437.197 115.269 437.133 115.6 437.005 115.92C436.877 116.24 436.69 116.517 436.445 116.752C436.2 116.987 435.917 117.173 435.597 117.312C435.277 117.44 434.946 117.504 434.605 117.504C434.253 117.504 433.917 117.44 433.597 117.312C433.277 117.173 433 116.987 432.765 116.752C432.53 116.517 432.344 116.24 432.205 115.92C432.077 115.6 432.013 115.269 432.013 114.928C432.013 114.576 432.077 114.24 432.205 113.92C432.344 113.6 432.53 113.317 432.765 113.072C433 112.827 433.277 112.64 433.597 112.512C433.917 112.384 434.253 112.32 434.605 112.32C434.946 112.32 435.277 112.384 435.597 112.512C435.917 112.64 436.2 112.827 436.445 113.072C436.69 113.317 436.877 113.6 437.005 113.92C437.133 114.24 437.197 114.576 437.197 114.928ZM433.453 124L440.365 112.512H441.837L434.941 124H433.453ZM433.421 114.928C433.421 115.088 433.453 115.243 433.517 115.392C433.581 115.531 433.661 115.653 433.757 115.76C433.864 115.867 433.986 115.952 434.125 116.016C434.274 116.069 434.434 116.096 434.605 116.096C434.765 116.096 434.914 116.069 435.053 116.016C435.202 115.952 435.33 115.867 435.437 115.76C435.554 115.653 435.64 115.531 435.693 115.392C435.757 115.243 435.789 115.088 435.789 114.928C435.789 114.757 435.757 114.603 435.693 114.464C435.64 114.315 435.554 114.187 435.437 114.08C435.33 113.963 435.202 113.877 435.053 113.824C434.914 113.76 434.765 113.728 434.605 113.728C434.434 113.728 434.274 113.76 434.125 113.824C433.986 113.877 433.864 113.963 433.757 114.08C433.661 114.187 433.581 114.315 433.517 114.464C433.453 114.603 433.421 114.757 433.421 114.928ZM443.277 121.584C443.277 121.936 443.213 122.272 443.085 122.592C442.957 122.912 442.77 123.195 442.525 123.44C442.29 123.675 442.013 123.861 441.693 124C441.384 124.128 441.053 124.192 440.701 124.192C440.349 124.192 440.013 124.128 439.693 124C439.384 123.861 439.106 123.675 438.861 123.44C438.616 123.195 438.424 122.912 438.285 122.592C438.157 122.272 438.093 121.936 438.093 121.584C438.093 121.232 438.157 120.901 438.285 120.592C438.424 120.272 438.616 119.995 438.861 119.76C439.106 119.515 439.384 119.328 439.693 119.2C440.013 119.072 440.349 119.008 440.701 119.008C441.053 119.008 441.384 119.072 441.693 119.2C442.013 119.328 442.29 119.515 442.525 119.76C442.77 119.995 442.957 120.272 443.085 120.592C443.213 120.901 443.277 121.232 443.277 121.584ZM441.885 121.584C441.885 121.424 441.853 121.275 441.789 121.136C441.725 120.987 441.64 120.859 441.533 120.752C441.426 120.645 441.298 120.56 441.149 120.496C441.01 120.432 440.861 120.4 440.701 120.4C440.541 120.4 440.386 120.432 440.237 120.496C440.098 120.56 439.97 120.645 439.853 120.752C439.746 120.859 439.661 120.987 439.597 121.136C439.533 121.275 439.501 121.424 439.501 121.584C439.501 121.744 439.533 121.899 439.597 122.048C439.661 122.187 439.746 122.315 439.853 122.432C439.97 122.539 440.098 122.624 440.237 122.688C440.386 122.752 440.541 122.784 440.701 122.784C440.861 122.784 441.01 122.752 441.149 122.688C441.298 122.624 441.426 122.539 441.533 122.432C441.64 122.315 441.725 122.187 441.789 122.048C441.853 121.899 441.885 121.744 441.885 121.584Z" fill="#333333"/>
<rect x="225" y="151" width="240" height="45" fill="#F5F5F5"/>
<path d="M249 173C249 170.791 250.791 169 253 169C255.209 169 257 170.791 257 173C257 175.209 255.209 177 253 177C250.791 177 249 175.209 249 173Z" fill="#0E6DEA"/>
<path d="M274.008 167.512H275.944V179H274.008V173.96H268.216V179H266.28V167.512H268.216V172.248H274.008V167.512ZM285.699 174.84C285.699 175.469 285.603 176.051 285.411 176.584C285.229 177.117 284.957 177.581 284.595 177.976C284.243 178.36 283.821 178.659 283.331 178.872C282.851 179.085 282.323 179.192 281.747 179.192C281.171 179.192 280.637 179.085 280.147 178.872C279.667 178.659 279.245 178.36 278.883 177.976C278.531 177.581 278.259 177.117 278.067 176.584C277.885 176.051 277.795 175.469 277.795 174.84C277.795 174.221 277.885 173.645 278.067 173.112C278.259 172.568 278.531 172.104 278.883 171.72C279.245 171.336 279.667 171.037 280.147 170.824C280.637 170.611 281.171 170.504 281.747 170.504C282.323 170.504 282.851 170.611 283.331 170.824C283.821 171.037 284.243 171.336 284.595 171.72C284.957 172.104 285.229 172.568 285.411 173.112C285.603 173.645 285.699 174.221 285.699 174.84ZM283.827 174.84C283.827 174.445 283.784 174.083 283.699 173.752C283.613 173.421 283.48 173.133 283.299 172.888C283.117 172.643 282.893 172.451 282.627 172.312C282.371 172.173 282.077 172.104 281.747 172.104C281.427 172.104 281.133 172.173 280.867 172.312C280.611 172.451 280.392 172.643 280.211 172.888C280.029 173.133 279.891 173.421 279.795 173.752C279.709 174.083 279.667 174.445 279.667 174.84C279.667 175.245 279.709 175.613 279.795 175.944C279.891 176.275 280.029 176.563 280.211 176.808C280.392 177.043 280.611 177.229 280.867 177.368C281.133 177.507 281.427 177.576 281.747 177.576C282.077 177.576 282.371 177.507 282.627 177.368C282.893 177.229 283.117 177.043 283.299 176.808C283.48 176.563 283.613 176.275 283.699 175.944C283.784 175.613 283.827 175.245 283.827 174.84ZM287.865 172.248H286.569V170.696H287.865V168.456H289.737V170.696H291.609V172.248H289.737V176.552C289.737 176.883 289.823 177.128 289.993 177.288C290.175 177.448 290.42 177.528 290.729 177.528C290.921 177.528 291.113 177.496 291.305 177.432C291.497 177.368 291.663 177.288 291.801 177.192V178.888C291.641 178.984 291.439 179.059 291.193 179.112C290.948 179.165 290.681 179.192 290.393 179.192C289.647 179.192 289.039 178.995 288.569 178.6C288.1 178.195 287.865 177.581 287.865 176.76V172.248ZM300.469 176.424C300.33 177.245 299.962 177.912 299.365 178.424C298.778 178.936 297.978 179.192 296.965 179.192C296.378 179.192 295.845 179.085 295.365 178.872C294.885 178.659 294.474 178.365 294.133 177.992C293.792 177.608 293.52 177.149 293.317 176.616C293.125 176.083 293.029 175.496 293.029 174.856C293.029 174.237 293.125 173.661 293.317 173.128C293.52 172.595 293.792 172.136 294.133 171.752C294.474 171.357 294.885 171.053 295.365 170.84C295.845 170.616 296.368 170.504 296.933 170.504C297.52 170.504 298.037 170.605 298.485 170.808C298.933 171 299.306 171.277 299.605 171.64C299.914 172.003 300.144 172.435 300.293 172.936C300.453 173.437 300.533 173.992 300.533 174.6V175.272H294.869C294.88 175.635 294.938 175.965 295.045 176.264C295.152 176.552 295.296 176.797 295.477 177C295.669 177.203 295.888 177.357 296.133 177.464C296.389 177.56 296.666 177.608 296.965 177.608C297.413 177.608 297.797 177.512 298.117 177.32C298.437 177.117 298.645 176.819 298.741 176.424H300.469ZM296.949 172.072C296.682 172.072 296.437 172.115 296.213 172.2C296 172.275 295.808 172.387 295.637 172.536C295.466 172.685 295.317 172.877 295.189 173.112C295.061 173.347 294.97 173.613 294.917 173.912H298.693C298.693 173.656 298.656 173.416 298.581 173.192C298.506 172.968 298.389 172.776 298.229 172.616C298.08 172.445 297.898 172.312 297.685 172.216C297.482 172.12 297.237 172.072 296.949 172.072ZM304.149 166.84V179H302.277V166.84H304.149Z" fill="#333333"/>
<path d="M405.897 167.512V179H404.009V169.848L401.305 171.208V169.24L404.761 167.512H405.897ZM412.165 179.192C411.525 179.192 410.939 179.048 410.405 178.76C409.872 178.472 409.408 178.061 409.013 177.528C408.629 176.995 408.331 176.365 408.117 175.64C407.915 174.915 407.813 174.12 407.813 173.256C407.813 172.392 407.915 171.597 408.117 170.872C408.331 170.136 408.629 169.507 409.013 168.984C409.408 168.451 409.872 168.04 410.405 167.752C410.939 167.464 411.525 167.32 412.165 167.32C412.805 167.32 413.392 167.464 413.925 167.752C414.459 168.04 414.917 168.451 415.301 168.984C415.696 169.507 415.995 170.136 416.197 170.872C416.4 171.597 416.501 172.392 416.501 173.256C416.501 174.12 416.4 174.915 416.197 175.64C415.995 176.365 415.696 176.995 415.301 177.528C414.917 178.061 414.459 178.472 413.925 178.76C413.392 179.048 412.805 179.192 412.165 179.192ZM412.165 169.08C411.749 169.08 411.387 169.187 411.077 169.4C410.768 169.603 410.512 169.891 410.309 170.264C410.107 170.627 409.957 171.064 409.861 171.576C409.765 172.077 409.717 172.637 409.717 173.256C409.717 173.864 409.765 174.424 409.861 174.936C409.957 175.448 410.107 175.891 410.309 176.264C410.512 176.627 410.768 176.915 411.077 177.128C411.387 177.331 411.749 177.432 412.165 177.432C412.581 177.432 412.939 177.331 413.237 177.128C413.547 176.915 413.797 176.627 413.989 176.264C414.192 175.891 414.341 175.448 414.437 174.936C414.544 174.424 414.597 173.864 414.597 173.256C414.597 172.637 414.544 172.077 414.437 171.576C414.341 171.064 414.192 170.627 413.989 170.264C413.797 169.891 413.547 169.603 413.237 169.4C412.939 169.187 412.581 169.08 412.165 169.08ZM417.248 177.832C417.248 177.661 417.28 177.496 417.344 177.336C417.408 177.176 417.499 177.037 417.616 176.92C417.734 176.792 417.872 176.701 418.032 176.648C418.192 176.584 418.358 176.552 418.528 176.552C418.699 176.552 418.864 176.584 419.024 176.648C419.184 176.701 419.323 176.792 419.44 176.92C419.558 177.037 419.648 177.176 419.712 177.336C419.776 177.496 419.808 177.661 419.808 177.832C419.808 178.013 419.776 178.184 419.712 178.344C419.648 178.504 419.558 178.643 419.44 178.76C419.323 178.877 419.184 178.968 419.024 179.032C418.864 179.096 418.699 179.128 418.528 179.128C418.358 179.128 418.192 179.096 418.032 179.032C417.872 178.968 417.734 178.877 417.616 178.76C417.499 178.643 417.408 178.504 417.344 178.344C417.28 178.184 417.248 178.013 417.248 177.832ZM424.763 173.08C424.347 173.08 423.979 173.171 423.659 173.352C423.349 173.523 423.093 173.731 422.891 173.976H421.419V167.512H427.899V169.224H423.003V172.024C423.184 171.885 423.445 171.752 423.787 171.624C424.139 171.485 424.533 171.416 424.971 171.416C425.504 171.416 425.995 171.512 426.443 171.704C426.901 171.885 427.285 172.152 427.595 172.504C427.915 172.845 428.16 173.256 428.331 173.736C428.512 174.205 428.603 174.723 428.603 175.288C428.603 175.864 428.507 176.392 428.315 176.872C428.133 177.341 427.872 177.747 427.531 178.088C427.2 178.429 426.8 178.701 426.331 178.904C425.872 179.096 425.365 179.192 424.811 179.192C424.235 179.192 423.707 179.107 423.227 178.936C422.757 178.765 422.352 178.52 422.011 178.2C421.669 177.88 421.392 177.496 421.179 177.048C420.965 176.6 420.832 176.104 420.779 175.56H422.667C422.741 176.147 422.955 176.616 423.307 176.968C423.659 177.32 424.16 177.496 424.811 177.496C425.109 177.496 425.381 177.448 425.627 177.352C425.883 177.245 426.091 177.091 426.251 176.888C426.421 176.685 426.555 176.451 426.651 176.184C426.747 175.917 426.795 175.619 426.795 175.288C426.795 174.968 426.747 174.675 426.651 174.408C426.555 174.141 426.416 173.907 426.235 173.704C426.064 173.501 425.856 173.347 425.611 173.24C425.365 173.133 425.083 173.08 424.763 173.08ZM434.697 169.928C434.697 170.269 434.633 170.6 434.505 170.92C434.377 171.24 434.19 171.517 433.945 171.752C433.7 171.987 433.417 172.173 433.097 172.312C432.777 172.44 432.446 172.504 432.105 172.504C431.753 172.504 431.417 172.44 431.097 172.312C430.777 172.173 430.5 171.987 430.265 171.752C430.03 171.517 429.844 171.24 429.705 170.92C429.577 170.6 429.513 170.269 429.513 169.928C429.513 169.576 429.577 169.24 429.705 168.92C429.844 168.6 430.03 168.317 430.265 168.072C430.5 167.827 430.777 167.64 431.097 167.512C431.417 167.384 431.753 167.32 432.105 167.32C432.446 167.32 432.777 167.384 433.097 167.512C433.417 167.64 433.7 167.827 433.945 168.072C434.19 168.317 434.377 168.6 434.505 168.92C434.633 169.24 434.697 169.576 434.697 169.928ZM430.953 179L437.865 167.512H439.337L432.441 179H430.953ZM430.921 169.928C430.921 170.088 430.953 170.243 431.017 170.392C431.081 170.531 431.161 170.653 431.257 170.76C431.364 170.867 431.486 170.952 431.625 171.016C431.774 171.069 431.934 171.096 432.105 171.096C432.265 171.096 432.414 171.069 432.553 171.016C432.702 170.952 432.83 170.867 432.937 170.76C433.054 170.653 433.14 170.531 433.193 170.392C433.257 170.243 433.289 170.088 433.289 169.928C433.289 169.757 433.257 169.603 433.193 169.464C433.14 169.315 433.054 169.187 432.937 169.08C432.83 168.963 432.702 168.877 432.553 168.824C432.414 168.76 432.265 168.728 432.105 168.728C431.934 168.728 431.774 168.76 431.625 168.824C431.486 168.877 431.364 168.963 431.257 169.08C431.161 169.187 431.081 169.315 431.017 169.464C430.953 169.603 430.921 169.757 430.921 169.928ZM440.777 176.584C440.777 176.936 440.713 177.272 440.585 177.592C440.457 177.912 440.27 178.195 440.025 178.44C439.79 178.675 439.513 178.861 439.193 179C438.884 179.128 438.553 179.192 438.201 179.192C437.849 179.192 437.513 179.128 437.193 179C436.884 178.861 436.606 178.675 436.361 178.44C436.116 178.195 435.924 177.912 435.785 177.592C435.657 177.272 435.593 176.936 435.593 176.584C435.593 176.232 435.657 175.901 435.785 175.592C435.924 175.272 436.116 174.995 436.361 174.76C436.606 174.515 436.884 174.328 437.193 174.2C437.513 174.072 437.849 174.008 438.201 174.008C438.553 174.008 438.884 174.072 439.193 174.2C439.513 174.328 439.79 174.515 440.025 174.76C440.27 174.995 440.457 175.272 440.585 175.592C440.713 175.901 440.777 176.232 440.777 176.584ZM439.385 176.584C439.385 176.424 439.353 176.275 439.289 176.136C439.225 175.987 439.14 175.859 439.033 175.752C438.926 175.645 438.798 175.56 438.649 175.496C438.51 175.432 438.361 175.4 438.201 175.4C438.041 175.4 437.886 175.432 437.737 175.496C437.598 175.56 437.47 175.645 437.353 175.752C437.246 175.859 437.161 175.987 437.097 176.136C437.033 176.275 437.001 176.424 437.001 176.584C437.001 176.744 437.033 176.899 437.097 177.048C437.161 177.187 437.246 177.315 437.353 177.432C437.47 177.539 437.598 177.624 437.737 177.688C437.886 177.752 438.041 177.784 438.201 177.784C438.361 177.784 438.51 177.752 438.649 177.688C438.798 177.624 438.926 177.539 439.033 177.432C439.14 177.315 439.225 177.187 439.289 177.048C439.353 176.899 439.385 176.744 439.385 176.584Z" fill="#333333"/>
<rect x="226" y="41" width="240" height="45" fill="#F5F5F5"/>
<path d="M250 63C250 60.7909 251.791 59 254 59C256.209 59 258 60.7909 258 63C258 65.2091 256.209 67 254 67C251.791 67 250 65.2091 250 63Z" fill="#FC8C07"/>
<path d="M272.288 69L269.12 61V69H267.28V57.512H269.504L273.008 66.344L276.464 57.512H278.64V69H276.768V61L273.68 69H272.288ZM287.97 60.696V69H286.098V68.216C285.992 68.3547 285.858 68.4827 285.698 68.6C285.538 68.7173 285.362 68.8187 285.17 68.904C284.978 68.9893 284.77 69.0587 284.546 69.112C284.333 69.1653 284.109 69.192 283.874 69.192C283.416 69.192 283 69.1173 282.626 68.968C282.264 68.8187 281.954 68.6107 281.698 68.344C281.453 68.0667 281.266 67.7413 281.138 67.368C281.021 66.984 280.962 66.5627 280.962 66.104V60.696H282.834V65.784C282.834 66.04 282.861 66.2747 282.914 66.488C282.978 66.6907 283.074 66.8667 283.202 67.016C283.341 67.1653 283.506 67.2827 283.698 67.368C283.89 67.4427 284.12 67.48 284.386 67.48C284.578 67.48 284.765 67.4533 284.946 67.4C285.138 67.336 285.309 67.2453 285.458 67.128C285.618 67.0107 285.752 66.872 285.858 66.712C285.976 66.5413 286.056 66.3547 286.098 66.152V60.696H287.97ZM292.181 56.84V69H290.309V56.84H292.181ZM294.912 62.248H293.616V60.696H294.912V58.456H296.784V60.696H298.656V62.248H296.784V66.552C296.784 66.8827 296.869 67.128 297.04 67.288C297.221 67.448 297.467 67.528 297.776 67.528C297.968 67.528 298.16 67.496 298.352 67.432C298.544 67.368 298.709 67.288 298.848 67.192V68.888C298.688 68.984 298.485 69.0587 298.24 69.112C297.995 69.1653 297.728 69.192 297.44 69.192C296.693 69.192 296.085 68.9947 295.616 68.6C295.147 68.1947 294.912 67.5813 294.912 66.76V62.248ZM302.858 58.184C302.858 58.3333 302.826 58.4827 302.762 58.632C302.698 58.7707 302.612 58.8933 302.506 59C302.399 59.1067 302.271 59.1867 302.122 59.24C301.983 59.2933 301.839 59.32 301.69 59.32C301.54 59.32 301.391 59.2933 301.242 59.24C301.103 59.1867 300.98 59.1067 300.874 59C300.767 58.8933 300.682 58.7707 300.618 58.632C300.554 58.4827 300.522 58.3333 300.522 58.184C300.522 58.0347 300.554 57.8907 300.618 57.752C300.682 57.6027 300.767 57.4747 300.874 57.368C300.98 57.2613 301.103 57.1813 301.242 57.128C301.391 57.064 301.54 57.032 301.69 57.032C301.839 57.032 301.983 57.064 302.122 57.128C302.271 57.1813 302.399 57.2613 302.506 57.368C302.612 57.4747 302.698 57.6027 302.762 57.752C302.826 57.8907 302.858 58.0347 302.858 58.184ZM302.634 60.696V69H300.762V60.696H302.634ZM309.525 56.872V58.52C309.461 58.4667 309.387 58.424 309.301 58.392C309.227 58.36 309.152 58.3387 309.077 58.328C309.003 58.3067 308.923 58.2907 308.837 58.28C308.763 58.2587 308.688 58.248 308.613 58.248C308.421 58.248 308.251 58.28 308.101 58.344C307.952 58.3973 307.824 58.4773 307.717 58.584C307.611 58.6907 307.531 58.824 307.477 58.984C307.424 59.144 307.397 59.3253 307.397 59.528V60.696H309.205V62.248H307.397V69H305.557V62.248H304.117V60.696H305.557V59.4C305.557 58.9627 305.627 58.5733 305.765 58.232C305.904 57.88 306.096 57.5867 306.341 57.352C306.587 57.1173 306.875 56.9413 307.205 56.824C307.547 56.7067 307.909 56.648 308.293 56.648C308.432 56.648 308.555 56.6533 308.661 56.664C308.779 56.664 308.885 56.6747 308.981 56.696C309.088 56.7067 309.184 56.728 309.269 56.76C309.355 56.792 309.44 56.8293 309.525 56.872ZM315.23 69V68.536C315.091 68.6747 314.83 68.8133 314.446 68.952C314.062 69.08 313.635 69.144 313.166 69.144C312.739 69.144 312.334 69.0853 311.95 68.968C311.576 68.84 311.246 68.664 310.958 68.44C310.68 68.2053 310.462 67.9173 310.302 67.576C310.142 67.2347 310.062 66.856 310.062 66.44C310.062 66.0453 310.142 65.6827 310.302 65.352C310.462 65.0213 310.686 64.7387 310.974 64.504C311.272 64.2693 311.619 64.088 312.014 63.96C312.408 63.8213 312.835 63.752 313.294 63.752C313.667 63.752 314.035 63.8053 314.398 63.912C314.771 64.0187 315.048 64.136 315.23 64.264V63.592C315.23 63.1653 315.096 62.808 314.83 62.52C314.563 62.232 314.163 62.088 313.63 62.088C313.256 62.088 312.952 62.168 312.718 62.328C312.483 62.488 312.312 62.7067 312.206 62.984H310.414C310.478 62.6427 310.6 62.3173 310.782 62.008C310.974 61.6987 311.214 61.432 311.502 61.208C311.79 60.984 312.115 60.8133 312.478 60.696C312.851 60.568 313.246 60.504 313.661 60.504C314.728 60.504 315.55 60.776 316.126 61.32C316.712 61.864 317.006 62.6107 317.006 63.56V69H315.23ZM315.23 66.104C315.176 65.976 315.091 65.8587 314.974 65.752C314.867 65.6453 314.734 65.5547 314.574 65.48C314.424 65.4053 314.259 65.352 314.078 65.32C313.896 65.2773 313.71 65.256 313.518 65.256C313.304 65.256 313.096 65.2773 312.894 65.32C312.691 65.3627 312.504 65.4373 312.334 65.544C312.174 65.64 312.04 65.7627 311.934 65.912C311.838 66.0613 311.789 66.2373 311.789 66.44C311.789 66.6533 311.838 66.8347 311.934 66.984C312.04 67.1333 312.174 67.256 312.334 67.352C312.504 67.448 312.691 67.5227 312.894 67.576C313.096 67.6187 313.304 67.64 313.518 67.64C313.71 67.64 313.896 67.624 314.078 67.592C314.259 67.5493 314.424 67.4907 314.574 67.416C314.734 67.3413 314.867 67.256 314.974 67.16C315.091 67.0533 315.176 66.9307 315.23 66.792V66.104ZM325.343 61.608C325.492 61.4267 325.652 61.272 325.823 61.144C325.994 61.0053 326.18 60.888 326.383 60.792C326.596 60.696 326.82 60.6267 327.055 60.584C327.29 60.5307 327.546 60.504 327.823 60.504C328.25 60.504 328.628 60.5787 328.959 60.728C329.29 60.8667 329.572 61.0693 329.807 61.336C330.042 61.6027 330.218 61.928 330.335 62.312C330.452 62.6853 330.511 63.112 330.511 63.592V69H328.639V63.896C328.639 63.6293 328.612 63.3947 328.559 63.192C328.506 62.9787 328.42 62.7973 328.303 62.648C328.196 62.4987 328.052 62.3867 327.871 62.312C327.7 62.2267 327.503 62.184 327.279 62.184C327.098 62.184 326.927 62.2107 326.767 62.264C326.618 62.3067 326.474 62.3813 326.335 62.488C326.196 62.5947 326.079 62.728 325.983 62.888C325.898 63.048 325.834 63.224 325.791 63.416V69H323.919V63.896C323.919 63.6293 323.892 63.3947 323.839 63.192C323.786 62.9787 323.7 62.7973 323.583 62.648C323.476 62.4987 323.332 62.3867 323.151 62.312C322.98 62.2267 322.783 62.184 322.559 62.184C322.388 62.184 322.223 62.2107 322.063 62.264C321.903 62.3067 321.754 62.3813 321.615 62.488C321.487 62.5947 321.375 62.728 321.279 62.888C321.183 63.048 321.119 63.224 321.087 63.416V69H319.215V60.696H321.087V61.384C321.183 61.2453 321.3 61.1227 321.439 61.016C321.588 60.9093 321.748 60.8187 321.919 60.744C322.1 60.6693 322.292 60.6107 322.495 60.568C322.708 60.5253 322.927 60.504 323.151 60.504C323.375 60.504 323.594 60.5307 323.807 60.584C324.031 60.6373 324.239 60.7173 324.431 60.824C324.634 60.92 324.81 61.0373 324.959 61.176C325.108 61.304 325.236 61.448 325.343 61.608ZM334.827 58.184C334.827 58.3333 334.795 58.4827 334.731 58.632C334.667 58.7707 334.581 58.8933 334.475 59C334.368 59.1067 334.24 59.1867 334.091 59.24C333.952 59.2933 333.808 59.32 333.659 59.32C333.509 59.32 333.36 59.2933 333.211 59.24C333.072 59.1867 332.949 59.1067 332.843 59C332.736 58.8933 332.651 58.7707 332.587 58.632C332.523 58.4827 332.491 58.3333 332.491 58.184C332.491 58.0347 332.523 57.8907 332.587 57.752C332.651 57.6027 332.736 57.4747 332.843 57.368C332.949 57.2613 333.072 57.1813 333.211 57.128C333.36 57.064 333.509 57.032 333.659 57.032C333.808 57.032 333.952 57.064 334.091 57.128C334.24 57.1813 334.368 57.2613 334.475 57.368C334.581 57.4747 334.667 57.6027 334.731 57.752C334.795 57.8907 334.827 58.0347 334.827 58.184ZM334.603 60.696V69H332.731V60.696H334.603ZM338.79 56.84V69H336.918V56.84H338.79ZM344.13 72.184H342.322L343.49 69.224L340.274 60.696H342.274L344.45 66.808L346.578 60.696H348.514L344.13 72.184Z" fill="#333333"/>
<path d="M407.091 63.08C406.675 63.08 406.307 63.1707 405.987 63.352C405.678 63.5227 405.422 63.7307 405.219 63.976H403.747V57.512H410.227V59.224H405.331V62.024C405.512 61.8853 405.774 61.752 406.115 61.624C406.467 61.4853 406.862 61.416 407.299 61.416C407.832 61.416 408.323 61.512 408.771 61.704C409.23 61.8853 409.614 62.152 409.923 62.504C410.243 62.8453 410.488 63.256 410.659 63.736C410.84 64.2053 410.931 64.7227 410.931 65.288C410.931 65.864 410.835 66.392 410.643 66.872C410.462 67.3413 410.2 67.7467 409.859 68.088C409.528 68.4293 409.128 68.7013 408.659 68.904C408.2 69.096 407.694 69.192 407.139 69.192C406.563 69.192 406.035 69.1067 405.555 68.936C405.086 68.7653 404.68 68.52 404.339 68.2C403.998 67.88 403.72 67.496 403.507 67.048C403.294 66.6 403.16 66.104 403.107 65.56H404.995C405.07 66.1467 405.283 66.616 405.635 66.968C405.987 67.32 406.488 67.496 407.139 67.496C407.438 67.496 407.71 67.448 407.955 67.352C408.211 67.2453 408.419 67.0907 408.579 66.888C408.75 66.6853 408.883 66.4507 408.979 66.184C409.075 65.9173 409.123 65.6187 409.123 65.288C409.123 64.968 409.075 64.6747 408.979 64.408C408.883 64.1413 408.744 63.9067 408.563 63.704C408.392 63.5013 408.184 63.3467 407.939 63.24C407.694 63.1333 407.411 63.08 407.091 63.08ZM414.013 65H417.085V62.296H418.877V65H420.765V66.6H418.877V69H417.085V66.6H411.901V65.256L416.221 57.512H418.189L414.013 65ZM421.748 67.832C421.748 67.6613 421.78 67.496 421.844 67.336C421.908 67.176 421.999 67.0373 422.116 66.92C422.234 66.792 422.372 66.7013 422.532 66.648C422.692 66.584 422.858 66.552 423.028 66.552C423.199 66.552 423.364 66.584 423.524 66.648C423.684 66.7013 423.823 66.792 423.94 66.92C424.058 67.0373 424.148 67.176 424.212 67.336C424.276 67.496 424.308 67.6613 424.308 67.832C424.308 68.0133 424.276 68.184 424.212 68.344C424.148 68.504 424.058 68.6427 423.94 68.76C423.823 68.8773 423.684 68.968 423.524 69.032C423.364 69.096 423.199 69.128 423.028 69.128C422.858 69.128 422.692 69.096 422.532 69.032C422.372 68.968 422.234 68.8773 422.116 68.76C421.999 68.6427 421.908 68.504 421.844 68.344C421.78 68.184 421.748 68.0133 421.748 67.832ZM429.263 63.08C428.847 63.08 428.479 63.1707 428.159 63.352C427.849 63.5227 427.593 63.7307 427.391 63.976H425.919V57.512H432.399V59.224H427.503V62.024C427.684 61.8853 427.945 61.752 428.287 61.624C428.639 61.4853 429.033 61.416 429.471 61.416C430.004 61.416 430.495 61.512 430.943 61.704C431.401 61.8853 431.785 62.152 432.095 62.504C432.415 62.8453 432.66 63.256 432.831 63.736C433.012 64.2053 433.103 64.7227 433.103 65.288C433.103 65.864 433.007 66.392 432.815 66.872C432.633 67.3413 432.372 67.7467 432.031 68.088C431.7 68.4293 431.3 68.7013 430.831 68.904C430.372 69.096 429.865 69.192 429.311 69.192C428.735 69.192 428.207 69.1067 427.727 68.936C427.257 68.7653 426.852 68.52 426.511 68.2C426.169 67.88 425.892 67.496 425.679 67.048C425.465 66.6 425.332 66.104 425.279 65.56H427.167C427.241 66.1467 427.455 66.616 427.807 66.968C428.159 67.32 428.66 67.496 429.311 67.496C429.609 67.496 429.881 67.448 430.127 67.352C430.383 67.2453 430.591 67.0907 430.751 66.888C430.921 66.6853 431.055 66.4507 431.151 66.184C431.247 65.9173 431.295 65.6187 431.295 65.288C431.295 64.968 431.247 64.6747 431.151 64.408C431.055 64.1413 430.916 63.9067 430.735 63.704C430.564 63.5013 430.356 63.3467 430.111 63.24C429.865 63.1333 429.583 63.08 429.263 63.08ZM439.197 59.928C439.197 60.2693 439.133 60.6 439.005 60.92C438.877 61.24 438.69 61.5173 438.445 61.752C438.2 61.9867 437.917 62.1733 437.597 62.312C437.277 62.44 436.946 62.504 436.605 62.504C436.253 62.504 435.917 62.44 435.597 62.312C435.277 62.1733 435 61.9867 434.765 61.752C434.53 61.5173 434.344 61.24 434.205 60.92C434.077 60.6 434.013 60.2693 434.013 59.928C434.013 59.576 434.077 59.24 434.205 58.92C434.344 58.6 434.53 58.3173 434.765 58.072C435 57.8267 435.277 57.64 435.597 57.512C435.917 57.384 436.253 57.32 436.605 57.32C436.946 57.32 437.277 57.384 437.597 57.512C437.917 57.64 438.2 57.8267 438.445 58.072C438.69 58.3173 438.877 58.6 439.005 58.92C439.133 59.24 439.197 59.576 439.197 59.928ZM435.453 69L442.365 57.512H443.837L436.941 69H435.453ZM435.421 59.928C435.421 60.088 435.453 60.2427 435.517 60.392C435.581 60.5307 435.661 60.6533 435.757 60.76C435.864 60.8667 435.986 60.952 436.125 61.016C436.274 61.0693 436.434 61.096 436.605 61.096C436.765 61.096 436.914 61.0693 437.053 61.016C437.202 60.952 437.33 60.8667 437.437 60.76C437.554 60.6533 437.64 60.5307 437.693 60.392C437.757 60.2427 437.789 60.088 437.789 59.928C437.789 59.7573 437.757 59.6027 437.693 59.464C437.64 59.3147 437.554 59.1867 437.437 59.08C437.33 58.9627 437.202 58.8773 437.053 58.824C436.914 58.76 436.765 58.728 436.605 58.728C436.434 58.728 436.274 58.76 436.125 58.824C435.986 58.8773 435.864 58.9627 435.757 59.08C435.661 59.1867 435.581 59.3147 435.517 59.464C435.453 59.6027 435.421 59.7573 435.421 59.928ZM445.277 66.584C445.277 66.936 445.213 67.272 445.085 67.592C444.957 67.912 444.77 68.1947 444.525 68.44C444.29 68.6747 444.013 68.8613 443.693 69C443.384 69.128 443.053 69.192 442.701 69.192C442.349 69.192 442.013 69.128 441.693 69C441.384 68.8613 441.106 68.6747 440.861 68.44C440.616 68.1947 440.424 67.912 440.285 67.592C440.157 67.272 440.093 66.936 440.093 66.584C440.093 66.232 440.157 65.9013 440.285 65.592C440.424 65.272 440.616 64.9947 440.861 64.76C441.106 64.5147 441.384 64.328 441.693 64.2C442.013 64.072 442.349 64.008 442.701 64.008C443.053 64.008 443.384 64.072 443.693 64.2C444.013 64.328 444.29 64.5147 444.525 64.76C444.77 64.9947 444.957 65.272 445.085 65.592C445.213 65.9013 445.277 66.232 445.277 66.584ZM443.885 66.584C443.885 66.424 443.853 66.2747 443.789 66.136C443.725 65.9867 443.64 65.8587 443.533 65.752C443.426 65.6453 443.298 65.56 443.149 65.496C443.01 65.432 442.861 65.4 442.701 65.4C442.541 65.4 442.386 65.432 442.237 65.496C442.098 65.56 441.97 65.6453 441.853 65.752C441.746 65.8587 441.661 65.9867 441.597 66.136C441.533 66.2747 441.501 66.424 441.501 66.584C441.501 66.744 441.533 66.8987 441.597 67.048C441.661 67.1867 441.746 67.3147 441.853 67.432C441.97 67.5387 442.098 67.624 442.237 67.688C442.386 67.752 442.541 67.784 442.701 67.784C442.861 67.784 443.01 67.752 443.149 67.688C443.298 67.624 443.426 67.5387 443.533 67.432C443.64 67.3147 443.725 67.1867 443.789 67.048C443.853 66.8987 443.885 66.744 443.885 66.584Z" fill="#333333"/>
<rect x="225" y="206" width="240" height="45" fill="#F5F5F5"/>
<path d="M249 228C249 225.791 250.791 224 253 224C255.209 224 257 225.791 257 228C257 230.209 255.209 232 253 232C250.791 232 249 230.209 249 228Z" fill="#542F8F"/>
<path d="M268.216 222.512V234H266.28V222.512H268.216ZM270.668 234V225.696H272.54V226.48C272.647 226.341 272.775 226.213 272.924 226.096C273.084 225.979 273.26 225.877 273.452 225.792C273.655 225.696 273.868 225.627 274.092 225.584C274.316 225.531 274.545 225.504 274.78 225.504C275.239 225.504 275.649 225.579 276.012 225.728C276.385 225.877 276.695 226.085 276.94 226.352C277.196 226.619 277.388 226.944 277.516 227.328C277.655 227.712 277.724 228.133 277.724 228.592V234H275.852V228.912C275.852 228.645 275.82 228.411 275.756 228.208C275.692 228.005 275.591 227.829 275.452 227.68C275.324 227.531 275.159 227.413 274.956 227.328C274.764 227.243 274.535 227.2 274.268 227.2C274.076 227.2 273.884 227.232 273.692 227.296C273.511 227.36 273.34 227.451 273.18 227.568C273.02 227.675 272.881 227.813 272.764 227.984C272.657 228.155 272.583 228.336 272.54 228.528V234H270.668ZM285.31 231.424V228.272C285.235 228.112 285.134 227.963 285.006 227.824C284.888 227.685 284.75 227.568 284.59 227.472C284.43 227.365 284.259 227.291 284.078 227.248C283.896 227.195 283.71 227.168 283.518 227.168C283.166 227.168 282.846 227.237 282.558 227.376C282.28 227.504 282.04 227.691 281.838 227.936C281.635 228.171 281.48 228.453 281.374 228.784C281.267 229.104 281.214 229.456 281.214 229.84C281.214 230.235 281.267 230.592 281.374 230.912C281.48 231.232 281.635 231.515 281.838 231.76C282.04 232.005 282.28 232.197 282.558 232.336C282.846 232.464 283.166 232.528 283.518 232.528C283.71 232.528 283.896 232.501 284.078 232.448C284.259 232.395 284.43 232.32 284.59 232.224C284.75 232.117 284.888 232 285.006 231.872C285.134 231.733 285.235 231.584 285.31 231.424ZM285.31 234V233.296C285.214 233.413 285.091 233.525 284.942 233.632C284.803 233.739 284.638 233.835 284.446 233.92C284.264 233.995 284.067 234.059 283.854 234.112C283.64 234.165 283.422 234.192 283.198 234.192C282.6 234.192 282.062 234.08 281.582 233.856C281.102 233.632 280.696 233.323 280.366 232.928C280.035 232.533 279.779 232.069 279.598 231.536C279.427 231.003 279.342 230.437 279.342 229.84C279.342 229.243 279.427 228.683 279.598 228.16C279.779 227.637 280.035 227.179 280.366 226.784C280.696 226.379 281.102 226.064 281.582 225.84C282.062 225.616 282.6 225.504 283.198 225.504C283.422 225.504 283.64 225.531 283.854 225.584C284.067 225.627 284.264 225.691 284.446 225.776C284.638 225.851 284.803 225.941 284.942 226.048C285.091 226.155 285.214 226.272 285.31 226.4V221.84H287.182V234H285.31ZM296.408 225.696V234H294.536V233.216C294.429 233.355 294.296 233.483 294.136 233.6C293.976 233.717 293.8 233.819 293.608 233.904C293.416 233.989 293.208 234.059 292.984 234.112C292.77 234.165 292.546 234.192 292.312 234.192C291.853 234.192 291.437 234.117 291.064 233.968C290.701 233.819 290.392 233.611 290.136 233.344C289.89 233.067 289.704 232.741 289.576 232.368C289.458 231.984 289.4 231.563 289.4 231.104V225.696H291.272V230.784C291.272 231.04 291.298 231.275 291.352 231.488C291.416 231.691 291.512 231.867 291.64 232.016C291.778 232.165 291.944 232.283 292.136 232.368C292.328 232.443 292.557 232.48 292.824 232.48C293.016 232.48 293.202 232.453 293.384 232.4C293.576 232.336 293.746 232.245 293.896 232.128C294.056 232.011 294.189 231.872 294.296 231.712C294.413 231.541 294.493 231.355 294.536 231.152V225.696H296.408ZM300.074 231.6C300.17 231.952 300.362 232.219 300.65 232.4C300.949 232.571 301.306 232.656 301.722 232.656C301.925 232.656 302.111 232.635 302.282 232.592C302.463 232.549 302.618 232.485 302.746 232.4C302.874 232.315 302.97 232.213 303.034 232.096C303.098 231.968 303.13 231.824 303.13 231.664C303.13 231.44 303.055 231.264 302.906 231.136C302.757 230.997 302.511 230.885 302.17 230.8L300.442 230.384C299.855 230.245 299.365 230.005 298.97 229.664C298.575 229.312 298.378 228.789 298.378 228.096C298.378 227.723 298.458 227.381 298.618 227.072C298.778 226.752 298.997 226.475 299.274 226.24C299.551 226.005 299.882 225.824 300.266 225.696C300.661 225.568 301.082 225.504 301.53 225.504C302.501 225.504 303.263 225.723 303.818 226.16C304.373 226.597 304.719 227.195 304.858 227.952H303.018C302.933 227.675 302.767 227.456 302.522 227.296C302.287 227.125 301.951 227.04 301.514 227.04C301.183 227.04 300.879 227.12 300.602 227.28C300.325 227.429 300.186 227.664 300.186 227.984C300.186 228.176 300.25 228.336 300.378 228.464C300.517 228.581 300.735 228.677 301.034 228.752L302.794 229.168C303.509 229.349 304.042 229.637 304.394 230.032C304.757 230.416 304.938 230.917 304.938 231.536C304.938 231.941 304.853 232.309 304.682 232.64C304.522 232.971 304.298 233.248 304.01 233.472C303.733 233.696 303.391 233.872 302.986 234C302.591 234.128 302.159 234.192 301.69 234.192C301.21 234.192 300.767 234.128 300.362 234C299.957 233.883 299.599 233.712 299.29 233.488C298.981 233.264 298.73 232.997 298.538 232.688C298.346 232.368 298.218 232.005 298.154 231.6H300.074ZM307.193 227.248H305.897V225.696H307.193V223.456H309.065V225.696H310.937V227.248H309.065V231.552C309.065 231.883 309.151 232.128 309.321 232.288C309.503 232.448 309.748 232.528 310.057 232.528C310.249 232.528 310.441 232.496 310.633 232.432C310.825 232.368 310.991 232.288 311.129 232.192V233.888C310.969 233.984 310.767 234.059 310.521 234.112C310.276 234.165 310.009 234.192 309.721 234.192C308.975 234.192 308.367 233.995 307.897 233.6C307.428 233.195 307.193 232.581 307.193 231.76V227.248ZM317.683 225.648V227.584C317.619 227.531 317.539 227.488 317.443 227.456C317.358 227.424 317.267 227.397 317.171 227.376C317.075 227.344 316.974 227.323 316.867 227.312C316.771 227.301 316.675 227.296 316.579 227.296C316.376 227.296 316.184 227.328 316.003 227.392C315.832 227.445 315.672 227.531 315.523 227.648C315.374 227.755 315.246 227.888 315.139 228.048C315.032 228.208 314.958 228.4 314.915 228.624V234H313.043V225.696H314.915V226.544C314.99 226.395 315.091 226.256 315.219 226.128C315.347 226 315.491 225.888 315.651 225.792C315.822 225.696 315.998 225.627 316.179 225.584C316.371 225.531 316.563 225.504 316.755 225.504C316.862 225.504 316.958 225.509 317.043 225.52C317.139 225.52 317.23 225.531 317.315 225.552C317.411 225.573 317.486 225.589 317.539 225.6C317.592 225.611 317.64 225.627 317.683 225.648ZM321.514 223.184C321.514 223.333 321.482 223.483 321.418 223.632C321.354 223.771 321.269 223.893 321.162 224C321.055 224.107 320.927 224.187 320.778 224.24C320.639 224.293 320.495 224.32 320.346 224.32C320.197 224.32 320.047 224.293 319.898 224.24C319.759 224.187 319.637 224.107 319.53 224C319.423 223.893 319.338 223.771 319.274 223.632C319.21 223.483 319.178 223.333 319.178 223.184C319.178 223.035 319.21 222.891 319.274 222.752C319.338 222.603 319.423 222.475 319.53 222.368C319.637 222.261 319.759 222.181 319.898 222.128C320.047 222.064 320.197 222.032 320.346 222.032C320.495 222.032 320.639 222.064 320.778 222.128C320.927 222.181 321.055 222.261 321.162 222.368C321.269 222.475 321.354 222.603 321.418 222.752C321.482 222.891 321.514 223.035 321.514 223.184ZM321.29 225.696V234H319.418V225.696H321.29ZM328.23 234V233.536C328.091 233.675 327.83 233.813 327.446 233.952C327.062 234.08 326.635 234.144 326.166 234.144C325.739 234.144 325.334 234.085 324.95 233.968C324.576 233.84 324.246 233.664 323.958 233.44C323.68 233.205 323.462 232.917 323.302 232.576C323.142 232.235 323.062 231.856 323.062 231.44C323.062 231.045 323.142 230.683 323.302 230.352C323.462 230.021 323.686 229.739 323.974 229.504C324.272 229.269 324.619 229.088 325.014 228.96C325.408 228.821 325.835 228.752 326.294 228.752C326.667 228.752 327.035 228.805 327.398 228.912C327.771 229.019 328.048 229.136 328.23 229.264V228.592C328.23 228.165 328.096 227.808 327.83 227.52C327.563 227.232 327.163 227.088 326.63 227.088C326.256 227.088 325.952 227.168 325.718 227.328C325.483 227.488 325.312 227.707 325.206 227.984H323.414C323.478 227.643 323.6 227.317 323.782 227.008C323.974 226.699 324.214 226.432 324.502 226.208C324.79 225.984 325.115 225.813 325.478 225.696C325.851 225.568 326.246 225.504 326.661 225.504C327.728 225.504 328.55 225.776 329.126 226.32C329.712 226.864 330.006 227.611 330.006 228.56V234H328.23ZM328.23 231.104C328.176 230.976 328.091 230.859 327.974 230.752C327.867 230.645 327.734 230.555 327.574 230.48C327.424 230.405 327.259 230.352 327.078 230.32C326.896 230.277 326.71 230.256 326.518 230.256C326.304 230.256 326.096 230.277 325.894 230.32C325.691 230.363 325.504 230.437 325.334 230.544C325.174 230.64 325.04 230.763 324.934 230.912C324.838 231.061 324.789 231.237 324.789 231.44C324.789 231.653 324.838 231.835 324.934 231.984C325.04 232.133 325.174 232.256 325.334 232.352C325.504 232.448 325.691 232.523 325.894 232.576C326.096 232.619 326.304 232.64 326.518 232.64C326.71 232.64 326.896 232.624 327.078 232.592C327.259 232.549 327.424 232.491 327.574 232.416C327.734 232.341 327.867 232.256 327.974 232.16C328.091 232.053 328.176 231.931 328.23 231.792V231.104ZM334.087 221.84V234H332.215V221.84H334.087Z" fill="#333333"/>
<path d="M406.913 222.512V234H405.025V224.848L402.321 226.208V224.24L405.777 222.512H406.913ZM410.669 230H413.741V227.296H415.533V230H417.421V231.6H415.533V234H413.741V231.6H408.557V230.256L412.877 222.512H414.845L410.669 230ZM418.405 232.832C418.405 232.661 418.437 232.496 418.501 232.336C418.565 232.176 418.655 232.037 418.773 231.92C418.89 231.792 419.029 231.701 419.189 231.648C419.349 231.584 419.514 231.552 419.685 231.552C419.855 231.552 420.021 231.584 420.181 231.648C420.341 231.701 420.479 231.792 420.597 231.92C420.714 232.037 420.805 232.176 420.869 232.336C420.933 232.496 420.965 232.661 420.965 232.832C420.965 233.013 420.933 233.184 420.869 233.344C420.805 233.504 420.714 233.643 420.597 233.76C420.479 233.877 420.341 233.968 420.181 234.032C420.021 234.096 419.855 234.128 419.685 234.128C419.514 234.128 419.349 234.096 419.189 234.032C419.029 233.968 418.89 233.877 418.773 233.76C418.655 233.643 418.565 233.504 418.501 233.344C418.437 233.184 418.405 233.013 418.405 232.832ZM425.919 228.08C425.503 228.08 425.135 228.171 424.815 228.352C424.506 228.523 424.25 228.731 424.047 228.976H422.575V222.512H429.055V224.224H424.159V227.024C424.34 226.885 424.602 226.752 424.943 226.624C425.295 226.485 425.69 226.416 426.127 226.416C426.66 226.416 427.151 226.512 427.599 226.704C428.058 226.885 428.442 227.152 428.751 227.504C429.071 227.845 429.316 228.256 429.487 228.736C429.668 229.205 429.759 229.723 429.759 230.288C429.759 230.864 429.663 231.392 429.471 231.872C429.29 232.341 429.028 232.747 428.687 233.088C428.356 233.429 427.956 233.701 427.487 233.904C427.028 234.096 426.522 234.192 425.967 234.192C425.391 234.192 424.863 234.107 424.383 233.936C423.914 233.765 423.508 233.52 423.167 233.2C422.826 232.88 422.548 232.496 422.335 232.048C422.122 231.6 421.988 231.104 421.935 230.56H423.823C423.898 231.147 424.111 231.616 424.463 231.968C424.815 232.32 425.316 232.496 425.967 232.496C426.266 232.496 426.538 232.448 426.783 232.352C427.039 232.245 427.247 232.091 427.407 231.888C427.578 231.685 427.711 231.451 427.807 231.184C427.903 230.917 427.951 230.619 427.951 230.288C427.951 229.968 427.903 229.675 427.807 229.408C427.711 229.141 427.572 228.907 427.391 228.704C427.22 228.501 427.012 228.347 426.767 228.24C426.522 228.133 426.239 228.08 425.919 228.08ZM435.853 224.928C435.853 225.269 435.789 225.6 435.661 225.92C435.533 226.24 435.347 226.517 435.101 226.752C434.856 226.987 434.573 227.173 434.253 227.312C433.933 227.44 433.603 227.504 433.261 227.504C432.909 227.504 432.573 227.44 432.253 227.312C431.933 227.173 431.656 226.987 431.421 226.752C431.187 226.517 431 226.24 430.861 225.92C430.733 225.6 430.669 225.269 430.669 224.928C430.669 224.576 430.733 224.24 430.861 223.92C431 223.6 431.187 223.317 431.421 223.072C431.656 222.827 431.933 222.64 432.253 222.512C432.573 222.384 432.909 222.32 433.261 222.32C433.603 222.32 433.933 222.384 434.253 222.512C434.573 222.64 434.856 222.827 435.101 223.072C435.347 223.317 435.533 223.6 435.661 223.92C435.789 224.24 435.853 224.576 435.853 224.928ZM432.109 234L439.021 222.512H440.493L433.597 234H432.109ZM432.077 224.928C432.077 225.088 432.109 225.243 432.173 225.392C432.237 225.531 432.317 225.653 432.413 225.76C432.52 225.867 432.643 225.952 432.781 226.016C432.931 226.069 433.091 226.096 433.261 226.096C433.421 226.096 433.571 226.069 433.709 226.016C433.859 225.952 433.987 225.867 434.093 225.76C434.211 225.653 434.296 225.531 434.349 225.392C434.413 225.243 434.445 225.088 434.445 224.928C434.445 224.757 434.413 224.603 434.349 224.464C434.296 224.315 434.211 224.187 434.093 224.08C433.987 223.963 433.859 223.877 433.709 223.824C433.571 223.76 433.421 223.728 433.261 223.728C433.091 223.728 432.931 223.76 432.781 223.824C432.643 223.877 432.52 223.963 432.413 224.08C432.317 224.187 432.237 224.315 432.173 224.464C432.109 224.603 432.077 224.757 432.077 224.928ZM441.933 231.584C441.933 231.936 441.869 232.272 441.741 232.592C441.613 232.912 441.427 233.195 441.181 233.44C440.947 233.675 440.669 233.861 440.349 234C440.04 234.128 439.709 234.192 439.357 234.192C439.005 234.192 438.669 234.128 438.349 234C438.04 233.861 437.763 233.675 437.517 233.44C437.272 233.195 437.08 232.912 436.941 232.592C436.813 232.272 436.749 231.936 436.749 231.584C436.749 231.232 436.813 230.901 436.941 230.592C437.08 230.272 437.272 229.995 437.517 229.76C437.763 229.515 438.04 229.328 438.349 229.2C438.669 229.072 439.005 229.008 439.357 229.008C439.709 229.008 440.04 229.072 440.349 229.2C440.669 229.328 440.947 229.515 441.181 229.76C441.427 229.995 441.613 230.272 441.741 230.592C441.869 230.901 441.933 231.232 441.933 231.584ZM440.541 231.584C440.541 231.424 440.509 231.275 440.445 231.136C440.381 230.987 440.296 230.859 440.189 230.752C440.083 230.645 439.955 230.56 439.805 230.496C439.667 230.432 439.517 230.4 439.357 230.4C439.197 230.4 439.043 230.432 438.893 230.496C438.755 230.56 438.627 230.645 438.509 230.752C438.403 230.859 438.317 230.987 438.253 231.136C438.189 231.275 438.157 231.424 438.157 231.584C438.157 231.744 438.189 231.899 438.253 232.048C438.317 232.187 438.403 232.315 438.509 232.432C438.627 232.539 438.755 232.624 438.893 232.688C439.043 232.752 439.197 232.784 439.357 232.784C439.517 232.784 439.667 232.752 439.805 232.688C439.955 232.624 440.083 232.539 440.189 232.432C440.296 232.315 440.381 232.187 440.445 232.048C440.509 231.899 440.541 231.744 440.541 231.584Z" fill="#333333"/>
</svg>
