<svg width="241" height="68" viewBox="0 0 241 68" fill="none" xmlns="http://www.w3.org/2000/svg">
<path fill-rule="evenodd" clip-rule="evenodd" d="M207.336 32.3115L216.568 32.3109V63.0847L207.336 60.008V32.3115Z" fill="#F7F7F7"/>
<mask id="mask0_2_914" style="mask-type:alpha" maskUnits="userSpaceOnUse" x="207" y="32" width="10" height="32">
<path fill-rule="evenodd" clip-rule="evenodd" d="M207.336 32.3115L216.568 32.3109V63.0847L207.336 60.008V32.3115Z" fill="white"/>
</mask>
<g mask="url(#mask0_2_914)">
<path fill-rule="evenodd" clip-rule="evenodd" d="M207.336 43.0823L218.876 46.9284V49.2369L207.336 45.3908V43.0823Z" fill="#D8D8D8"/>
<path fill-rule="evenodd" clip-rule="evenodd" d="M207.336 45.775L218.876 49.6211V51.9297L207.336 48.0836V45.775Z" fill="#D8D8D8"/>
<path fill-rule="evenodd" clip-rule="evenodd" d="M207.336 35.389L218.876 39.2351V41.5437L207.336 37.6976V35.389Z" fill="#D8D8D8"/>
<path fill-rule="evenodd" clip-rule="evenodd" d="M207.336 38.0817L218.876 41.9277V44.2363L207.336 40.3902V38.0817Z" fill="#D8D8D8"/>
<path fill-rule="evenodd" clip-rule="evenodd" d="M207.336 50.3912L211.952 51.9293V55.3919L207.336 53.8538V50.3912Z" fill="#D8D8D8"/>
<path fill-rule="evenodd" clip-rule="evenodd" d="M207.336 54.2373L211.952 55.7754V59.238L207.336 57.6999V54.2373Z" fill="#D8D8D8"/>
<path fill-rule="evenodd" clip-rule="evenodd" d="M207.336 30.0037H208.49V63.0849H207.336V30.0037ZM215.414 30.0037H216.568V63.0849H215.414V30.0037ZM212.722 30.0037H211.183V63.0849H212.722V30.0037ZM209.645 30.0037H210.03V63.0849H209.645V30.0037ZM214.26 30.0037H213.876V63.0849H214.26V30.0037Z" fill="#F7F7F7"/>
</g>
<path fill-rule="evenodd" clip-rule="evenodd" d="M213.105 54.6229L215.413 55.391V60.3917L213.105 59.6242V54.6229Z" fill="#D8D8D8"/>
<path fill-rule="evenodd" clip-rule="evenodd" d="M214.259 53.0838C215.145 53.3295 215.413 55.0059 215.413 55.0059L213.105 54.2384C213.105 54.2384 213.374 52.8381 214.259 53.0838Z" fill="#D8D8D8"/>
<path fill-rule="evenodd" clip-rule="evenodd" d="M230.42 30.7736L216.572 31.1577V63.0855L230.42 58.4701V30.7736Z" fill="#D8D8D8"/>
<mask id="mask1_2_914" style="mask-type:alpha" maskUnits="userSpaceOnUse" x="216" y="30" width="15" height="34">
<path fill-rule="evenodd" clip-rule="evenodd" d="M230.42 30.7736L216.572 31.1577V63.0855L230.42 58.4701V30.7736Z" fill="white"/>
</mask>
<g mask="url(#mask1_2_914)">
<path fill-rule="evenodd" clip-rule="evenodd" d="M230.42 33.8507L218.88 37.6968V40.0054L230.42 36.1593V33.8507Z" fill="#989898"/>
<path fill-rule="evenodd" clip-rule="evenodd" d="M230.42 36.5432L218.88 40.3893V42.6979L230.42 38.8518V36.5432Z" fill="#989898"/>
<path fill-rule="evenodd" clip-rule="evenodd" d="M230.42 41.9288L222.342 44.6209V47.6988L230.42 45.0067V41.9288Z" fill="#989898"/>
<path fill-rule="evenodd" clip-rule="evenodd" d="M230.42 45.3907L222.342 48.0828V51.1607L230.42 48.4686V45.3907Z" fill="#989898"/>
<path fill-rule="evenodd" clip-rule="evenodd" d="M222.343 31.1582H224.651V64.2394H222.343V31.1582ZM216.572 31.1584H219.65V64.2397H216.572V31.1584ZM230.42 31.1582H227.342V64.2394H230.42V31.1582ZM225.804 31.1582H226.189V64.2394H225.804V31.1582ZM221.188 31.1582H220.803V64.2394H221.188V31.1582Z" fill="#D8D8D8"/>
</g>
<path fill-rule="evenodd" clip-rule="evenodd" d="M207.337 32.3118L207.336 32.312L207.337 32.312L216.568 35.389L230.414 30.7735L230.416 30.7734L230.415 30.7732L230.416 30.773L230.415 30.773L221.184 27.696L207.337 32.3115L207.336 32.3116L207.337 32.3118Z" fill="#EBEBEB"/>
<path fill-rule="evenodd" clip-rule="evenodd" d="M221.184 28.4651L209.645 32.3117L228.108 30.7731L221.184 28.4651ZM216.569 34.6198L209.645 32.3118L228.108 30.7732L216.569 34.6198Z" fill="#D8D8D8"/>
<mask id="mask2_2_914" style="mask-type:alpha" maskUnits="userSpaceOnUse" x="209" y="28" width="20" height="7">
<path fill-rule="evenodd" clip-rule="evenodd" d="M221.184 28.4651L209.645 32.3117L228.108 30.7731L221.184 28.4651ZM216.569 34.6198L209.645 32.3118L228.108 30.7732L216.569 34.6198Z" fill="white"/>
</mask>
<g mask="url(#mask2_2_914)">
<path fill-rule="evenodd" clip-rule="evenodd" d="M221.184 29.6199V28.0813L208.49 32.3126L210.798 33.0819L221.184 29.6199Z" fill="#989898"/>
<path fill-rule="evenodd" clip-rule="evenodd" d="M221.184 29.2339L209.645 33.0805L228.108 31.5419L221.184 29.2339ZM216.569 35.3886L209.645 33.0806L228.108 31.542L216.569 35.3886Z" fill="#D8D8D8"/>
</g>
<path fill-rule="evenodd" clip-rule="evenodd" d="M209.645 63.0853V62.3159L210.799 61.9313V61.162L211.953 60.7773V60.008L213.107 59.6233L215.415 60.3926V62.7006L211.953 63.8546L209.645 63.0853Z" fill="#EBEBEB"/>
<mask id="mask3_2_914" style="mask-type:alpha" maskUnits="userSpaceOnUse" x="209" y="59" width="7" height="5">
<path fill-rule="evenodd" clip-rule="evenodd" d="M209.645 63.0853V62.3159L210.799 61.9313V61.162L211.953 60.7773V60.008L213.107 59.6233L215.415 60.3926V62.7006L211.953 63.8546L209.645 63.0853Z" fill="white"/>
</mask>
<g mask="url(#mask3_2_914)">
<path fill-rule="evenodd" clip-rule="evenodd" d="M211.953 63.8544V63.0851L213.107 62.7005V61.9311L214.261 61.5465V60.7771L215.415 60.3925V63.8544H211.953Z" fill="#D8D8D8"/>
<path fill-rule="evenodd" clip-rule="evenodd" d="M209.645 62.3159L211.953 63.0847V63.8546L209.645 63.0858V62.3159Z" fill="#F7F7F7"/>
<path fill-rule="evenodd" clip-rule="evenodd" d="M210.801 61.1624L213.109 61.9311V62.701L210.801 61.9323V61.1624Z" fill="#F7F7F7"/>
<path fill-rule="evenodd" clip-rule="evenodd" d="M211.953 60.0082L214.261 60.7769V61.5468L211.953 60.7781V60.0082Z" fill="#F7F7F7"/>
</g>
<rect x="223.109" y="29.6184" width="0.384666" height="1.154" fill="#989898"/>
<path fill-rule="evenodd" clip-rule="evenodd" d="M220.031 29.2338L222.339 28.4645V30.0031L220.031 30.7725V29.2338Z" fill="#989898"/>
<path fill-rule="evenodd" clip-rule="evenodd" d="M220.031 29.2344L218.877 28.8497V30.3884L220.031 30.7731V29.2344Z" fill="#D8D8D8"/>
<rect x="224.262" y="30.0037" width="0.384666" height="1.154" fill="#989898"/>
<path fill-rule="evenodd" clip-rule="evenodd" d="M218.877 28.8493L221.185 28.08L222.339 28.4646L220.031 29.234L218.877 28.8493Z" fill="#D8D8D8"/>
<path fill-rule="evenodd" clip-rule="evenodd" d="M217.723 43.4668L226.955 43.4662V66.5467L217.723 63.4699V43.4668Z" fill="#F7F7F7"/>
<mask id="mask4_2_914" style="mask-type:alpha" maskUnits="userSpaceOnUse" x="217" y="43" width="10" height="24">
<path fill-rule="evenodd" clip-rule="evenodd" d="M217.723 43.4668L226.955 43.4662V66.5467L217.723 63.4699V43.4668Z" fill="white"/>
</mask>
<g mask="url(#mask4_2_914)">
<path fill-rule="evenodd" clip-rule="evenodd" d="M217.723 46.5441L229.263 50.3902V52.6987L217.723 48.8526V46.5441Z" fill="#D8D8D8"/>
<path fill-rule="evenodd" clip-rule="evenodd" d="M217.723 49.2375L229.263 53.0836V55.3922L217.723 51.5461V49.2375Z" fill="#D8D8D8"/>
<path fill-rule="evenodd" clip-rule="evenodd" d="M217.723 53.8529L222.339 55.391V58.8536L217.723 57.3155V53.8529Z" fill="#D8D8D8"/>
<path fill-rule="evenodd" clip-rule="evenodd" d="M217.723 57.7001L222.339 59.2382V62.7007L217.723 61.1626V57.7001Z" fill="#D8D8D8"/>
<path fill-rule="evenodd" clip-rule="evenodd" d="M225.8 41.1587H226.954V66.5466H225.8V41.1587ZM217.723 41.1594H218.877V66.5474H217.723V41.1594ZM223.108 41.1587H221.57V66.5466H223.108V41.1587ZM220.031 41.1587H220.416V66.5466H220.031V41.1587ZM224.648 41.1587H224.263V66.5466H224.648V41.1587Z" fill="#F7F7F7"/>
</g>
<path fill-rule="evenodd" clip-rule="evenodd" d="M223.492 58.0844L225.8 58.8524V63.8531L223.492 63.0856V58.0844Z" fill="#D8D8D8"/>
<path fill-rule="evenodd" clip-rule="evenodd" d="M224.646 56.5455C225.531 56.7911 225.8 58.4675 225.8 58.4675L223.492 57.7C223.492 57.7 223.761 56.2998 224.646 56.5455Z" fill="#D8D8D8"/>
<path fill-rule="evenodd" clip-rule="evenodd" d="M240.803 41.9291L226.955 42.3132V66.5477L240.803 61.9323V41.9291Z" fill="#D8D8D8"/>
<mask id="mask5_2_914" style="mask-type:alpha" maskUnits="userSpaceOnUse" x="226" y="41" width="15" height="26">
<path fill-rule="evenodd" clip-rule="evenodd" d="M240.803 41.9291L226.955 42.3132V66.5477L240.803 61.9323V41.9291Z" fill="white"/>
</mask>
<g mask="url(#mask5_2_914)">
<path fill-rule="evenodd" clip-rule="evenodd" d="M240.803 45.0062L229.263 48.8523V51.1609L240.803 47.3148V45.0062Z" fill="#989898"/>
<path fill-rule="evenodd" clip-rule="evenodd" d="M240.803 47.6987L229.263 51.5448V53.8534L240.803 50.0073V47.6987Z" fill="#989898"/>
<path fill-rule="evenodd" clip-rule="evenodd" d="M240.803 53.0848L232.725 55.7769V58.8548L240.803 56.1627V53.0848Z" fill="#989898"/>
<path fill-rule="evenodd" clip-rule="evenodd" d="M240.803 56.5465L232.725 59.2386V62.3165L240.803 59.6244V56.5465Z" fill="#989898"/>
<path fill-rule="evenodd" clip-rule="evenodd" d="M226.955 42.3132H230.032V67.7012H226.955V42.3132ZM232.725 42.3137H235.033V67.7017H232.725V42.3137ZM240.803 42.3137H237.726V67.7017H240.803V42.3137ZM236.188 42.3137H236.573V67.7017H236.188V42.3137ZM231.571 42.3137H231.186V67.7017H231.571V42.3137Z" fill="#D8D8D8"/>
</g>
<path fill-rule="evenodd" clip-rule="evenodd" d="M217.723 43.467L217.723 43.4671L217.723 43.467L226.955 46.5442L240.802 41.9284L240.803 41.9284L240.802 41.9283L240.803 41.9282L240.802 41.9283L231.571 38.8511L217.723 43.4669L217.723 43.4669L217.723 43.467Z" fill="#EBEBEB"/>
<path fill-rule="evenodd" clip-rule="evenodd" d="M231.571 39.6204L220.031 43.467L238.495 41.9284L231.571 39.6204ZM226.955 45.7751L220.031 43.4671L238.495 41.9284L226.955 45.7751Z" fill="#D8D8D8"/>
<mask id="mask6_2_914" style="mask-type:alpha" maskUnits="userSpaceOnUse" x="220" y="39" width="19" height="7">
<path fill-rule="evenodd" clip-rule="evenodd" d="M231.571 39.6204L220.031 43.467L238.495 41.9284L231.571 39.6204ZM226.955 45.7751L220.031 43.4671L238.495 41.9284L226.955 45.7751Z" fill="white"/>
</mask>
<g mask="url(#mask6_2_914)">
<path fill-rule="evenodd" clip-rule="evenodd" d="M231.57 40.7747V39.236L218.876 43.4674L221.184 44.2367L231.57 40.7747Z" fill="#989898"/>
<path fill-rule="evenodd" clip-rule="evenodd" d="M231.571 40.3901L220.031 44.2368L238.495 42.6981L231.571 40.3901ZM226.955 46.5449L220.031 44.2369L238.495 42.6982L226.955 46.5449Z" fill="#D8D8D8"/>
</g>
<path fill-rule="evenodd" clip-rule="evenodd" d="M220.031 66.5471V65.7777L221.185 65.3931V64.6237L222.339 64.2391V63.4697L223.493 63.0851L225.801 63.8544V66.1624L222.339 67.3164L220.031 66.5471Z" fill="#EBEBEB"/>
<mask id="mask7_2_914" style="mask-type:alpha" maskUnits="userSpaceOnUse" x="220" y="63" width="6" height="5">
<path fill-rule="evenodd" clip-rule="evenodd" d="M220.031 66.5471V65.7777L221.185 65.3931V64.6237L222.339 64.2391V63.4697L223.493 63.0851L225.801 63.8544V66.1624L222.339 67.3164L220.031 66.5471Z" fill="white"/>
</mask>
<g mask="url(#mask7_2_914)">
<path fill-rule="evenodd" clip-rule="evenodd" d="M222.338 67.3161V66.5468L223.492 66.1621V65.3928L224.646 65.0081V64.2388L225.8 63.8541V67.3161H222.338Z" fill="#D8D8D8"/>
<path fill-rule="evenodd" clip-rule="evenodd" d="M220.031 65.7778L222.339 66.5466V67.3165L220.031 66.5477V65.7778Z" fill="#F7F7F7"/>
<path fill-rule="evenodd" clip-rule="evenodd" d="M221.184 64.6241L223.492 65.3929V66.1628L221.184 65.3941V64.6241Z" fill="#F7F7F7"/>
<path fill-rule="evenodd" clip-rule="evenodd" d="M222.338 63.4694L224.646 64.2381V65.008L222.338 64.2393V63.4694Z" fill="#F7F7F7"/>
</g>
<rect x="233.494" y="40.774" width="0.384666" height="1.154" fill="#989898"/>
<path fill-rule="evenodd" clip-rule="evenodd" d="M230.416 40.3893L232.724 39.62V41.1587L230.416 41.928V40.3893Z" fill="#989898"/>
<path fill-rule="evenodd" clip-rule="evenodd" d="M230.416 40.3897L229.262 40.005V41.5437L230.416 41.9283V40.3897Z" fill="#D8D8D8"/>
<rect x="234.648" y="41.1591" width="0.384666" height="1.154" fill="#989898"/>
<path fill-rule="evenodd" clip-rule="evenodd" d="M229.262 40.0046L231.57 39.2352L232.724 39.6199L230.416 40.3892L229.262 40.0046Z" fill="#D8D8D8"/>
<path fill-rule="evenodd" clip-rule="evenodd" d="M113.863 3.84644L125.403 3.84586V67.3163L113.863 63.4702V3.84644Z" fill="#F7F7F7"/>
<mask id="mask8_2_914" style="mask-type:alpha" maskUnits="userSpaceOnUse" x="113" y="3" width="13" height="65">
<path fill-rule="evenodd" clip-rule="evenodd" d="M113.863 3.84644L125.403 3.84586V67.3163L113.863 63.4702V3.84644Z" fill="white"/>
</mask>
<g mask="url(#mask8_2_914)">
<path fill-rule="evenodd" clip-rule="evenodd" d="M113.863 6.53894L125.403 10.385V13.0783L113.863 9.23217V6.53894Z" fill="#D8D8D8"/>
<path fill-rule="evenodd" clip-rule="evenodd" d="M113.863 10.7704L125.403 14.6165V17.3097L113.863 13.4636V10.7704Z" fill="#D8D8D8"/>
<path fill-rule="evenodd" clip-rule="evenodd" d="M113.863 15.0016L125.403 18.8477V21.5409L113.863 17.6948V15.0016Z" fill="#D8D8D8"/>
<path fill-rule="evenodd" clip-rule="evenodd" d="M113.863 19.2332L125.403 23.0792V25.7725L113.863 21.9264V19.2332Z" fill="#D8D8D8"/>
<path fill-rule="evenodd" clip-rule="evenodd" d="M113.863 23.4648L125.403 27.3109V30.0042L113.863 26.1581V23.4648Z" fill="#D8D8D8"/>
<path fill-rule="evenodd" clip-rule="evenodd" d="M113.863 27.6958L125.403 31.5419V34.2351L113.863 30.389V27.6958Z" fill="#D8D8D8"/>
<path fill-rule="evenodd" clip-rule="evenodd" d="M113.863 31.9271L125.403 35.7732V38.4664L113.863 34.6204V31.9271Z" fill="#D8D8D8"/>
<path fill-rule="evenodd" clip-rule="evenodd" d="M113.863 36.1583L125.403 40.0044V42.6976L113.863 38.8516V36.1583Z" fill="#D8D8D8"/>
<path fill-rule="evenodd" clip-rule="evenodd" d="M113.863 40.3895L125.403 44.2356V46.9288L113.863 43.0828V40.3895Z" fill="#D8D8D8"/>
<path fill-rule="evenodd" clip-rule="evenodd" d="M113.863 44.6208L125.403 48.4669V51.1602L113.863 47.3141V44.6208Z" fill="#D8D8D8"/>
<path fill-rule="evenodd" clip-rule="evenodd" d="M113.863 48.8521L125.403 52.6981V55.3914L113.863 51.5453V48.8521Z" fill="#D8D8D8"/>
<path fill-rule="evenodd" clip-rule="evenodd" d="M113.863 53.084L125.403 56.9301V59.6233L113.863 55.7772V53.084Z" fill="#D8D8D8"/>
<path fill-rule="evenodd" clip-rule="evenodd" d="M118.48 60.7767L120.788 61.5448V65.7761L118.48 65.778V60.7767Z" fill="#D8D8D8"/>
<path fill-rule="evenodd" clip-rule="evenodd" d="M118.479 3.84619H117.71V67.316H118.479V3.84619ZM115.402 3.84644H113.863V67.3163H115.402V3.84644ZM123.863 3.84619H125.401V67.316H123.863V3.84619ZM121.556 3.84619H120.787V67.316H121.556V3.84619Z" fill="#F7F7F7"/>
</g>
<path fill-rule="evenodd" clip-rule="evenodd" d="M136.941 3.84717L125.401 3.84659V67.317L136.941 63.4709V3.84717Z" fill="#D8D8D8"/>
<mask id="mask9_2_914" style="mask-type:alpha" maskUnits="userSpaceOnUse" x="125" y="3" width="12" height="65">
<path fill-rule="evenodd" clip-rule="evenodd" d="M136.941 3.84717L125.401 3.84659V67.317L136.941 63.4709V3.84717Z" fill="white"/>
</mask>
<g mask="url(#mask9_2_914)">
<path fill-rule="evenodd" clip-rule="evenodd" d="M136.941 6.53979L125.401 10.3859V13.0791L136.941 9.23303V6.53979Z" fill="#989898"/>
<path fill-rule="evenodd" clip-rule="evenodd" d="M136.941 10.771L125.401 14.6171V17.3103L136.941 13.4642V10.771Z" fill="#989898"/>
<path fill-rule="evenodd" clip-rule="evenodd" d="M136.941 15.0024L125.401 18.8485V21.5418L136.941 17.6957V15.0024Z" fill="#989898"/>
<path fill-rule="evenodd" clip-rule="evenodd" d="M136.941 19.2339L125.401 23.08V25.7732L136.941 21.9271V19.2339Z" fill="#989898"/>
<path fill-rule="evenodd" clip-rule="evenodd" d="M136.941 23.4658L125.401 27.3119V30.0051L136.941 26.1591V23.4658Z" fill="#989898"/>
<path fill-rule="evenodd" clip-rule="evenodd" d="M136.941 27.6964L125.401 31.5425V34.2357L136.941 30.3896V27.6964Z" fill="#989898"/>
<path fill-rule="evenodd" clip-rule="evenodd" d="M136.941 31.9277L125.401 35.7738V38.467L136.941 34.621V31.9277Z" fill="#989898"/>
<path fill-rule="evenodd" clip-rule="evenodd" d="M136.941 36.1587L125.401 40.0048V42.698L136.941 38.8519V36.1587Z" fill="#989898"/>
<path fill-rule="evenodd" clip-rule="evenodd" d="M136.941 40.3906L125.401 44.2367V46.9299L136.941 43.0839V40.3906Z" fill="#989898"/>
<path fill-rule="evenodd" clip-rule="evenodd" d="M136.941 44.6216L125.401 48.4677V51.1609L136.941 47.3148V44.6216Z" fill="#989898"/>
<path fill-rule="evenodd" clip-rule="evenodd" d="M136.941 48.8531L125.401 52.6992V55.3925L136.941 51.5464V48.8531Z" fill="#989898"/>
<path fill-rule="evenodd" clip-rule="evenodd" d="M136.941 53.0848L125.401 56.9309V59.6242L136.941 55.7781V53.0848Z" fill="#989898"/>
<path fill-rule="evenodd" clip-rule="evenodd" d="M132.326 60.778L130.018 61.546V65.7773L132.326 65.7792V60.778Z" fill="#989898"/>
<path fill-rule="evenodd" clip-rule="evenodd" d="M130.019 3.84692H129.249V67.3168H130.019V3.84692ZM126.939 3.84717H125.4V67.317H126.939V3.84717ZM135.402 3.84692H136.941V67.3168H135.402V3.84692ZM133.094 3.84692H132.325V67.3168H133.094V3.84692Z" fill="#D8D8D8"/>
</g>
<path fill-rule="evenodd" clip-rule="evenodd" d="M125.403 0L113.863 3.84666L125.403 7.69331L136.943 3.84666L125.403 0Z" fill="#EBEBEB"/>
<path fill-rule="evenodd" clip-rule="evenodd" d="M125.402 0.769287L116.17 3.84661L125.402 6.92394L134.634 3.84661L125.402 0.769287Z" fill="#D8D8D8"/>
<mask id="mask10_2_914" style="mask-type:alpha" maskUnits="userSpaceOnUse" x="116" y="0" width="19" height="7">
<path fill-rule="evenodd" clip-rule="evenodd" d="M125.402 0.769287L116.17 3.84661L125.402 6.92394L134.634 3.84661L125.402 0.769287Z" fill="white"/>
</mask>
<g mask="url(#mask10_2_914)">
<path fill-rule="evenodd" clip-rule="evenodd" d="M125.402 2.30834V0.769678L116.17 3.847L118.478 4.61633L125.402 2.30834Z" fill="#989898"/>
<path fill-rule="evenodd" clip-rule="evenodd" d="M125.402 1.92358L116.17 5.00091L125.402 8.07823L134.634 5.00091L125.402 1.92358Z" fill="#D8D8D8"/>
</g>
<path fill-rule="evenodd" clip-rule="evenodd" d="M176.059 25.3427L187.599 25.3422V67.656L176.059 63.8099V25.3427Z" fill="#F7F7F7"/>
<mask id="mask11_2_914" style="mask-type:alpha" maskUnits="userSpaceOnUse" x="176" y="25" width="12" height="43">
<path fill-rule="evenodd" clip-rule="evenodd" d="M176.059 25.3427L187.599 25.3422V67.656L176.059 63.8099V25.3427Z" fill="white"/>
</mask>
<g mask="url(#mask11_2_914)">
<path fill-rule="evenodd" clip-rule="evenodd" d="M176.059 44.9609L187.599 48.807V52.6542L176.059 48.8082V44.9609Z" fill="#CBCBCB"/>
<path fill-rule="evenodd" clip-rule="evenodd" d="M176.059 40.7295L187.599 44.5756V48.4228L176.059 44.5767V40.7295Z" fill="#CBCBCB"/>
<path fill-rule="evenodd" clip-rule="evenodd" d="M176.059 36.4982L187.599 40.3443V44.1915L176.059 40.3454V36.4982Z" fill="#CBCBCB"/>
<path fill-rule="evenodd" clip-rule="evenodd" d="M176.059 32.2665L187.599 36.1126V39.9598L176.059 36.1137V32.2665Z" fill="#CBCBCB"/>
<path fill-rule="evenodd" clip-rule="evenodd" d="M176.059 28.0353L187.599 31.8814V35.7286L176.059 31.8825V28.0353Z" fill="#CBCBCB"/>
<path fill-rule="evenodd" clip-rule="evenodd" d="M176.059 49.1921L187.599 53.0382V56.8854L176.059 53.0394V49.1921Z" fill="#CBCBCB"/>
<path fill-rule="evenodd" clip-rule="evenodd" d="M176.059 53.424L187.599 57.27V61.1173L176.059 57.2712V53.424Z" fill="#CBCBCB"/>
<path fill-rule="evenodd" clip-rule="evenodd" d="M180.674 61.1173L182.982 61.8854V66.1167L180.674 66.1185V61.1173Z" fill="#CBCBCB"/>
<path fill-rule="evenodd" clip-rule="evenodd" d="M180.676 25.3425H180.291V67.6558H180.676V25.3425ZM177.982 25.3433H176.059V67.6565H177.982V25.3433ZM185.675 25.3425H187.598V67.6558H185.675V25.3425ZM183.366 25.3425H182.981V67.6558H183.366V25.3425Z" fill="#F7F7F7"/>
</g>
<path fill-rule="evenodd" clip-rule="evenodd" d="M199.141 25.3429L187.601 25.3423V67.6561L199.141 63.81V25.3429Z" fill="#D8D8D8"/>
<mask id="mask12_2_914" style="mask-type:alpha" maskUnits="userSpaceOnUse" x="187" y="25" width="13" height="43">
<path fill-rule="evenodd" clip-rule="evenodd" d="M199.141 25.3429L187.601 25.3423V67.6561L199.141 63.81V25.3429Z" fill="white"/>
</mask>
<g mask="url(#mask12_2_914)">
<path fill-rule="evenodd" clip-rule="evenodd" d="M199.141 44.9604L187.601 48.8065V52.6538L199.141 48.8077V44.9604Z" fill="#989898"/>
<path fill-rule="evenodd" clip-rule="evenodd" d="M199.141 40.729L187.601 44.5751V48.4223L199.141 44.5762V40.729Z" fill="#989898"/>
<path fill-rule="evenodd" clip-rule="evenodd" d="M199.141 36.4978L187.601 40.3439V44.1911L199.141 40.345V36.4978Z" fill="#989898"/>
<path fill-rule="evenodd" clip-rule="evenodd" d="M199.141 32.2667L187.601 36.1128V39.96L199.141 36.114V32.2667Z" fill="#989898"/>
<path fill-rule="evenodd" clip-rule="evenodd" d="M199.141 28.0358L187.601 31.8818V35.7291L199.141 31.883V28.0358Z" fill="#989898"/>
<path fill-rule="evenodd" clip-rule="evenodd" d="M199.141 49.192L187.601 53.0381V56.8853L199.141 53.0392V49.192Z" fill="#989898"/>
<path fill-rule="evenodd" clip-rule="evenodd" d="M199.141 53.4232L187.601 57.2693V61.1165L199.141 57.2704V53.4232Z" fill="#989898"/>
<path fill-rule="evenodd" clip-rule="evenodd" d="M194.523 61.1171L192.215 61.8851V66.1165L194.523 66.1183V61.1171Z" fill="#989898"/>
<path fill-rule="evenodd" clip-rule="evenodd" d="M189.523 25.3428H187.6V67.656H189.523V25.3428ZM192.215 25.3428H191.83V67.656H192.215V25.3428ZM197.217 25.3428H199.141V67.656H197.217V25.3428ZM194.907 25.3428H194.522V67.656H194.907V25.3428Z" fill="#D8D8D8"/>
</g>
<path fill-rule="evenodd" clip-rule="evenodd" d="M187.599 21.4963L176.059 25.343L187.599 29.1896L199.139 25.343L187.599 21.4963Z" fill="#EBEBEB"/>
<path fill-rule="evenodd" clip-rule="evenodd" d="M187.599 22.2656L178.367 25.3429L187.599 28.4203L196.831 25.3429L187.599 22.2656Z" fill="#CBCBCB"/>
<mask id="mask13_2_914" style="mask-type:alpha" maskUnits="userSpaceOnUse" x="178" y="22" width="19" height="7">
<path fill-rule="evenodd" clip-rule="evenodd" d="M187.599 22.2656L178.367 25.3429L187.599 28.4203L196.831 25.3429L187.599 22.2656Z" fill="white"/>
</mask>
<g mask="url(#mask13_2_914)">
<path fill-rule="evenodd" clip-rule="evenodd" d="M187.6 23.8047V22.266L178.368 25.3433L180.676 26.1127L187.6 23.8047Z" fill="#989898"/>
<path fill-rule="evenodd" clip-rule="evenodd" d="M187.599 23.0349L178.367 26.1122L187.599 29.1896L196.831 26.1122L187.599 23.0349Z" fill="#D8D8D8"/>
</g>
<path fill-rule="evenodd" clip-rule="evenodd" d="M193.754 24.572H193.37V25.726H193.754V24.572ZM191.061 24.5728H191.445V25.7268H191.061V24.5728ZM192.214 24.9568H192.599V26.1108H192.214V24.9568Z" fill="#989898"/>
<path fill-rule="evenodd" clip-rule="evenodd" d="M193.754 22.8418H191.061V24.7522C191.061 24.7565 191.061 24.7609 191.061 24.7652C191.061 25.0839 191.663 25.3422 192.407 25.3422C193.15 25.3422 193.753 25.0839 193.753 24.7652C193.753 24.7652 193.753 24.7652 193.753 24.7651H193.754V22.8418Z" fill="#EDEDED"/>
<path fill-rule="evenodd" clip-rule="evenodd" d="M191.167 22.6158L191.166 22.6158L192.406 21.4954L193.592 22.5673C193.695 22.6488 193.753 22.7422 193.753 22.8414C193.753 23.1601 193.15 23.4184 192.407 23.4184C191.663 23.4184 191.061 23.1601 191.061 22.8414C191.061 22.7613 191.099 22.6851 191.167 22.6158Z" fill="#D8D8D8"/>
<path fill-rule="evenodd" clip-rule="evenodd" d="M83.0859 20.9649L94.6259 20.9644V67.5095L83.0859 63.6634V20.9649Z" fill="#F7F7F7"/>
<mask id="mask14_2_914" style="mask-type:alpha" maskUnits="userSpaceOnUse" x="83" y="20" width="12" height="48">
<path fill-rule="evenodd" clip-rule="evenodd" d="M83.0859 20.9649L94.6259 20.9644V67.5095L83.0859 63.6634V20.9649Z" fill="white"/>
</mask>
<g mask="url(#mask14_2_914)">
<path fill-rule="evenodd" clip-rule="evenodd" d="M83.0859 23.2728L94.6259 27.1189V31.3508L83.0859 27.5047V23.2728Z" fill="#D8D8D8"/>
<path fill-rule="evenodd" clip-rule="evenodd" d="M83.0859 29.043L94.6259 32.8891V37.1209L83.0859 33.2749V29.043Z" fill="#D8D8D8"/>
<path fill-rule="evenodd" clip-rule="evenodd" d="M83.0859 34.8126L94.6259 38.6587V42.8906L83.0859 39.0445V34.8126Z" fill="#D8D8D8"/>
<path fill-rule="evenodd" clip-rule="evenodd" d="M83.0859 40.583L94.6259 44.4291V48.661L83.0859 44.8149V40.583Z" fill="#D8D8D8"/>
<path fill-rule="evenodd" clip-rule="evenodd" d="M83.0859 46.3527L94.6259 50.1987V54.4306L83.0859 50.5846V46.3527Z" fill="#D8D8D8"/>
<path fill-rule="evenodd" clip-rule="evenodd" d="M83.0859 52.1224L94.6259 55.9685V60.2004L83.0859 56.3543V52.1224Z" fill="#D8D8D8"/>
<path fill-rule="evenodd" clip-rule="evenodd" d="M87.7031 60.9703L90.0111 61.7384V65.9697L87.7031 65.9716V60.9703Z" fill="#D8D8D8"/>
<path fill-rule="evenodd" clip-rule="evenodd" d="M87.7014 20.9648H86.9321V67.5094H87.7014V20.9648ZM84.6246 20.9653H83.0859V67.5099H84.6246V20.9653ZM93.0863 20.9648H94.625V67.5094H93.0863V20.9648ZM90.7789 20.9648H90.0095V67.5094H90.7789V20.9648Z" fill="#F7F7F7"/>
</g>
<path fill-rule="evenodd" clip-rule="evenodd" d="M106.166 20.9651L94.626 20.9645V67.5096L106.166 63.6635V20.9651Z" fill="#D8D8D8"/>
<mask id="mask15_2_914" style="mask-type:alpha" maskUnits="userSpaceOnUse" x="94" y="20" width="13" height="48">
<path fill-rule="evenodd" clip-rule="evenodd" d="M106.166 20.9651L94.626 20.9645V67.5096L106.166 63.6635V20.9651Z" fill="white"/>
</mask>
<g mask="url(#mask15_2_914)">
<path fill-rule="evenodd" clip-rule="evenodd" d="M106.166 23.2729L94.626 27.119V31.3509L106.166 27.5048V23.2729Z" fill="#989898"/>
<path fill-rule="evenodd" clip-rule="evenodd" d="M106.166 29.0431L94.626 32.8892V37.1211L106.166 33.275V29.0431Z" fill="#989898"/>
<path fill-rule="evenodd" clip-rule="evenodd" d="M106.166 34.8129L94.626 38.6589V42.8908L106.166 39.0448V34.8129Z" fill="#989898"/>
<path fill-rule="evenodd" clip-rule="evenodd" d="M106.166 40.5831L94.626 44.4292V48.6611L106.166 44.815V40.5831Z" fill="#989898"/>
<path fill-rule="evenodd" clip-rule="evenodd" d="M106.166 46.3529L94.626 50.199V54.4309L106.166 50.5848V46.3529Z" fill="#989898"/>
<path fill-rule="evenodd" clip-rule="evenodd" d="M106.166 52.1226L94.626 55.9686V60.2005L106.166 56.3545V52.1226Z" fill="#989898"/>
<path fill-rule="evenodd" clip-rule="evenodd" d="M101.551 60.9706L99.2428 61.7387V65.97L101.551 65.9718V60.9706Z" fill="#989898"/>
<path fill-rule="evenodd" clip-rule="evenodd" d="M99.2413 20.9646H98.472V67.5091H99.2413V20.9646ZM96.1637 20.9651H94.625V67.5096H96.1637V20.9651ZM104.628 20.9646H106.167V67.5091H104.628V20.9646ZM102.319 20.9646H101.549V67.5091H102.319V20.9646Z" fill="#D8D8D8"/>
</g>
<path fill-rule="evenodd" clip-rule="evenodd" d="M94.6259 17.1179L83.0859 20.9646L94.6259 24.8112L106.166 20.9646L94.6259 17.1179Z" fill="#EBEBEB"/>
<path fill-rule="evenodd" clip-rule="evenodd" d="M94.6262 18.272L84.2402 20.9646L94.6262 24.4266L105.012 20.9646L94.6262 18.272Z" fill="#CBCBCB"/>
<rect x="84.2402" y="20.1951" width="20.7719" height="0.769331" fill="#CBCBCB"/>
<path fill-rule="evenodd" clip-rule="evenodd" d="M94.6262 17.5024L84.2402 20.1951L94.6262 23.6571L105.012 20.1951L94.6262 17.5024Z" fill="#EBEBEB"/>
<path fill-rule="evenodd" clip-rule="evenodd" d="M94.6265 17.1174L85.3945 20.1948L94.6265 23.2721L103.858 20.1948L94.6265 17.1174Z" fill="#CBCBCB"/>
<rect x="85.3945" y="19.4259" width="18.4639" height="0.769331" fill="#CBCBCB"/>
<path fill-rule="evenodd" clip-rule="evenodd" d="M94.6265 16.3486L85.3945 19.426L94.6265 22.5033L103.858 19.426L94.6265 16.3486Z" fill="#EBEBEB"/>
<path fill-rule="evenodd" clip-rule="evenodd" d="M86.5469 19.4259L94.6249 22.1185V13.2712L86.5469 19.4259Z" fill="#F7F7F7"/>
<path fill-rule="evenodd" clip-rule="evenodd" d="M102.705 19.4259L94.627 22.1185V13.2712L102.705 19.4259Z" fill="#D8D8D8"/>
<path fill-rule="evenodd" clip-rule="evenodd" d="M144.838 58.9923L156.378 58.9917V67.0703L144.838 63.2242V58.9923Z" fill="#F7F7F7"/>
<mask id="mask16_2_914" style="mask-type:alpha" maskUnits="userSpaceOnUse" x="144" y="58" width="13" height="10">
<path fill-rule="evenodd" clip-rule="evenodd" d="M144.838 58.9923L156.378 58.9917V67.0703L144.838 63.2242V58.9923Z" fill="white"/>
</mask>
<g mask="url(#mask16_2_914)">
<path fill-rule="evenodd" clip-rule="evenodd" d="M144.838 52.8372L156.378 56.6832V59.3765L144.838 55.5304V52.8372Z" fill="#CBCBCB"/>
<path fill-rule="evenodd" clip-rule="evenodd" d="M149.453 60.5303L151.761 61.2983V65.5297L149.453 65.5315V60.5303Z" fill="#D8D8D8"/>
<path fill-rule="evenodd" clip-rule="evenodd" d="M149.454 12.0627H148.685V67.0699H149.454V12.0627ZM146.377 12.0637H144.838V67.0709H146.377V12.0637ZM154.839 12.0627H156.377V67.0699H154.839V12.0627ZM152.532 12.0627H151.763V67.0699H152.532V12.0627Z" fill="#F7F7F7"/>
</g>
<path fill-rule="evenodd" clip-rule="evenodd" d="M167.916 58.9918L156.376 58.9912V67.0698L167.916 63.2237V58.9918Z" fill="#D8D8D8"/>
<mask id="mask17_2_914" style="mask-type:alpha" maskUnits="userSpaceOnUse" x="156" y="58" width="12" height="10">
<path fill-rule="evenodd" clip-rule="evenodd" d="M167.916 58.9918L156.376 58.9912V67.0698L167.916 63.2237V58.9918Z" fill="white"/>
</mask>
<g mask="url(#mask17_2_914)">
<path fill-rule="evenodd" clip-rule="evenodd" d="M163.301 60.5302L160.993 61.2982V65.5295L163.301 65.5314V60.5302Z" fill="#989898"/>
</g>
<path fill-rule="evenodd" clip-rule="evenodd" d="M144.838 59.2389L156.378 63.0855V4.61633L144.838 59.2389Z" fill="#F7F7F7"/>
<mask id="mask18_2_914" style="mask-type:alpha" maskUnits="userSpaceOnUse" x="144" y="4" width="13" height="60">
<path fill-rule="evenodd" clip-rule="evenodd" d="M144.838 59.2389L156.378 63.0855V4.61633L144.838 59.2389Z" fill="white"/>
</mask>
<g mask="url(#mask18_2_914)">
<path fill-rule="evenodd" clip-rule="evenodd" d="M144.838 15.002L156.378 18.848V20.0026L144.838 16.1565V15.002Z" fill="#D8D8D8"/>
<path fill-rule="evenodd" clip-rule="evenodd" d="M144.838 17.3099L156.378 21.156V22.3106L144.838 18.4645V17.3099Z" fill="#D8D8D8"/>
<path fill-rule="evenodd" clip-rule="evenodd" d="M144.838 19.6182L156.378 23.4642V24.6188L144.838 20.7727V19.6182Z" fill="#D8D8D8"/>
<path fill-rule="evenodd" clip-rule="evenodd" d="M144.838 21.9258L156.378 25.7719V26.9264L144.838 23.0804V21.9258Z" fill="#D8D8D8"/>
<path fill-rule="evenodd" clip-rule="evenodd" d="M144.838 24.2338L156.378 28.0798V29.2344L144.838 25.3883V24.2338Z" fill="#D8D8D8"/>
<path fill-rule="evenodd" clip-rule="evenodd" d="M144.838 26.5419L156.378 30.388V31.5425L144.838 27.6964V26.5419Z" fill="#D8D8D8"/>
<path fill-rule="evenodd" clip-rule="evenodd" d="M144.838 28.8501L156.378 32.6962V33.8507L144.838 30.0047V28.8501Z" fill="#D8D8D8"/>
<path fill-rule="evenodd" clip-rule="evenodd" d="M144.838 31.1578L156.378 35.0039V36.1585L144.838 32.3124V31.1578Z" fill="#D8D8D8"/>
<path fill-rule="evenodd" clip-rule="evenodd" d="M144.838 33.4658L156.378 37.3119V38.4665L144.838 34.6204V33.4658Z" fill="#D8D8D8"/>
<path fill-rule="evenodd" clip-rule="evenodd" d="M144.838 35.7739L156.378 39.62V40.7746L144.838 36.9285V35.7739Z" fill="#D8D8D8"/>
<path fill-rule="evenodd" clip-rule="evenodd" d="M144.838 38.0817L156.378 41.9277V43.0823L144.838 39.2362V38.0817Z" fill="#D8D8D8"/>
<path fill-rule="evenodd" clip-rule="evenodd" d="M144.838 40.3896L156.378 44.2357V45.3903L144.838 41.5442V40.3896Z" fill="#D8D8D8"/>
<path fill-rule="evenodd" clip-rule="evenodd" d="M144.838 42.6979L156.378 46.544V47.6985L144.838 43.8524V42.6979Z" fill="#D8D8D8"/>
<path fill-rule="evenodd" clip-rule="evenodd" d="M144.838 45.006L156.378 48.8521V50.0066L144.838 46.1606V45.006Z" fill="#D8D8D8"/>
<path fill-rule="evenodd" clip-rule="evenodd" d="M144.838 47.314L156.378 51.16V52.3146L144.838 48.4685V47.314Z" fill="#D8D8D8"/>
<path fill-rule="evenodd" clip-rule="evenodd" d="M144.838 49.6224L156.378 53.4685V54.6231L144.838 50.777V49.6224Z" fill="#D8D8D8"/>
<path fill-rule="evenodd" clip-rule="evenodd" d="M144.838 51.9296L156.378 55.7756V56.9302L144.838 53.0841V51.9296Z" fill="#D8D8D8"/>
<path fill-rule="evenodd" clip-rule="evenodd" d="M144.838 54.2375L156.378 58.0836V59.2382L144.838 55.3921V54.2375Z" fill="#D8D8D8"/>
<path fill-rule="evenodd" clip-rule="evenodd" d="M154.84 62.7009L156.379 4.61633L146.378 60.0082L144.839 59.6235L156.379 4.61633V63.0855L154.84 62.7009Z" fill="#F7F7F7"/>
</g>
<path fill-rule="evenodd" clip-rule="evenodd" d="M167.919 59.2385L156.379 63.0852V4.61597L167.919 59.2385Z" fill="#D8D8D8"/>
<mask id="mask19_2_914" style="mask-type:alpha" maskUnits="userSpaceOnUse" x="156" y="4" width="12" height="60">
<path fill-rule="evenodd" clip-rule="evenodd" d="M167.919 59.2385L156.379 63.0852V4.61597L167.919 59.2385Z" fill="white"/>
</mask>
<g mask="url(#mask19_2_914)">
<path fill-rule="evenodd" clip-rule="evenodd" d="M167.918 15.0018L156.378 18.8479V20.0025L167.918 16.1564V15.0018Z" fill="#989898"/>
<path fill-rule="evenodd" clip-rule="evenodd" d="M167.918 17.3098L156.378 21.1559V22.3105L167.918 18.4644V17.3098Z" fill="#989898"/>
<path fill-rule="evenodd" clip-rule="evenodd" d="M167.918 19.6182L156.378 23.4642V24.6188L167.918 20.7727V19.6182Z" fill="#989898"/>
<path fill-rule="evenodd" clip-rule="evenodd" d="M167.918 21.9257L156.378 25.7717V26.9263L167.918 23.0802V21.9257Z" fill="#989898"/>
<path fill-rule="evenodd" clip-rule="evenodd" d="M167.918 24.2336L156.378 28.0797V29.2343L167.918 25.3882V24.2336Z" fill="#989898"/>
<path fill-rule="evenodd" clip-rule="evenodd" d="M167.918 26.5417L156.378 30.3878V31.5424L167.918 27.6963V26.5417Z" fill="#989898"/>
<path fill-rule="evenodd" clip-rule="evenodd" d="M167.918 28.85L156.378 32.6961V33.8506L167.918 30.0045V28.85Z" fill="#989898"/>
<path fill-rule="evenodd" clip-rule="evenodd" d="M167.918 31.1577L156.378 35.0038V36.1584L167.918 32.3123V31.1577Z" fill="#989898"/>
<path fill-rule="evenodd" clip-rule="evenodd" d="M167.918 33.4657L156.378 37.3118V38.4664L167.918 34.6203V33.4657Z" fill="#989898"/>
<path fill-rule="evenodd" clip-rule="evenodd" d="M167.918 35.7738L156.378 39.6199V40.7745L167.918 36.9284V35.7738Z" fill="#989898"/>
<path fill-rule="evenodd" clip-rule="evenodd" d="M167.918 38.0815L156.378 41.9276V43.0822L167.918 39.2361V38.0815Z" fill="#989898"/>
<path fill-rule="evenodd" clip-rule="evenodd" d="M167.918 40.3895L156.378 44.2356V45.3902L167.918 41.5441V40.3895Z" fill="#989898"/>
<path fill-rule="evenodd" clip-rule="evenodd" d="M167.918 42.6978L156.378 46.5438V47.6984L167.918 43.8523V42.6978Z" fill="#989898"/>
<path fill-rule="evenodd" clip-rule="evenodd" d="M167.918 45.0059L156.378 48.8519V50.0065L167.918 46.1604V45.0059Z" fill="#989898"/>
<path fill-rule="evenodd" clip-rule="evenodd" d="M167.918 47.3138L156.378 51.1599V52.3145L167.918 48.4684V47.3138Z" fill="#989898"/>
<path fill-rule="evenodd" clip-rule="evenodd" d="M167.918 49.6223L156.378 53.4684V54.623L167.918 50.7769V49.6223Z" fill="#989898"/>
<path fill-rule="evenodd" clip-rule="evenodd" d="M167.918 51.9294L156.378 55.7755V56.9301L167.918 53.084V51.9294Z" fill="#989898"/>
<path fill-rule="evenodd" clip-rule="evenodd" d="M167.918 54.2374L156.378 58.0835V59.2381L167.918 55.392V54.2374Z" fill="#989898"/>
<path fill-rule="evenodd" clip-rule="evenodd" d="M157.918 62.7005L156.379 4.61597L166.38 60.0078L167.919 59.6232L156.379 4.61597V63.0852L157.918 62.7005Z" fill="#D8D8D8"/>
</g>
<path fill-rule="evenodd" clip-rule="evenodd" d="M0 40.1259L9.23197 40.1254V60.1286L0 57.0518V40.1259Z" fill="#F7F7F7"/>
<mask id="mask20_2_914" style="mask-type:alpha" maskUnits="userSpaceOnUse" x="0" y="40" width="10" height="21">
<path fill-rule="evenodd" clip-rule="evenodd" d="M0 40.1259L9.23197 40.1254V60.1286L0 57.0518V40.1259Z" fill="white"/>
</mask>
<g mask="url(#mask20_2_914)">
<path fill-rule="evenodd" clip-rule="evenodd" d="M0 43.2029L11.54 47.049V48.9729L0 45.1268V43.2029Z" fill="#CBCBCB"/>
<path fill-rule="evenodd" clip-rule="evenodd" d="M0 45.511L11.54 49.3571V51.281L0 47.4349V45.511Z" fill="#CBCBCB"/>
<path fill-rule="evenodd" clip-rule="evenodd" d="M0 36.2791H1.53866V60.1283H0V36.2791ZM7.69217 36.2791H9.23083V60.1283H7.69217V36.2791ZM5.38543 36.2791H3.84677V60.1283H5.38543V36.2791Z" fill="#F7F7F7"/>
</g>
<path fill-rule="evenodd" clip-rule="evenodd" d="M3.46289 50.8965L5.77088 51.6646V56.6652L3.46289 55.8977V50.8965Z" fill="#CBCBCB"/>
<path fill-rule="evenodd" clip-rule="evenodd" d="M23.0801 38.588L9.23211 38.9721V60.1293L23.0801 55.5139V38.588Z" fill="#D8D8D8"/>
<mask id="mask21_2_914" style="mask-type:alpha" maskUnits="userSpaceOnUse" x="9" y="38" width="15" height="23">
<path fill-rule="evenodd" clip-rule="evenodd" d="M23.0801 38.588L9.23211 38.9721V60.1293L23.0801 55.5139V38.588Z" fill="white"/>
</mask>
<g mask="url(#mask21_2_914)">
<path fill-rule="evenodd" clip-rule="evenodd" d="M23.0801 41.6652L11.5401 45.5112V47.4351L23.0801 43.5891V41.6652Z" fill="#F7F7F7"/>
<path fill-rule="evenodd" clip-rule="evenodd" d="M23.0801 43.9729L11.5401 47.819V49.7429L23.0801 45.8968V43.9729Z" fill="#F7F7F7"/>
<path fill-rule="evenodd" clip-rule="evenodd" d="M23.0801 48.2042L11.5401 52.0503V54.3589L23.0801 50.5128V48.2042Z" fill="#F7F7F7"/>
<path fill-rule="evenodd" clip-rule="evenodd" d="M23.0801 50.897L11.5401 54.7431V57.0516L23.0801 53.2055V50.897Z" fill="#F7F7F7"/>
<path fill-rule="evenodd" clip-rule="evenodd" d="M15.0017 38.5881H17.3097V61.2834H15.0017V38.5881ZM9.23047 38.5884H12.3078V61.2836H9.23047V38.5884ZM23.0794 38.5881H20.0021V61.2834H23.0794V38.5881Z" fill="#D8D8D8"/>
</g>
<path fill-rule="evenodd" clip-rule="evenodd" d="M18.4638 33.5864L4.61588 38.2024L23.0798 38.5871L18.4638 33.5864ZM0 40.1261L4.61599 38.2027L23.0799 38.5874L9.23197 43.2034L0 40.1261Z" fill="#CBCBCB"/>
<path fill-rule="evenodd" clip-rule="evenodd" d="M0 40.1261V40.8954L9.23197 43.9727V43.2034L4.61599 38.2028L0 40.1261Z" fill="#F7F7F7"/>
<path fill-rule="evenodd" clip-rule="evenodd" d="M16.9258 35.8952L19.2338 35.1259V37.6262L16.9258 38.3955V35.8952Z" fill="#989898"/>
<path fill-rule="evenodd" clip-rule="evenodd" d="M16.9258 35.8949L15.7718 35.5103V37.0489L16.9258 38.3952V35.8949Z" fill="#CBCBCB"/>
<path fill-rule="evenodd" clip-rule="evenodd" d="M15.7715 35.5104L18.0795 34.7411L19.2335 35.1258L16.9255 35.8951L15.7715 35.5104Z" fill="#EBEBEB"/>
<path fill-rule="evenodd" clip-rule="evenodd" d="M0 59.3596V58.5902L1.154 58.2056V57.4362L2.30799 57.0516V56.2822L3.46199 55.8976L5.76998 56.6669V58.9749L2.30799 60.1289L0 59.3596Z" fill="#CBCBCB"/>
<mask id="mask22_2_914" style="mask-type:alpha" maskUnits="userSpaceOnUse" x="0" y="55" width="6" height="6">
<path fill-rule="evenodd" clip-rule="evenodd" d="M0 59.3596V58.5902L1.154 58.2056V57.4362L2.30799 57.0516V56.2822L3.46199 55.8976L5.76998 56.6669V58.9749L2.30799 60.1289L0 59.3596Z" fill="white"/>
</mask>
<g mask="url(#mask22_2_914)">
<path fill-rule="evenodd" clip-rule="evenodd" d="M2.30859 60.1284V59.359L3.46259 58.9744V58.205L4.61659 57.8204V57.051L5.77059 56.6664V60.1284H2.30859Z" fill="#CBCBCB"/>
<path fill-rule="evenodd" clip-rule="evenodd" d="M0 58.5903L2.30799 59.3591V60.129L0 59.3602V58.5903Z" fill="#F7F7F7"/>
<path fill-rule="evenodd" clip-rule="evenodd" d="M1.1543 57.4357L3.46229 58.2044V58.9743L1.1543 58.2056V57.4357Z" fill="#F7F7F7"/>
<path fill-rule="evenodd" clip-rule="evenodd" d="M2.30859 56.2819L4.61659 57.0506V57.8205L2.30859 57.0518V56.2819Z" fill="#F7F7F7"/>
</g>
<path fill-rule="evenodd" clip-rule="evenodd" d="M10.3867 43.5887L19.6187 43.5881V63.5913L10.3867 60.5146V43.5887Z" fill="#F7F7F7"/>
<mask id="mask23_2_914" style="mask-type:alpha" maskUnits="userSpaceOnUse" x="10" y="43" width="10" height="21">
<path fill-rule="evenodd" clip-rule="evenodd" d="M10.3867 43.5887L19.6187 43.5881V63.5913L10.3867 60.5146V43.5887Z" fill="white"/>
</mask>
<g mask="url(#mask23_2_914)">
<path fill-rule="evenodd" clip-rule="evenodd" d="M10.3867 46.6653L21.9267 50.5114V52.4353L10.3867 48.5892V46.6653Z" fill="#CBCBCB"/>
<path fill-rule="evenodd" clip-rule="evenodd" d="M10.3867 48.9735L21.9267 52.8196V54.7435L10.3867 50.8974V48.9735Z" fill="#CBCBCB"/>
<path fill-rule="evenodd" clip-rule="evenodd" d="M10.3867 39.7417H11.9254V63.591H10.3867V39.7417ZM18.0793 39.7417H19.6179V63.591H18.0793V39.7417ZM15.7706 39.7417H14.2319V63.591H15.7706V39.7417Z" fill="#F7F7F7"/>
</g>
<path fill-rule="evenodd" clip-rule="evenodd" d="M13.8496 54.3586L16.1576 55.1267V60.1274L13.8496 59.3599V54.3586Z" fill="#CBCBCB"/>
<path fill-rule="evenodd" clip-rule="evenodd" d="M33.4688 42.0496L19.6208 42.4337V63.5908L33.4688 58.9754V42.0496Z" fill="#D8D8D8"/>
<mask id="mask24_2_914" style="mask-type:alpha" maskUnits="userSpaceOnUse" x="19" y="42" width="15" height="22">
<path fill-rule="evenodd" clip-rule="evenodd" d="M33.4688 42.0496L19.6208 42.4337V63.5908L33.4688 58.9754V42.0496Z" fill="white"/>
</mask>
<g mask="url(#mask24_2_914)">
<path fill-rule="evenodd" clip-rule="evenodd" d="M33.4688 45.1267L21.9288 48.9728V50.8967L33.4688 47.0506V45.1267Z" fill="#F7F7F7"/>
<path fill-rule="evenodd" clip-rule="evenodd" d="M33.4688 47.4352L21.9288 51.2813V53.2052L33.4688 49.3591V47.4352Z" fill="#F7F7F7"/>
<path fill-rule="evenodd" clip-rule="evenodd" d="M33.4688 51.6659L21.9288 55.512V57.8205L33.4688 53.9745V51.6659Z" fill="#F7F7F7"/>
<path fill-rule="evenodd" clip-rule="evenodd" d="M33.4688 54.3585L21.9288 58.2046V60.5132L33.4688 56.6671V54.3585Z" fill="#F7F7F7"/>
<path fill-rule="evenodd" clip-rule="evenodd" d="M19.6191 42.0493H22.6965V64.7446H19.6191V42.0493ZM25.3867 42.0498H27.6947V64.7451H25.3867V42.0498ZM33.4662 42.0498H30.3889V64.7451H33.4662V42.0498Z" fill="#D8D8D8"/>
</g>
<path fill-rule="evenodd" clip-rule="evenodd" d="M33.4657 42.0497L19.6187 46.6654L10.3867 43.588L15.0027 41.6647L15.0037 41.6647L28.8507 37.0491L33.4664 42.0494L33.4667 42.0494L33.4664 42.0494L33.4667 42.0497L33.4657 42.0497Z" fill="#CBCBCB"/>
<path fill-rule="evenodd" clip-rule="evenodd" d="M10.3867 43.588V44.3573L19.6187 47.4347V46.6653L15.0027 41.6647L10.3867 43.588Z" fill="#F7F7F7"/>
<path fill-rule="evenodd" clip-rule="evenodd" d="M27.3105 39.3571L29.6185 38.5878V41.0881L27.3105 41.8574V39.3571Z" fill="#989898"/>
<path fill-rule="evenodd" clip-rule="evenodd" d="M27.3105 39.3573L26.1566 38.9727V40.5113L27.3105 41.8576V39.3573Z" fill="#CBCBCB"/>
<path fill-rule="evenodd" clip-rule="evenodd" d="M26.1582 38.9723L28.4662 38.203L29.6202 38.5877L27.3122 39.357L26.1582 38.9723Z" fill="#EBEBEB"/>
<path fill-rule="evenodd" clip-rule="evenodd" d="M10.3867 62.8215V62.0522L11.5407 61.6675V60.8982L12.6947 60.5135V59.7442L13.8487 59.3595L16.1567 60.1288V62.4368L12.6947 63.5908L10.3867 62.8215Z" fill="#CBCBCB"/>
<mask id="mask25_2_914" style="mask-type:alpha" maskUnits="userSpaceOnUse" x="10" y="59" width="7" height="5">
<path fill-rule="evenodd" clip-rule="evenodd" d="M10.3867 62.8215V62.0522L11.5407 61.6675V60.8982L12.6947 60.5135V59.7442L13.8487 59.3595L16.1567 60.1288V62.4368L12.6947 63.5908L10.3867 62.8215Z" fill="white"/>
</mask>
<g mask="url(#mask25_2_914)">
<path fill-rule="evenodd" clip-rule="evenodd" d="M12.6934 63.5905V62.8212L13.8474 62.4365V61.6672L15.0014 61.2825V60.5132L16.1554 60.1285V63.5905H12.6934Z" fill="#CBCBCB"/>
<path fill-rule="evenodd" clip-rule="evenodd" d="M10.3867 62.0521L12.6947 62.8209V63.5908L10.3867 62.822V62.0521Z" fill="#F7F7F7"/>
<path fill-rule="evenodd" clip-rule="evenodd" d="M11.5391 60.8976L13.8471 61.6663V62.4362L11.5391 61.6675V60.8976Z" fill="#F7F7F7"/>
<path fill-rule="evenodd" clip-rule="evenodd" d="M12.6934 59.7439L15.0014 60.5127V61.2826L12.6934 60.5138V59.7439Z" fill="#F7F7F7"/>
</g>
<path fill-rule="evenodd" clip-rule="evenodd" d="M20.7715 47.0495L30.0035 47.049V67.0521L20.7715 63.9754V47.0495Z" fill="#F7F7F7"/>
<mask id="mask26_2_914" style="mask-type:alpha" maskUnits="userSpaceOnUse" x="20" y="47" width="11" height="21">
<path fill-rule="evenodd" clip-rule="evenodd" d="M20.7715 47.0495L30.0035 47.049V67.0521L20.7715 63.9754V47.0495Z" fill="white"/>
</mask>
<g mask="url(#mask26_2_914)">
<path fill-rule="evenodd" clip-rule="evenodd" d="M20.7715 50.1267L32.3115 53.9728V55.8967L20.7715 52.0506V50.1267Z" fill="#CBCBCB"/>
<path fill-rule="evenodd" clip-rule="evenodd" d="M20.7715 52.4348L32.3115 56.2809V58.2048L20.7715 54.3587V52.4348Z" fill="#CBCBCB"/>
<path fill-rule="evenodd" clip-rule="evenodd" d="M28.4634 43.2029H30.0021V67.0521H28.4634V43.2029ZM20.7715 43.2034H22.3101V67.0526H20.7715V43.2034ZM26.1564 43.2029H24.6177V67.0521H26.1564V43.2029Z" fill="#F7F7F7"/>
</g>
<path fill-rule="evenodd" clip-rule="evenodd" d="M24.2324 57.8197L26.5404 58.5878V63.5884L24.2324 62.8209V57.8197Z" fill="#CBCBCB"/>
<path fill-rule="evenodd" clip-rule="evenodd" d="M43.8516 45.5116L30.0036 45.8957V67.0529L43.8516 62.4375V45.5116Z" fill="#D8D8D8"/>
<mask id="mask27_2_914" style="mask-type:alpha" maskUnits="userSpaceOnUse" x="30" y="45" width="14" height="23">
<path fill-rule="evenodd" clip-rule="evenodd" d="M43.8516 45.5116L30.0036 45.8957V67.0529L43.8516 62.4375V45.5116Z" fill="white"/>
</mask>
<g mask="url(#mask27_2_914)">
<path fill-rule="evenodd" clip-rule="evenodd" d="M43.8516 48.5894L32.3116 52.4354V54.3593L43.8516 50.5133V48.5894Z" fill="#989898"/>
<path fill-rule="evenodd" clip-rule="evenodd" d="M43.8516 50.8972L32.3116 54.7433V56.6672L43.8516 52.8211V50.8972Z" fill="#989898"/>
<path fill-rule="evenodd" clip-rule="evenodd" d="M43.8516 55.1279L32.3116 58.974V61.2826L43.8516 57.4365V55.1279Z" fill="#989898"/>
<path fill-rule="evenodd" clip-rule="evenodd" d="M43.8516 57.8206L32.3116 61.6666V63.9752L43.8516 60.1291V57.8206Z" fill="#989898"/>
<path fill-rule="evenodd" clip-rule="evenodd" d="M35.7747 45.5115H38.0827V68.2067H35.7747V45.5115ZM30.0059 45.5125H33.0832V68.2077H30.0059V45.5125ZM43.8534 45.5115H40.7761V68.2067H43.8534V45.5115Z" fill="#D8D8D8"/>
</g>
<path fill-rule="evenodd" clip-rule="evenodd" d="M43.8505 45.5109L30.0035 50.1265L20.7715 47.0492L25.3875 45.1259L25.3886 45.1259L39.2356 40.5103L43.8512 45.5106L43.8514 45.5106L43.8513 45.5106L43.8516 45.5109L43.8505 45.5109Z" fill="#CBCBCB"/>
<path fill-rule="evenodd" clip-rule="evenodd" d="M20.7715 47.0493V47.8186L30.0035 50.896V50.1266L25.3875 45.126L20.7715 47.0493Z" fill="#F7F7F7"/>
<path fill-rule="evenodd" clip-rule="evenodd" d="M37.6953 42.8182L40.0033 42.0488V44.5492L37.6953 45.3185V42.8182Z" fill="#989898"/>
<path fill-rule="evenodd" clip-rule="evenodd" d="M37.6953 42.8187L36.5413 42.4341V43.9727L37.6953 45.3191V42.8187Z" fill="#CBCBCB"/>
<path fill-rule="evenodd" clip-rule="evenodd" d="M36.5449 42.4339L38.8529 41.6646L40.0069 42.0492L37.6989 42.8185L36.5449 42.4339Z" fill="#EBEBEB"/>
<path fill-rule="evenodd" clip-rule="evenodd" d="M20.7715 66.283V65.5137L21.9255 65.129V64.3597L23.0795 63.975V63.2057L24.2335 62.821L26.5415 63.5904V65.8984L23.0795 67.0524L20.7715 66.283Z" fill="#CBCBCB"/>
<mask id="mask28_2_914" style="mask-type:alpha" maskUnits="userSpaceOnUse" x="20" y="62" width="7" height="6">
<path fill-rule="evenodd" clip-rule="evenodd" d="M20.7715 66.283V65.5137L21.9255 65.129V64.3597L23.0795 63.975V63.2057L24.2335 62.821L26.5415 63.5904V65.8984L23.0795 67.0524L20.7715 66.283Z" fill="white"/>
</mask>
<g mask="url(#mask28_2_914)">
<path fill-rule="evenodd" clip-rule="evenodd" d="M23.0801 67.0521V66.2827L24.2341 65.8981V65.1288L25.3881 64.7441V63.9748L26.5421 63.5901V67.0521H23.0801Z" fill="#CBCBCB"/>
<path fill-rule="evenodd" clip-rule="evenodd" d="M20.7715 65.5138L23.0795 66.2826V67.0525L20.7715 66.2837V65.5138Z" fill="#F7F7F7"/>
<path fill-rule="evenodd" clip-rule="evenodd" d="M21.9258 64.3597L24.2338 65.1285V65.8984L21.9258 65.1296V64.3597Z" fill="#F7F7F7"/>
<path fill-rule="evenodd" clip-rule="evenodd" d="M23.0801 63.2056L25.3881 63.9743V64.7442L23.0801 63.9755V63.2056Z" fill="#F7F7F7"/>
</g>
<path fill-rule="evenodd" clip-rule="evenodd" d="M74.8974 23.7964H52.0586V65.1425H52.0587C52.0587 65.1426 52.0587 65.1427 52.0587 65.1428C52.0587 66.6353 57.1713 67.8451 63.4781 67.8451C69.7848 67.8451 74.8975 66.6353 74.8975 65.1428C74.8975 65.1391 74.8975 65.1355 74.8974 65.1319V23.7964Z" fill="#F7F7F7"/>
<mask id="mask29_2_914" style="mask-type:alpha" maskUnits="userSpaceOnUse" x="52" y="23" width="23" height="45">
<path fill-rule="evenodd" clip-rule="evenodd" d="M74.8974 23.7964H52.0586V65.1425H52.0587C52.0587 65.1426 52.0587 65.1427 52.0587 65.1428C52.0587 66.6353 57.1713 67.8451 63.4781 67.8451C69.7848 67.8451 74.8975 66.6353 74.8975 65.1428C74.8975 65.1391 74.8975 65.1355 74.8974 65.1319V23.7964Z" fill="white"/>
</mask>
<g mask="url(#mask29_2_914)">
<path fill-rule="evenodd" clip-rule="evenodd" d="M60.4336 23.5264H74.8982V67.8451H60.4336V23.5264Z" fill="#EBEBEB"/>
<path fill-rule="evenodd" clip-rule="evenodd" d="M66.5234 23.5264H74.8977V67.8451H66.5234V23.5264Z" fill="#D8D8D8"/>
<path fill-rule="evenodd" clip-rule="evenodd" d="M69.5684 23.5264H73.3748V67.8451H69.5684V23.5264Z" fill="#CBCBCB"/>
<mask id="mask30_2_914" style="mask-type:alpha" maskUnits="userSpaceOnUse" x="66" y="22" width="9" height="32">
<path fill-rule="evenodd" clip-rule="evenodd" d="M66.1445 22.7153H74.8994V53.7925H66.1445V22.7153Z" fill="white"/>
</mask>
<g mask="url(#mask30_2_914)">
<path fill-rule="evenodd" clip-rule="evenodd" d="M74.8974 24.8881C74.8725 26.3755 69.7694 27.5795 63.4781 27.5795C57.1717 27.5795 52.0593 26.3698 52.0587 24.8774H52.0586V25.9584H52.0587L52.0587 25.9585C52.0587 27.4509 57.1713 28.6608 63.4781 28.6608C69.7848 28.6608 74.8975 27.4509 74.8975 25.9585L74.8974 25.9475V24.8881Z" fill="#8C8C8C"/>
<path fill-rule="evenodd" clip-rule="evenodd" d="M74.8974 27.0505C74.8725 28.5379 69.7694 29.7419 63.4781 29.7419C57.1714 29.7419 52.0588 28.532 52.0587 27.0396H52.0586V28.1205H52.0587L52.0587 28.1206C52.0587 29.613 57.1713 30.8229 63.4781 30.8229C69.7848 30.8229 74.8975 29.613 74.8975 28.1206L74.8974 28.1096V27.0505Z" fill="#8C8C8C"/>
</g>
<mask id="mask31_2_914" style="mask-type:alpha" maskUnits="userSpaceOnUse" x="52" y="22" width="15" height="32">
<path fill-rule="evenodd" clip-rule="evenodd" d="M66.1425 22.7153H52.0586V53.7925H66.1425V22.7153Z" fill="white"/>
</mask>
<g mask="url(#mask31_2_914)">
<path fill-rule="evenodd" clip-rule="evenodd" d="M74.8974 24.8964C74.8544 26.3801 69.7583 27.5798 63.4783 27.5798C57.1722 27.5798 52.0601 26.3702 52.0589 24.8779H52.0586V25.9589H52.0589C52.0592 27.4513 57.1717 28.6611 63.4783 28.6611C69.785 28.6611 74.8977 27.4512 74.8977 25.9587L74.8974 25.9398V24.8964Z" fill="#CBCBCB"/>
<path fill-rule="evenodd" clip-rule="evenodd" d="M74.8974 27.0585C74.8544 28.5422 69.7583 29.7419 63.4783 29.7419C57.1716 29.7419 52.0589 28.532 52.0589 27.0396H52.0586V28.1205H52.0587L52.0587 28.1206C52.0587 29.613 57.1714 30.8229 63.4781 30.8229C69.7849 30.8229 74.8975 29.613 74.8975 28.1206L74.8974 28.1079V27.0585Z" fill="#CBCBCB"/>
</g>
<mask id="mask32_2_914" style="mask-type:alpha" maskUnits="userSpaceOnUse" x="66" y="27" width="9" height="32">
<path fill-rule="evenodd" clip-rule="evenodd" d="M66.1445 27.0393H74.8994V58.1165H66.1445V27.0393Z" fill="white"/>
</mask>
<g mask="url(#mask32_2_914)">
<path fill-rule="evenodd" clip-rule="evenodd" d="M74.8974 29.2133C74.8687 30.6999 69.7671 31.903 63.4781 31.903C57.1714 31.903 52.0588 30.6931 52.0587 29.2007H52.0586V30.2816H52.0587L52.0587 30.2817C52.0587 31.7742 57.1713 32.9841 63.4781 32.9841C69.7848 32.9841 74.8975 31.7742 74.8975 30.2817L74.8974 30.2728V29.2133Z" fill="#8C8C8C"/>
<path fill-rule="evenodd" clip-rule="evenodd" d="M74.8974 31.3759C74.8687 32.8625 69.7671 34.0656 63.4781 34.0656C57.1714 34.0656 52.0587 32.8557 52.0587 31.3632C52.0587 31.3632 52.0587 31.3631 52.0587 31.363H52.0586V32.444H52.0587C52.059 33.9364 57.1715 35.1462 63.4781 35.1462C69.7848 35.1462 74.8975 33.9363 74.8975 32.4438L74.8974 32.4349V31.3759Z" fill="#8C8C8C"/>
</g>
<mask id="mask33_2_914" style="mask-type:alpha" maskUnits="userSpaceOnUse" x="52" y="27" width="15" height="32">
<path fill-rule="evenodd" clip-rule="evenodd" d="M66.1425 27.0393H52.0586V58.1165H66.1425V27.0393Z" fill="white"/>
</mask>
<g mask="url(#mask33_2_914)">
<path fill-rule="evenodd" clip-rule="evenodd" d="M74.8974 29.2196C74.8544 30.7033 69.7583 31.903 63.4783 31.903C57.1716 31.903 52.0589 30.6931 52.0589 29.2007H52.0586V30.2816H52.0589L52.0589 30.2817C52.0589 31.7742 57.1715 32.9841 63.4783 32.9841C69.785 32.9841 74.8977 31.7742 74.8977 30.2817L74.8974 30.2628V29.2196Z" fill="#CBCBCB"/>
<path fill-rule="evenodd" clip-rule="evenodd" d="M74.8974 31.3811C74.8568 32.8654 69.7598 34.0656 63.4782 34.0656C57.1715 34.0656 52.0588 32.8557 52.0588 31.3632C52.0588 31.3632 52.0588 31.3631 52.0588 31.363H52.0586V32.444H52.0589C52.0593 33.9364 57.1718 35.1462 63.4783 35.1462C69.7851 35.1462 74.8977 33.9363 74.8977 32.4438C74.8977 32.4368 74.8976 32.4298 74.8974 32.4229V31.3811Z" fill="#CBCBCB"/>
</g>
<mask id="mask34_2_914" style="mask-type:alpha" maskUnits="userSpaceOnUse" x="66" y="31" width="9" height="32">
<path fill-rule="evenodd" clip-rule="evenodd" d="M66.1445 31.3633H74.8994V62.4404H66.1445V31.3633Z" fill="white"/>
</mask>
<g mask="url(#mask34_2_914)">
<path fill-rule="evenodd" clip-rule="evenodd" d="M74.8974 33.5375C74.8687 35.0242 69.7671 36.2272 63.4781 36.2272C57.1714 36.2272 52.0588 35.0174 52.0587 33.5249H52.0586V34.6058H52.0587L52.0587 34.6059C52.0587 36.0984 57.1713 37.3083 63.4781 37.3083C69.7848 37.3083 74.8975 36.0984 74.8975 34.6059L74.8974 34.597V33.5375Z" fill="#8C8C8C"/>
<path fill-rule="evenodd" clip-rule="evenodd" d="M74.8974 35.6994C74.8687 37.186 69.7671 38.3891 63.4781 38.3891C57.1717 38.3891 52.0593 37.1794 52.0587 35.687H52.0586V36.768H52.0587L52.0587 36.768C52.0587 38.2605 57.1713 39.4704 63.4781 39.4704C69.7848 39.4704 74.8975 38.2605 74.8975 36.768L74.8974 36.7591V35.6994Z" fill="#8C8C8C"/>
</g>
<mask id="mask35_2_914" style="mask-type:alpha" maskUnits="userSpaceOnUse" x="52" y="31" width="15" height="32">
<path fill-rule="evenodd" clip-rule="evenodd" d="M66.1425 31.3633H52.0586V62.4404H66.1425V31.3633Z" fill="white"/>
</mask>
<g mask="url(#mask35_2_914)">
<path fill-rule="evenodd" clip-rule="evenodd" d="M74.8974 33.5438C74.8544 35.0276 69.7583 36.2272 63.4783 36.2272C57.1716 36.2272 52.0589 35.0174 52.0589 33.5249H52.0586V34.6058H52.0589L52.0589 34.6059C52.0589 36.0984 57.1715 37.3083 63.4783 37.3083C69.785 37.3083 74.8977 36.0984 74.8977 34.6059L74.8974 34.587V33.5438Z" fill="#CBCBCB"/>
<path fill-rule="evenodd" clip-rule="evenodd" d="M74.8974 35.7054C74.8544 37.1892 69.7583 38.3889 63.4783 38.3889C57.1722 38.3889 52.0601 37.1792 52.0589 35.687H52.0586V36.768H52.0587L52.0587 36.768C52.0587 38.2605 57.1714 39.4704 63.4781 39.4704C69.7849 39.4704 74.8975 38.2605 74.8975 36.768L74.8974 36.7554V35.7054Z" fill="#CBCBCB"/>
</g>
<mask id="mask36_2_914" style="mask-type:alpha" maskUnits="userSpaceOnUse" x="66" y="35" width="9" height="32">
<path fill-rule="evenodd" clip-rule="evenodd" d="M66.1445 35.6868H74.8994V66.7639H66.1445V35.6868Z" fill="white"/>
</mask>
<g mask="url(#mask36_2_914)">
<path fill-rule="evenodd" clip-rule="evenodd" d="M74.8974 37.8607C74.8687 39.3474 69.7671 40.5505 63.4781 40.5505C57.1717 40.5505 52.0593 39.3407 52.0587 37.8484H52.0586V38.9293H52.0587C52.059 40.4217 57.1715 41.6315 63.4781 41.6315C69.7848 41.6315 74.8975 40.4216 74.8975 38.9292L74.8974 38.9202V37.8607Z" fill="#8C8C8C"/>
<path fill-rule="evenodd" clip-rule="evenodd" d="M74.8974 40.0231C74.8687 41.5098 69.7671 42.7128 63.4781 42.7128C57.1717 42.7128 52.0593 41.5031 52.0587 40.0107H52.0586V41.0917H52.0587C52.0596 42.584 57.1719 43.7936 63.4781 43.7936C69.7848 43.7936 74.8975 42.5837 74.8975 41.0913L74.8974 41.0823V40.0231Z" fill="#8C8C8C"/>
</g>
<mask id="mask37_2_914" style="mask-type:alpha" maskUnits="userSpaceOnUse" x="52" y="35" width="15" height="32">
<path fill-rule="evenodd" clip-rule="evenodd" d="M66.1425 35.6868H52.0586V66.7639H66.1425V35.6868Z" fill="white"/>
</mask>
<g mask="url(#mask37_2_914)">
<path fill-rule="evenodd" clip-rule="evenodd" d="M74.8974 37.8671C74.8544 39.3508 69.7583 40.5505 63.4783 40.5505C57.1719 40.5505 52.0595 39.3407 52.0589 37.8484H52.0586V38.9293H52.0587C52.0591 40.4217 57.1716 41.6315 63.4781 41.6315C69.7849 41.6315 74.8975 40.4216 74.8975 38.9292L74.8974 38.9165V37.8671Z" fill="#CBCBCB"/>
<path fill-rule="evenodd" clip-rule="evenodd" d="M74.8974 40.0294C74.8544 41.5132 69.7583 42.7128 63.4783 42.7128C57.1719 42.7128 52.0595 41.5031 52.0589 40.0107H52.0586V41.0917H52.0587C52.0596 42.584 57.1719 43.7936 63.4781 43.7936C69.7849 43.7936 74.8975 42.5837 74.8975 41.0913L74.8974 41.0786V40.0294Z" fill="#CBCBCB"/>
</g>
<mask id="mask38_2_914" style="mask-type:alpha" maskUnits="userSpaceOnUse" x="66" y="40" width="9" height="32">
<path fill-rule="evenodd" clip-rule="evenodd" d="M66.1445 40.0107H74.8994V71.0879H66.1445V40.0107Z" fill="white"/>
</mask>
<g mask="url(#mask38_2_914)">
<path fill-rule="evenodd" clip-rule="evenodd" d="M74.8974 42.1854C74.8687 43.6721 69.7671 44.8752 63.4781 44.8752C57.1714 44.8752 52.0587 43.6653 52.0587 42.1728C52.0587 42.1727 52.0587 42.1727 52.0587 42.1726H52.0586V43.2536H52.0587C52.059 44.7459 57.1715 45.9557 63.4781 45.9557C69.7848 45.9557 74.8975 44.7459 74.8975 43.2534L74.8974 43.2445V42.1854Z" fill="#8C8C8C"/>
<path fill-rule="evenodd" clip-rule="evenodd" d="M74.8974 44.3466C74.8687 45.8332 69.7671 47.0363 63.4781 47.0363C57.1717 47.0363 52.0593 45.8266 52.0587 44.3342H52.0586V45.4152H52.0587C52.059 46.9076 57.1715 48.1174 63.4781 48.1174C69.7848 48.1174 74.8975 46.9075 74.8975 45.415L74.8974 45.4061V44.3466Z" fill="#8C8C8C"/>
</g>
<mask id="mask39_2_914" style="mask-type:alpha" maskUnits="userSpaceOnUse" x="52" y="40" width="15" height="32">
<path fill-rule="evenodd" clip-rule="evenodd" d="M66.1425 40.0107H52.0586V71.0879H66.1425V40.0107Z" fill="white"/>
</mask>
<g mask="url(#mask39_2_914)">
<path fill-rule="evenodd" clip-rule="evenodd" d="M74.8974 42.1915C74.8544 43.6753 69.7583 44.8749 63.4783 44.8749C57.1716 44.8749 52.0589 43.6651 52.0589 42.1726H52.0586V43.2536H52.0587C52.0591 44.7459 57.1716 45.9557 63.4781 45.9557C69.7849 45.9557 74.8975 44.7459 74.8975 43.2534L74.8974 43.2408V42.1915Z" fill="#CBCBCB"/>
<path fill-rule="evenodd" clip-rule="evenodd" d="M74.8974 44.3529C74.8544 45.8366 69.7583 47.0363 63.4783 47.0363C57.1719 47.0363 52.0595 45.8266 52.0589 44.3342H52.0586V45.4152H52.0589C52.0592 46.9076 57.1717 48.1174 63.4783 48.1174C69.785 48.1174 74.8977 46.9075 74.8977 45.415L74.8974 45.3961V44.3529Z" fill="#CBCBCB"/>
</g>
<mask id="mask40_2_914" style="mask-type:alpha" maskUnits="userSpaceOnUse" x="66" y="44" width="9" height="32">
<path fill-rule="evenodd" clip-rule="evenodd" d="M66.1445 44.3347H74.8994V75.4119H66.1445V44.3347Z" fill="white"/>
</mask>
<g mask="url(#mask40_2_914)">
<path fill-rule="evenodd" clip-rule="evenodd" d="M74.8974 46.5089C74.8687 47.9956 69.7671 49.1987 63.4781 49.1987C57.1714 49.1987 52.0587 47.9888 52.0587 46.4963C52.0587 46.4962 52.0587 46.4962 52.0587 46.4961H52.0586V47.577H52.0587L52.0587 47.5776C52.0587 49.0701 57.1713 50.28 63.4781 50.28C69.7848 50.28 74.8975 49.0701 74.8975 47.5776L74.8974 47.5687V46.5089Z" fill="#8C8C8C"/>
<path fill-rule="evenodd" clip-rule="evenodd" d="M74.8974 48.671C74.8687 50.1577 69.7671 51.3608 63.4781 51.3608C57.1714 51.3608 52.0587 50.1509 52.0587 48.6584C52.0587 48.6583 52.0587 48.6581 52.0587 48.658H52.0586V49.7389H52.0587L52.0587 49.7395C52.0587 51.2319 57.1713 52.4418 63.4781 52.4418C69.7848 52.4418 74.8975 51.2319 74.8975 49.7395L74.8974 49.7305V48.671Z" fill="#8C8C8C"/>
</g>
<mask id="mask41_2_914" style="mask-type:alpha" maskUnits="userSpaceOnUse" x="52" y="44" width="15" height="32">
<path fill-rule="evenodd" clip-rule="evenodd" d="M66.1425 44.3347H52.0586V75.4119H66.1425V44.3347Z" fill="white"/>
</mask>
<g mask="url(#mask41_2_914)">
<path fill-rule="evenodd" clip-rule="evenodd" d="M74.8974 46.5152C74.8544 47.999 69.7583 49.1987 63.4783 49.1987C57.1715 49.1987 52.0589 47.9888 52.0589 46.4963C52.0589 46.4962 52.0589 46.4962 52.0589 46.4961H52.0586V47.577H52.0589L52.0589 47.5776C52.0589 49.0701 57.1715 50.28 63.4783 50.28C69.785 50.28 74.8977 49.0701 74.8977 47.5776L74.8974 47.5587V46.5152Z" fill="#CBCBCB"/>
<path fill-rule="evenodd" clip-rule="evenodd" d="M74.8974 48.6774C74.8544 50.1611 69.7583 51.3608 63.4783 51.3608C57.1715 51.3608 52.0589 50.1509 52.0589 48.6584C52.0589 48.6583 52.0589 48.6581 52.0589 48.658H52.0586V49.7389H52.0587L52.0587 49.7395C52.0587 51.2319 57.1714 52.4418 63.4781 52.4418C69.7849 52.4418 74.8975 51.2319 74.8975 49.7395L74.8974 49.7268V48.6774Z" fill="#CBCBCB"/>
</g>
<mask id="mask42_2_914" style="mask-type:alpha" maskUnits="userSpaceOnUse" x="66" y="48" width="9" height="32">
<path fill-rule="evenodd" clip-rule="evenodd" d="M66.1445 48.6587H74.8994V79.7358H66.1445V48.6587Z" fill="white"/>
</mask>
<g mask="url(#mask42_2_914)">
<path fill-rule="evenodd" clip-rule="evenodd" d="M74.8974 50.8324C74.8687 52.3191 69.7671 53.5222 63.4781 53.5222C57.1714 53.5222 52.0588 52.3123 52.0587 50.8198H52.0586V51.9008H52.0587C52.0596 53.3931 57.1719 54.6027 63.4781 54.6027C69.7848 54.6027 74.8975 53.3928 74.8975 51.9004L74.8974 51.8914V50.8324Z" fill="#8C8C8C"/>
<path fill-rule="evenodd" clip-rule="evenodd" d="M74.8974 52.9953C74.8687 54.4819 69.7671 55.685 63.4781 55.685C57.1714 55.685 52.0587 54.4751 52.0587 52.9826C52.0587 52.9824 52.0587 52.9822 52.0587 52.9819H52.0586V54.0629H52.0587C52.059 55.5553 57.1715 56.7651 63.4781 56.7651C69.7848 56.7651 74.8975 55.5552 74.8975 54.0627L74.8974 54.0538V52.9953Z" fill="#8C8C8C"/>
</g>
<mask id="mask43_2_914" style="mask-type:alpha" maskUnits="userSpaceOnUse" x="52" y="48" width="15" height="32">
<path fill-rule="evenodd" clip-rule="evenodd" d="M66.1425 48.6587H52.0586V79.7358H66.1425V48.6587Z" fill="white"/>
</mask>
<g mask="url(#mask43_2_914)">
<path fill-rule="evenodd" clip-rule="evenodd" d="M74.8974 50.8385C74.8544 52.3222 69.7583 53.5219 63.4783 53.5219C57.1715 53.5219 52.0589 52.312 52.0589 50.8195C52.0589 50.8194 52.0589 50.8192 52.0589 50.8191H52.0586V51.9H52.0589C52.0592 53.3924 57.1717 54.6022 63.4783 54.6022C69.785 54.6022 74.8977 53.3923 74.8977 51.8999L74.8974 51.8809V50.8385Z" fill="#CBCBCB"/>
<path fill-rule="evenodd" clip-rule="evenodd" d="M74.8974 53.0016C74.8544 54.4853 69.7583 55.685 63.4783 55.685C57.1715 55.685 52.0589 54.4751 52.0589 52.9826C52.0589 52.9824 52.0589 52.9822 52.0589 52.9819H52.0586V54.0629H52.0587C52.0591 55.5553 57.1716 56.7651 63.4781 56.7651C69.7849 56.7651 74.8975 55.5552 74.8975 54.0627L74.8974 54.0501V53.0016Z" fill="#CBCBCB"/>
</g>
<mask id="mask44_2_914" style="mask-type:alpha" maskUnits="userSpaceOnUse" x="66" y="52" width="9" height="33">
<path fill-rule="evenodd" clip-rule="evenodd" d="M66.1445 52.9822H74.8994V84.0593H66.1445V52.9822Z" fill="white"/>
</mask>
<g mask="url(#mask44_2_914)">
<path fill-rule="evenodd" clip-rule="evenodd" d="M74.8974 55.1576C74.8687 56.6443 69.7671 57.8473 63.4781 57.8473C57.1714 57.8473 52.0588 56.6375 52.0587 55.145H52.0586V56.226H52.0587C52.0596 57.7182 57.1719 58.9279 63.4781 58.9279C69.7848 58.9279 74.8975 57.718 74.8975 56.2256L74.8974 56.2166V55.1576Z" fill="#8C8C8C"/>
<path fill-rule="evenodd" clip-rule="evenodd" d="M74.8974 57.3185C74.8687 58.8052 69.7671 60.0082 63.4781 60.0082C57.1714 60.0082 52.0588 58.7984 52.0587 57.3059H52.0586V58.3868H52.0587C52.059 59.8792 57.1715 61.089 63.4781 61.089C69.7848 61.089 74.8975 59.8792 74.8975 58.3867L74.8974 58.3778V57.3185Z" fill="#8C8C8C"/>
</g>
<mask id="mask45_2_914" style="mask-type:alpha" maskUnits="userSpaceOnUse" x="52" y="52" width="15" height="33">
<path fill-rule="evenodd" clip-rule="evenodd" d="M66.1425 52.9822H52.0586V84.0593H66.1425V52.9822Z" fill="white"/>
</mask>
<g mask="url(#mask45_2_914)">
<path fill-rule="evenodd" clip-rule="evenodd" d="M74.8974 55.1639C74.8544 56.6477 69.7583 57.8473 63.4783 57.8473C57.1716 57.8473 52.0589 56.6375 52.0589 55.145H52.0586V56.226H52.0587C52.0597 57.7182 57.1719 58.9279 63.4781 58.9279C69.7849 58.9279 74.8975 57.718 74.8975 56.2256L74.8974 56.2129V55.1639Z" fill="#CBCBCB"/>
<path fill-rule="evenodd" clip-rule="evenodd" d="M74.8974 57.3248C74.8544 58.8086 69.7583 60.0082 63.4783 60.0082C57.1716 60.0082 52.0589 58.7984 52.0589 57.3059H52.0586V58.3868H52.0587C52.0591 59.8792 57.1716 61.089 63.4781 61.089C69.7849 61.089 74.8975 59.8792 74.8975 58.3867L74.8974 58.3741V57.3248Z" fill="#CBCBCB"/>
</g>
<mask id="mask46_2_914" style="mask-type:alpha" maskUnits="userSpaceOnUse" x="66" y="57" width="9" height="32">
<path fill-rule="evenodd" clip-rule="evenodd" d="M66.1445 57.3057H74.8994V88.3828H66.1445V57.3057Z" fill="white"/>
</mask>
<g mask="url(#mask46_2_914)">
<path fill-rule="evenodd" clip-rule="evenodd" d="M74.8974 59.4789C74.8725 60.9664 69.7694 62.1703 63.4781 62.1703C57.1713 62.1703 52.0587 60.9605 52.0587 59.468C52.0587 59.4677 52.0587 59.4674 52.0587 59.467H52.0586V60.548H52.0587L52.0587 60.5481C52.0587 62.0405 57.1713 63.2504 63.4781 63.2504C69.7848 63.2504 74.8975 62.0405 74.8975 60.5481L74.8974 60.5371V59.4789Z" fill="#8C8C8C"/>
</g>
<mask id="mask47_2_914" style="mask-type:alpha" maskUnits="userSpaceOnUse" x="52" y="57" width="15" height="32">
<path fill-rule="evenodd" clip-rule="evenodd" d="M66.1425 57.3057H52.0586V88.3828H66.1425V57.3057Z" fill="white"/>
</mask>
<g mask="url(#mask47_2_914)">
<path fill-rule="evenodd" clip-rule="evenodd" d="M74.8974 59.4869C74.8544 60.9707 69.7583 62.1703 63.4783 62.1703C57.1715 62.1703 52.0589 60.9605 52.0589 59.468C52.0589 59.4677 52.0589 59.4674 52.0589 59.467H52.0586V60.548H52.0587L52.0587 60.5481C52.0587 62.0405 57.1714 63.2504 63.4781 63.2504C69.7849 63.2504 74.8975 62.0405 74.8975 60.5481L74.8974 60.5354V59.4869Z" fill="#CBCBCB"/>
</g>
<path fill-rule="evenodd" clip-rule="evenodd" d="M52.0586 23.5264H52.4392V67.8451H52.0586V23.5264Z" fill="#F7F7F7"/>
<path fill-rule="evenodd" clip-rule="evenodd" d="M55.1055 23.5264H55.8668V67.8451H55.1055V23.5264Z" fill="#F7F7F7"/>
<path fill-rule="evenodd" clip-rule="evenodd" d="M60.0527 23.5264H60.4334V67.8451H60.0527V23.5264Z" fill="#F7F7F7"/>
<path fill-rule="evenodd" clip-rule="evenodd" d="M60.4336 23.5264H60.8142V67.8451H60.4336V23.5264Z" fill="#EBEBEB"/>
<path fill-rule="evenodd" clip-rule="evenodd" d="M66.1445 23.5264H66.5252V67.8451H66.1445V23.5264Z" fill="#EBEBEB"/>
<path fill-rule="evenodd" clip-rule="evenodd" d="M66.5234 23.5264H66.9041V67.8451H66.5234V23.5264Z" fill="#D8D8D8"/>
<path fill-rule="evenodd" clip-rule="evenodd" d="M71.0918 23.5264H71.8531V67.8451H71.0918V23.5264Z" fill="#CBCBCB"/>
<path fill-rule="evenodd" clip-rule="evenodd" d="M74.5176 23.5264H74.8982V67.8451H74.5176V23.5264Z" fill="#D8D8D8"/>
<path fill-rule="evenodd" clip-rule="evenodd" d="M57.0098 64.3318L59.2936 64.6011V67.844L57.0098 67.8453V64.3318Z" fill="#CBCBCB"/>
</g>
<path fill-rule="evenodd" clip-rule="evenodd" d="M63.478 26.2287C69.7848 26.2287 74.8974 25.0188 74.8974 23.5263C74.8974 22.0339 69.7848 20.824 63.478 20.824C57.1712 20.824 52.0586 22.0339 52.0586 23.5263C52.0586 25.0188 57.1712 26.2287 63.478 26.2287Z" fill="#EBEBEB"/>
<path fill-rule="evenodd" clip-rule="evenodd" d="M63.4784 25.6885C69.3647 25.6885 74.1365 24.7206 74.1365 23.5266C74.1365 22.3327 69.3647 21.3647 63.4784 21.3647C57.5921 21.3647 52.8203 22.3327 52.8203 23.5266C52.8203 24.7206 57.5921 25.6885 63.4784 25.6885Z" fill="#CBCBCB"/>
<mask id="mask48_2_914" style="mask-type:alpha" maskUnits="userSpaceOnUse" x="52" y="21" width="23" height="5">
<path fill-rule="evenodd" clip-rule="evenodd" d="M63.4784 25.6885C69.3647 25.6885 74.1365 24.7206 74.1365 23.5266C74.1365 22.3327 69.3647 21.3647 63.4784 21.3647C57.5921 21.3647 52.8203 22.3327 52.8203 23.5266C52.8203 24.7206 57.5921 25.6885 63.4784 25.6885Z" fill="white"/>
</mask>
<g mask="url(#mask48_2_914)">
<path fill-rule="evenodd" clip-rule="evenodd" d="M61.1934 20.824H52.8191V26.2287H61.1934V20.824Z" fill="#989898"/>
<path fill-rule="evenodd" clip-rule="evenodd" d="M63.4784 26.4988C69.3647 26.4988 74.1365 25.5309 74.1365 24.3369C74.1365 23.143 69.3647 22.175 63.4784 22.175C57.5921 22.175 52.8203 23.143 52.8203 24.3369C52.8203 25.5309 57.5921 26.4988 63.4784 26.4988Z" fill="#D8D8D8"/>
</g>
</svg>
