<svg width="89" height="68" viewBox="0 0 89 68" fill="none" xmlns="http://www.w3.org/2000/svg">
<path fill-rule="evenodd" clip-rule="evenodd" d="M0.207031 13.2099L18.8569 13.2087V53.6179L0.207031 47.4024V13.2099Z" fill="#F7F7F7"/>
<mask id="mask0_2_801" style="mask-type:alpha" maskUnits="userSpaceOnUse" x="0" y="13" width="19" height="41">
<path fill-rule="evenodd" clip-rule="evenodd" d="M0.207031 13.2099L18.8569 13.2087V53.6179L0.207031 47.4024V13.2099Z" fill="white"/>
</mask>
<g mask="url(#mask0_2_801)">
<path fill-rule="evenodd" clip-rule="evenodd" d="M0.207031 19.4296L23.5193 27.1992V31.0857L0.207031 23.3161V19.4296Z" fill="#CBCBCB"/>
<path fill-rule="evenodd" clip-rule="evenodd" d="M0.207031 24.094L23.5193 31.8636V35.7501L0.207031 27.9805V24.094Z" fill="#CBCBCB"/>
<path fill-rule="evenodd" clip-rule="evenodd" d="M15.7435 5.43848H18.8518V53.6172H15.7435V5.43848ZM0.207031 5.43872H3.31534V53.6174H0.207031V5.43872ZM11.0855 5.43848H7.97717V53.6172H11.0855V5.43848Z" fill="#F7F7F7"/>
</g>
<path fill-rule="evenodd" clip-rule="evenodd" d="M7.20117 34.9688L11.8636 36.5204V46.6223L7.20117 45.0719V34.9688Z" fill="#CBCBCB"/>
<path fill-rule="evenodd" clip-rule="evenodd" d="M46.8262 10.105L18.8514 10.8809V53.6212L46.8262 44.2975V10.105Z" fill="#D8D8D8"/>
<mask id="mask1_2_801" style="mask-type:alpha" maskUnits="userSpaceOnUse" x="18" y="10" width="29" height="44">
<path fill-rule="evenodd" clip-rule="evenodd" d="M46.8262 10.105L18.8514 10.8809V53.6212L46.8262 44.2975V10.105Z" fill="white"/>
</mask>
<g mask="url(#mask1_2_801)">
<path fill-rule="evenodd" clip-rule="evenodd" d="M46.8262 16.3223L23.5139 24.0919V27.9784L46.8262 20.2088V16.3223Z" fill="#F7F7F7"/>
<path fill-rule="evenodd" clip-rule="evenodd" d="M46.8262 20.9814L23.5139 28.751V32.6376L46.8262 24.868V20.9814Z" fill="#F7F7F7"/>
<path fill-rule="evenodd" clip-rule="evenodd" d="M46.8262 29.5283L23.5139 37.2979V41.9615L46.8262 34.1919V29.5283Z" fill="#F7F7F7"/>
<path fill-rule="evenodd" clip-rule="evenodd" d="M46.8262 34.9716L23.5139 42.7412V47.4048L46.8262 39.6352V34.9716Z" fill="#F7F7F7"/>
<path fill-rule="evenodd" clip-rule="evenodd" d="M18.8574 10.1042H25.074V55.9517H18.8574V10.1042ZM30.5177 10.1045H35.1802V55.952H30.5177V10.1045ZM46.8293 10.1045H40.6127V55.952H46.8293V10.1045Z" fill="#D8D8D8"/>
</g>
<path fill-rule="evenodd" clip-rule="evenodd" d="M37.5075 0L9.53278 9.32491L46.8324 10.102L37.5075 0ZM0.207031 13.2112L9.53195 9.32586L46.8316 10.1029L18.8569 19.4279L0.207031 13.2112Z" fill="#CBCBCB"/>
<path fill-rule="evenodd" clip-rule="evenodd" d="M0.207031 13.2129V14.767L18.8569 20.9837V19.4295L9.53194 9.32751L0.207031 13.2129Z" fill="#F7F7F7"/>
<path fill-rule="evenodd" clip-rule="evenodd" d="M34.4004 4.66438L39.0628 3.11023V8.16123L34.4004 9.71538V4.66438Z" fill="#989898"/>
<path fill-rule="evenodd" clip-rule="evenodd" d="M34.4004 4.66355L32.0692 3.88647V6.99478L34.4004 9.71455V4.66355Z" fill="#CBCBCB"/>
<path fill-rule="evenodd" clip-rule="evenodd" d="M32.0723 3.88789L36.7347 2.33374L39.066 3.11082L34.4035 4.66497L32.0723 3.88789Z" fill="#EBEBEB"/>
<path fill-rule="evenodd" clip-rule="evenodd" d="M0.207031 52.0673V50.5131L2.53826 49.7361V48.1819L4.86949 47.4048V45.8507L7.20072 45.0736L11.8632 46.6278V51.2902L4.86949 53.6214L0.207031 52.0673Z" fill="#CBCBCB"/>
<mask id="mask2_2_801" style="mask-type:alpha" maskUnits="userSpaceOnUse" x="0" y="45" width="12" height="9">
<path fill-rule="evenodd" clip-rule="evenodd" d="M0.207031 52.0673V50.5131L2.53826 49.7361V48.1819L4.86949 47.4048V45.8507L7.20072 45.0736L11.8632 46.6278V51.2902L4.86949 53.6214L0.207031 52.0673Z" fill="white"/>
</mask>
<g mask="url(#mask2_2_801)">
<path fill-rule="evenodd" clip-rule="evenodd" d="M4.87109 53.6194V52.0653L7.20232 51.2882V49.734L9.53355 48.957V47.4028L11.8648 46.6257V53.6194H4.87109Z" fill="#CBCBCB"/>
<path fill-rule="evenodd" clip-rule="evenodd" d="M0.207031 50.5139L4.86949 52.0669V53.6222L0.207031 52.0692V50.5139Z" fill="#F7F7F7"/>
<path fill-rule="evenodd" clip-rule="evenodd" d="M2.53711 48.1771L7.19956 49.7301V51.2854L2.53711 49.7324V48.1771Z" fill="#F7F7F7"/>
<path fill-rule="evenodd" clip-rule="evenodd" d="M4.87109 45.8486L9.53355 47.4016V48.9569L4.87109 47.4039V45.8486Z" fill="#F7F7F7"/>
</g>
<path fill-rule="evenodd" clip-rule="evenodd" d="M21.1953 20.2031L39.8451 20.2019V60.611L21.1953 54.3956V20.2031Z" fill="#F7F7F7"/>
<mask id="mask3_2_801" style="mask-type:alpha" maskUnits="userSpaceOnUse" x="21" y="20" width="19" height="41">
<path fill-rule="evenodd" clip-rule="evenodd" d="M21.1953 20.2031L39.8451 20.2019V60.611L21.1953 54.3956V20.2031Z" fill="white"/>
</mask>
<g mask="url(#mask3_2_801)">
<path fill-rule="evenodd" clip-rule="evenodd" d="M21.1953 26.4252L44.5076 34.1948V38.0813L21.1953 30.3117V26.4252Z" fill="#CBCBCB"/>
<path fill-rule="evenodd" clip-rule="evenodd" d="M21.1953 31.0872L44.5076 38.8568V42.7433L21.1953 34.9737V31.0872Z" fill="#CBCBCB"/>
<path fill-rule="evenodd" clip-rule="evenodd" d="M21.1953 12.4314H24.3036V60.6101H21.1953V12.4314ZM36.7383 12.4314H39.8466V60.6101H36.7383V12.4314ZM32.0736 12.4314H28.9653V60.6101H32.0736V12.4314Z" fill="#F7F7F7"/>
</g>
<path fill-rule="evenodd" clip-rule="evenodd" d="M28.1895 41.9617L32.8519 43.5133V53.6153L28.1895 52.0648V41.9617Z" fill="#CBCBCB"/>
<path fill-rule="evenodd" clip-rule="evenodd" d="M67.8184 17.0969L39.8436 17.8728V60.6132L67.8184 51.2894V17.0969Z" fill="#D8D8D8"/>
<mask id="mask4_2_801" style="mask-type:alpha" maskUnits="userSpaceOnUse" x="39" y="17" width="29" height="44">
<path fill-rule="evenodd" clip-rule="evenodd" d="M67.8184 17.0969L39.8436 17.8728V60.6132L67.8184 51.2894V17.0969Z" fill="white"/>
</mask>
<g mask="url(#mask4_2_801)">
<path fill-rule="evenodd" clip-rule="evenodd" d="M67.8184 23.3129L44.5061 31.0825V34.969L67.8184 27.1994V23.3129Z" fill="#F7F7F7"/>
<path fill-rule="evenodd" clip-rule="evenodd" d="M67.8184 27.9745L44.5061 35.7441V39.6306L67.8184 31.861V27.9745Z" fill="#F7F7F7"/>
<path fill-rule="evenodd" clip-rule="evenodd" d="M67.8184 36.5214L44.5061 44.291V48.9546L67.8184 41.185V36.5214Z" fill="#F7F7F7"/>
<path fill-rule="evenodd" clip-rule="evenodd" d="M67.8184 41.9656L44.5061 49.7352V54.3988L67.8184 46.6292V41.9656Z" fill="#F7F7F7"/>
<path fill-rule="evenodd" clip-rule="evenodd" d="M39.8418 17.0945H46.0584V62.942H39.8418V17.0945ZM51.4904 17.0959H56.1528V62.9434H51.4904V17.0959ZM67.8158 17.0959H61.5992V62.9434H67.8158V17.0959Z" fill="#D8D8D8"/>
</g>
<path fill-rule="evenodd" clip-rule="evenodd" d="M58.4958 6.9928L30.5211 16.3177L67.8207 17.0948L58.4958 6.9928ZM21.1953 20.204L30.5202 16.3187L67.8199 17.0957L39.8451 26.4207L21.1953 20.204Z" fill="#CBCBCB"/>
<path fill-rule="evenodd" clip-rule="evenodd" d="M21.1953 20.2056V21.7597L39.8451 27.9763V26.4222L30.5202 16.3202L21.1953 20.2056Z" fill="#F7F7F7"/>
<path fill-rule="evenodd" clip-rule="evenodd" d="M55.3867 11.6539L60.0492 10.0997V15.1507L55.3867 16.7049V11.6539Z" fill="#989898"/>
<path fill-rule="evenodd" clip-rule="evenodd" d="M55.3867 11.6566L53.0555 10.8795V13.9878L55.3867 16.7076V11.6566Z" fill="#CBCBCB"/>
<path fill-rule="evenodd" clip-rule="evenodd" d="M53.0605 10.8808L57.723 9.32666L60.0542 10.1037L55.3918 11.6579L53.0605 10.8808Z" fill="#EBEBEB"/>
<path fill-rule="evenodd" clip-rule="evenodd" d="M21.1953 59.0541V57.5L23.5265 56.7229V55.1687L25.8578 54.3917V52.8375L28.189 52.0604L32.8515 53.6146V58.277L25.8578 60.6083L21.1953 59.0541Z" fill="#CBCBCB"/>
<mask id="mask5_2_801" style="mask-type:alpha" maskUnits="userSpaceOnUse" x="21" y="52" width="12" height="9">
<path fill-rule="evenodd" clip-rule="evenodd" d="M21.1953 59.0541V57.5L23.5265 56.7229V55.1687L25.8578 54.3917V52.8375L28.189 52.0604L32.8515 53.6146V58.277L25.8578 60.6083L21.1953 59.0541Z" fill="white"/>
</mask>
<g mask="url(#mask5_2_801)">
<path fill-rule="evenodd" clip-rule="evenodd" d="M25.8594 60.6065V59.0523L28.1906 58.2753V56.7211L30.5218 55.944V54.3899L32.8531 53.6128V60.6065H25.8594Z" fill="#CBCBCB"/>
<path fill-rule="evenodd" clip-rule="evenodd" d="M21.1953 57.499L25.8578 59.052V60.6073L21.1953 59.0543V57.499Z" fill="#F7F7F7"/>
<path fill-rule="evenodd" clip-rule="evenodd" d="M23.5234 55.1702L28.1859 56.7232V58.2785L23.5234 56.7255V55.1702Z" fill="#F7F7F7"/>
<path fill-rule="evenodd" clip-rule="evenodd" d="M25.8594 52.8352L30.5218 54.3882V55.9435L25.8594 54.3905V52.8352Z" fill="#F7F7F7"/>
</g>
<path fill-rule="evenodd" clip-rule="evenodd" d="M42.168 27.1949L60.8178 27.1937V67.6028L42.168 61.3874V27.1949Z" fill="#F7F7F7"/>
<mask id="mask6_2_801" style="mask-type:alpha" maskUnits="userSpaceOnUse" x="42" y="27" width="19" height="41">
<path fill-rule="evenodd" clip-rule="evenodd" d="M42.168 27.1949L60.8178 27.1937V67.6028L42.168 61.3874V27.1949Z" fill="white"/>
</mask>
<g mask="url(#mask6_2_801)">
<path fill-rule="evenodd" clip-rule="evenodd" d="M42.168 33.4089L65.4803 41.1785V45.0651L42.168 37.2955V33.4089Z" fill="#CBCBCB"/>
<path fill-rule="evenodd" clip-rule="evenodd" d="M42.168 38.0701L65.4803 45.8397V49.7262L42.168 41.9566V38.0701Z" fill="#CBCBCB"/>
<path fill-rule="evenodd" clip-rule="evenodd" d="M42.168 19.4259H45.2763V67.6046H42.168V19.4259ZM57.7076 19.4264H60.8159V67.6051H57.7076V19.4264ZM53.0496 19.4264H49.9413V67.6051H53.0496V19.4264Z" fill="#F7F7F7"/>
</g>
<path fill-rule="evenodd" clip-rule="evenodd" d="M49.1621 48.953L53.8246 50.5046V60.6066L49.1621 59.0562V48.953Z" fill="#CBCBCB"/>
<path fill-rule="evenodd" clip-rule="evenodd" d="M88.791 24.0883L60.8163 24.8642V67.6045L88.791 58.2808V24.0883Z" fill="#D8D8D8"/>
<mask id="mask7_2_801" style="mask-type:alpha" maskUnits="userSpaceOnUse" x="60" y="24" width="29" height="44">
<path fill-rule="evenodd" clip-rule="evenodd" d="M88.791 24.0883L60.8163 24.8642V67.6045L88.791 58.2808V24.0883Z" fill="white"/>
</mask>
<g mask="url(#mask7_2_801)">
<path fill-rule="evenodd" clip-rule="evenodd" d="M88.791 30.3042L65.4787 38.0738V41.9603L88.791 34.1907V30.3042Z" fill="#989898"/>
<path fill-rule="evenodd" clip-rule="evenodd" d="M88.791 34.9653L65.4787 42.7349V46.6215L88.791 38.8519V34.9653Z" fill="#989898"/>
<path fill-rule="evenodd" clip-rule="evenodd" d="M88.791 43.5106L65.4787 51.2802V55.9438L88.791 48.1742V43.5106Z" fill="#989898"/>
<path fill-rule="evenodd" clip-rule="evenodd" d="M88.791 48.9543L65.4787 56.7239V61.3876L88.791 53.618V48.9543Z" fill="#989898"/>
<path fill-rule="evenodd" clip-rule="evenodd" d="M72.4839 24.0869H77.1463V69.9344H72.4839V24.0869ZM60.8281 24.0918H67.0447V69.9393H60.8281V24.0918ZM88.8021 24.0869H82.5855V69.9344H88.8021V24.0869Z" fill="#D8D8D8"/>
</g>
<path fill-rule="evenodd" clip-rule="evenodd" d="M79.4683 13.9852L51.4936 23.3101L88.7932 24.0872L79.4683 13.9852ZM42.168 27.1957L51.4929 23.3104L88.7925 24.0874L60.8178 33.4123L42.168 27.1957Z" fill="#CBCBCB"/>
<path fill-rule="evenodd" clip-rule="evenodd" d="M42.168 27.1969V28.7511L60.8178 34.9677V33.4135L51.4929 23.3115L42.168 27.1969Z" fill="#F7F7F7"/>
<path fill-rule="evenodd" clip-rule="evenodd" d="M76.3594 18.6456L81.0218 17.0914V22.1424L76.3594 23.6966V18.6456Z" fill="#989898"/>
<path fill-rule="evenodd" clip-rule="evenodd" d="M76.3594 18.6482L74.0281 17.8711V20.9794L76.3594 23.6992V18.6482Z" fill="#CBCBCB"/>
<path fill-rule="evenodd" clip-rule="evenodd" d="M74.0332 17.8726L78.6957 16.3185L81.0269 17.0956L76.3644 18.6497L74.0332 17.8726Z" fill="#EBEBEB"/>
<path fill-rule="evenodd" clip-rule="evenodd" d="M42.168 66.0457V64.4915L44.4992 63.7145V62.1603L46.8304 61.3832V59.8291L49.1617 59.052L53.8241 60.6062V65.2686L46.8304 67.5998L42.168 66.0457Z" fill="#CBCBCB"/>
<mask id="mask8_2_801" style="mask-type:alpha" maskUnits="userSpaceOnUse" x="42" y="59" width="12" height="9">
<path fill-rule="evenodd" clip-rule="evenodd" d="M42.168 66.0457V64.4915L44.4992 63.7145V62.1603L46.8304 61.3832V59.8291L49.1617 59.052L53.8241 60.6062V65.2686L46.8304 67.5998L42.168 66.0457Z" fill="white"/>
</mask>
<g mask="url(#mask8_2_801)">
<path fill-rule="evenodd" clip-rule="evenodd" d="M46.8359 67.5982V66.044L49.1672 65.267V63.7128L51.4984 62.9357V61.3816L53.8296 60.6045V67.5982H46.8359Z" fill="#CBCBCB"/>
<path fill-rule="evenodd" clip-rule="evenodd" d="M42.168 64.4886L46.8304 66.0416V67.597L42.168 66.044V64.4886Z" fill="#F7F7F7"/>
<path fill-rule="evenodd" clip-rule="evenodd" d="M44.5039 62.1587L49.1664 63.7117V65.267L44.5039 63.714V62.1587Z" fill="#F7F7F7"/>
<path fill-rule="evenodd" clip-rule="evenodd" d="M46.8359 59.827L51.4984 61.38V62.9353L46.8359 61.3823V59.827Z" fill="#F7F7F7"/>
</g>
</svg>
