<svg width="72" height="64" viewBox="0 0 72 64" fill="none" xmlns="http://www.w3.org/2000/svg">
<path d="M64.4416 20.6565C60.1649 9.18872 48.9043 1 35.6858 1C20.4643 1 7.83891 11.8585 5.48438 26.0786" stroke="#CBCBCB" stroke-width="2" stroke-linejoin="round"/>
<path fill-rule="evenodd" clip-rule="evenodd" d="M70.5453 19.2644L67.1811 28.7748C67.1201 28.9471 66.931 29.0374 66.7587 28.9765C66.7284 28.9658 66.6998 28.9507 66.6739 28.9317L58.3418 22.8481C58.1942 22.7403 58.1619 22.5332 58.2697 22.3855C58.3127 22.3266 58.3739 22.2836 58.4439 22.2631L70.1402 18.8363C70.3156 18.7849 70.4995 18.8855 70.5509 19.0609C70.5704 19.1276 70.5685 19.1988 70.5453 19.2644Z" fill="#CBCBCB"/>
<path d="M7.56035 42.5791C11.8371 54.0469 23.0977 62.2356 36.3161 62.2356C51.5377 62.2356 64.163 51.377 66.5176 37.157" stroke="#CBCBCB" stroke-width="2" stroke-linejoin="round"/>
<path fill-rule="evenodd" clip-rule="evenodd" d="M1.45667 43.9712L4.82085 34.4608C4.88181 34.2885 5.07094 34.1982 5.24329 34.2591C5.27358 34.2698 5.30215 34.2849 5.3281 34.3039L13.6602 40.3875C13.8078 40.4953 13.8401 40.7024 13.7323 40.8501C13.6893 40.909 13.628 40.952 13.558 40.9725L1.8618 44.3993C1.68636 44.4507 1.50248 44.3501 1.45108 44.1747C1.43153 44.108 1.43349 44.0368 1.45667 43.9712Z" fill="#CBCBCB"/>
<mask id="mask0_2_1663" style="mask-type:alpha" maskUnits="userSpaceOnUse" x="24" y="20" width="24" height="24">
<path d="M24.25 24.1233L35.8351 20.2292L47.4202 24.1233V39.1434L35.8351 43.0375L24.25 39.1434V24.1233Z" fill="white"/>
</mask>
<g mask="url(#mask0_2_1663)">
<path d="M24.25 24.1233L35.8351 20.2292L47.4202 24.1233V39.1434L35.8351 43.0375L24.25 39.1434V24.1233Z" fill="#CBCBCB"/>
<path fill-rule="evenodd" clip-rule="evenodd" d="M24.25 24.5737L35.8351 28.3751V43.0375L24.25 39.2361V24.5737Z" fill="#EBEBEB"/>
<path fill-rule="evenodd" clip-rule="evenodd" d="M47.4199 24.5737L35.8348 28.3751V43.0375L47.4199 39.2361V24.5737Z" fill="#989898"/>
</g>
</svg>
