<svg width="11" height="20" viewBox="0 0 11 20" fill="none" xmlns="http://www.w3.org/2000/svg">
<path d="M5.31513 20C3.92857 19.958 3.23529 19.909 3.23529 19.8529L3.55882 17.3529C2.83473 17.2689 2.28782 17.1919 1.91807 17.1218C1.54832 17.0378 1.15546 16.9398 0.739496 16.8277L0.231092 16.7227L0.60084 13.9286C1.87955 14.0826 3.01961 14.1877 4.02101 14.2437L4.36765 11.6597C2.76541 11.1695 1.63305 10.5812 0.970588 9.89496C0.323529 9.20868 0 8.37535 0 7.39496C0 6.05042 0.485294 4.993 1.45588 4.22269C2.44188 3.43837 3.7514 3.04622 5.38445 3.04622L5.54622 3.02521L5.96219 0H8.04202L7.60294 3.19328C7.84944 3.20728 8.30392 3.2633 8.96639 3.36134C9.64426 3.44538 10.1218 3.52241 10.3992 3.59244L10.7227 3.67647L10.3992 6.53361C9.21289 6.42157 8.12675 6.33753 7.14076 6.28151L6.84034 8.65546C7.88796 9.0056 8.70448 9.35574 9.28992 9.70588C9.87535 10.056 10.3067 10.4762 10.584 10.9664C10.8613 11.4426 11 12.0518 11 12.7941C11 14.3347 10.4839 15.5042 9.45168 16.3025C8.43487 17.0868 7.10994 17.479 5.47689 17.479H5.66176L5.31513 20ZM5.08403 6.2605C4.77591 6.31653 4.51401 6.43557 4.29832 6.61765C4.08263 6.79972 3.97479 6.98179 3.97479 7.16387C3.97479 7.37395 4.27521 7.64706 4.87605 7.98319L5.08403 6.2605ZM6.10084 14.2647C6.40896 14.1667 6.64006 14.0196 6.79412 13.8235C6.94818 13.6274 7.02521 13.4384 7.02521 13.2563C7.02521 12.9482 6.80182 12.626 6.35504 12.2899L6.10084 14.2647Z" fill="white"/>
</svg>
